<?xml version="1.0" encoding="UTF-8" standalone="no"?>
<!-- Created with Inkscape (http://www.inkscape.org/) -->

<svg
   xmlns:dc="http://purl.org/dc/elements/1.1/"
   xmlns:cc="http://creativecommons.org/ns#"
   xmlns:rdf="http://www.w3.org/1999/02/22-rdf-syntax-ns#"
   xmlns:svg="http://www.w3.org/2000/svg"
   xmlns="http://www.w3.org/2000/svg"
   xmlns:sodipodi="http://sodipodi.sourceforge.net/DTD/sodipodi-0.dtd"
   xmlns:inkscape="http://www.inkscape.org/namespaces/inkscape"
   id="svg2"
   version="1.1"
   inkscape:version="0.91 r13725"
   width="166"
   height="299"
   viewBox="0 0 166 299"
   sodipodi:docname="克拉琳.svg">
  <metadata
     id="metadata8">
    <rdf:RDF>
      <cc:Work
         rdf:about="">
        <dc:format>image/svg+xml</dc:format>
        <dc:type
           rdf:resource="http://purl.org/dc/dcmitype/StillImage" />
        <dc:title></dc:title>
      </cc:Work>
    </rdf:RDF>
  </metadata>
  <defs
     id="defs6" />
  <sodipodi:namedview
     pagecolor="#ffffff"
     bordercolor="#666666"
     borderopacity="1"
     objecttolerance="10"
     gridtolerance="10"
     guidetolerance="10"
     inkscape:pageopacity="0"
     inkscape:pageshadow="2"
     inkscape:window-width="1050"
     inkscape:window-height="683"
     id="namedview4"
     showgrid="false"
     inkscape:zoom="0.75846572"
     inkscape:cx="16.23095"
     inkscape:cy="196.11318"
     inkscape:window-x="593"
     inkscape:window-y="181"
     inkscape:window-maximized="0"
     inkscape:current-layer="svg2" />
  <path
     style="fill:#000000"
     d="m 11.276295,296.04966 c 0.83912,-1.62269 1.52568,-3.64769 1.52568,-4.5 0,-0.85231 0.41704,-1.54966 0.92676,-1.54966 1.00364,0 4.00348,-5.39654 4.60022,-8.27553 0.20241,-0.97653 1.29164,-2.94972 2.42052,-4.38485 1.12887,-1.43514 2.0525,-3.16855 2.0525,-3.85203 0,-0.68349 0.62245,-1.75929 1.38322,-2.39067 1.06921,-0.88737 1.52063,-0.78987 1.98854,0.42949 0.3428,0.89332 0.18479,1.31756 -0.36433,0.97818 -0.53331,-0.3296 -4.00793,5.49703 -7.72138,12.94806 -3.71345,7.45104 -7.1085,13.54735 -7.54457,13.54735 -0.43606,0 -0.10628,-1.32765 0.73284,-2.95034 z M 145.751,292.5676 c -1.33412,-3.51508 -2.83795,-6.13625 -3.34185,-5.82482 -0.5039,0.31143 -0.57831,0.0196 -0.16536,-0.64863 0.41296,-0.66817 0.26954,-2.4252 -0.31871,-3.90451 -0.58825,-1.4793 -1.60638,-4.03964 -2.26253,-5.68964 -1.41408,-3.556 -1.32109,-3.28322 -2.29878,-6.74309 -0.42632,-1.5087 -1.17198,-2.49783 -1.65701,-2.19806 -0.48503,0.29976 -0.58555,-0.22717 -0.22339,-1.17096 0.44376,-1.15641 0.28072,-1.4825 -0.5,-1 -0.78803,0.48703 -0.94085,0.14884 -0.4779,-1.05758 0.52213,-1.36064 1.23771,-0.50238 3.07348,3.68633 3.72838,8.5071 11.5086,30.03113 11.02871,30.51101 -0.23705,0.23705 -1.52255,-2.44497 -2.85666,-5.96005 z M 25.801975,268.05902 c 0,-0.51754 0.44485,-1.21592 0.98855,-1.55194 0.56686,-0.35034 0.7345,0.0511 0.39301,0.94098 -0.66479,1.73242 -1.38156,2.04939 -1.38156,0.61096 z m 2.39301,-4.64081 c 0.33385,-0.86998 0.60699,-2.44498 0.60699,-3.5 0,-1.05501 0.675,-1.91821 1.5,-1.91821 0.825,0 1.5,-0.4294 1.5,-0.95422 0,-0.52482 4.70202,-10.53732 10.44893,-22.25 11.38029,-23.19397 16.48386,-34.74283 17.28199,-39.10736 0.42637,-2.33153 0.10908,-2.91595 -1.85838,-3.42291 -3.13611,-0.8081 -24.81726,-11.69214 -27.37254,-13.74115 -1.1,-0.88206 3.4,1.07001 10,4.33794 6.6,3.26793 13.8,6.52533 16,7.23868 6.58704,2.13582 6.77716,2.64964 3.47783,9.39902 -1.61316,3.3 -2.9431,6.54881 -2.95542,7.21958 -0.0123,0.67077 -0.8505,2.69577 -1.86262,4.5 C 52.045555,216.41811 44.852025,233 45.513015,233 c 0.32941,0 -0.14237,0.81913 -1.0484,1.82029 -0.90604,1.00116 -4.79558,8.20116 -8.64343,16 C 31.973335,258.61913 28.546745,265 28.206545,265 c -0.3402,0 -0.3454,-0.7118 -0.0116,-1.58179 z m 105.171285,-1.71134 c 0.37553,-0.98622 0.93469,-1.54122 1.24258,-1.23333 0.30789,0.30789 6.4e-4,1.11479 -0.68278,1.79313 -0.98762,0.98026 -1.10248,0.8654 -0.5598,-0.5598 z m -1.05153,-4.41374 c -5.20393,-12.70746 -17.08818,-50.05104 -16.2083,-50.93092 0.1894,-0.1894 1.58468,3.81412 3.10062,8.89671 1.51594,5.0826 5.43595,16.83758 8.71114,26.1222 3.27518,9.28461 5.76947,17.06652 5.54287,17.29313 -0.22661,0.2266 -0.74246,-0.3949 -1.14633,-1.38112 z M 113.89338,200.4487 c -0.63032,-2.50321 -0.8925,-4.96152 -0.58262,-5.4629 0.30987,-0.50139 4.93466,-3.50819 10.27731,-6.68178 5.34265,-3.17358 10.61391,-6.32263 11.71391,-6.99787 1.1,-0.67524 2.675,-1.5369 3.5,-1.91481 0.825,-0.37791 2.85,-1.6422 4.5,-2.80955 1.65,-1.16734 4.34507,-2.78829 5.98904,-3.60211 3.19765,-1.58295 11.9948,-9.85724 14.86307,-13.97968 1.00527,-1.44482 0.83448,-0.77066 -0.40463,1.59725 -3.22266,6.15842 -7.61232,9.55755 -28.94748,22.41544 l -19.5,11.75191 0.21786,5.1177 c 0.11983,2.81473 0.0607,5.1177 -0.13128,5.1177 -0.19203,0 -0.86486,-2.04808 -1.49518,-4.5513 z M 24.051975,175.01096 c -3.35049,-2.04283 -4.61743,-3.83295 -1.5,-2.11942 2.32217,1.27641 5.88121,4.03749 5.25,4.07292 -0.275,0.0154 -1.9625,-0.86364 -3.75,-1.9535 z m 60.79531,0.43444 c 2.43688,-2.93625 5.02185,-3.74742 7.57969,-2.3785 1.30625,0.69908 2.375,1.87002 2.375,2.60208 0,1.64452 -1.21708,1.71394 -2.77287,0.15815 -0.89717,-0.89717 -1.77799,-0.89717 -3.74706,0 -3.62824,1.65314 -4.99727,1.50099 -3.43476,-0.38173 z m -71.6853,-7.79253 c -3.2230103,-2.39093 -6.7600103,-5.4219 -7.8600103,-6.7355 -1.1,-1.3136 -0.0862,-0.70739 2.25288,1.34713 2.33909,2.05453 4.5890903,3.75379 5.0000003,3.77614 0.90924,0.0495 7.91992,5.95936 7.06936,5.95936 -0.33122,0 -3.23923,-1.95621 -6.46223,-4.34713 z m 121.248695,-8.07555 c 0.6857,-1.78689 3.143,-2.78809 3.88728,-1.58382 0.30802,0.49838 -0.32298,1.37873 -1.40223,1.95633 -2.61958,1.40195 -3.13625,1.32451 -2.48505,-0.37251 z M 34.341995,158.06476 C 33.698235,157.02314 37.552675,154 39.524485,154 c 2.27214,0 1.35649,1.90779 -1.66576,3.47065 -1.68617,0.87196 -3.18818,1.1257 -3.51673,0.59411 z m 11.45998,-0.33533 c 0,-0.8335 0.675,-1.77447 1.5,-2.09106 0.825,-0.31658 1.5,-0.19482 1.5,0.27057 0,0.46539 -0.675,1.40637 -1.5,2.09106 -1.22111,1.01343 -1.5,0.96312 -1.5,-0.27057 z m 9.245,0.0206 c 0.22641,-0.6875 1.50141,-1.39791 2.83333,-1.57869 2.37174,-0.32191 2.38043,-0.29679 0.42167,1.2182 -2.43999,1.88719 -3.80768,2.03866 -3.255,0.36049 z M 121.80198,157.5 c 0.68469,-0.825 1.69489,-1.5 2.24489,-1.5 0.55783,0 0.44954,0.66326 -0.24489,1.5 -0.68469,0.825 -1.69489,1.5 -2.24489,1.5 -0.55783,0 -0.44954,-0.66326 0.24489,-1.5 z m 8.52565,0.5415 c -0.35883,-0.5806 0.0705,-1.33304 0.9541,-1.6721 2.19989,-0.84418 2.88424,0.0836 1.13344,1.53666 -0.98557,0.81795 -1.6395,0.86038 -2.08754,0.13544 z M 2.2734946,156.95391 C 1.4142946,155.56371 2.7603446,146 3.8152047,146 c 0.45406,0 0.37218,1.642 -0.18195,3.64889 -0.5541301,2.00689 -0.8052601,4.70689 -0.5580701,6 0.4850001,2.53709 0.2231801,2.9633 -0.80169,1.30502 z M 163.54218,152.75 c -0.71956,-4.88615 -4.10337,-20.08987 -9.0695,-40.75 -4.29056,-17.849638 -6.01584,-29.885638 -7.16719,-50 -1.64125,-28.673225 -3.48546,-53.7893899 -4.05943,-55.2851419 -0.35951,-0.9368539 -1.0565,-1.4543979 -1.54886,-1.1500975 -0.49237,0.3043003 -0.89522,0.076716 -0.89522,-0.5057436 0,-0.5824594 0.3949,-1.059017 0.87756,-1.059017 2.37894,0 3.42829,3.8915521 4.24684,15.749615 2.44345,35.397132 4.93609,68.180789 5.45539,71.750385 0.67493,4.639367 5.26411,24.91802 9.39169,41.5 2.83439,11.38677 4.72944,23 3.75315,23 -0.2782,0 -0.72119,-1.4625 -0.98443,-3.25 z m -45.2402,-2.25201 c -6.15666,-2.17673 -9.07299,-6.12495 -10.52481,-14.24885 -0.69574,-3.89311 -0.94466,-8.96706 -0.56433,-11.50325 0.64889,-4.32714 0.85239,-4.55956 4.38481,-5.00782 2.03738,-0.25854 8.20433,-0.41788 13.70433,-0.35407 l 10,0.116 -0.11056,10.5 c -0.12925,12.27591 -1.64517,16.75886 -6.72962,19.90123 -3.95255,2.44281 -4.79799,2.49247 -10.15982,0.59676 z m -66.317345,-1.52798 c -4.27192,-2.60451 -8.1199,-10.88709 -9.49613,-20.43995 -1.55891,-10.82097 -1.88431,-10.55063 12.53209,-10.41175 6.75476,0.0651 13.63138,0.41228 15.28138,0.77156 2.89801,0.63103 2.9981,0.8395 2.94422,6.13169 -0.13225,12.98788 -3.55924,21.23226 -10.12775,24.36457 -4.46663,2.12999 -7.12035,2.03081 -11.13381,-0.41612 z M 4.3751847,143 c 0.3678,-1.375 1.08577,-3.175 1.5955,-4 0.64411,-1.04249 0.72283,-0.73748 0.25808,1 -0.36779,1.375 -1.08577,3.175 -1.5955,4 -0.64411,1.04249 -0.72283,0.73748 -0.25808,-1 z m 2.58409,-7 c -0.003,-0.825 0.60139,-3.075 1.3427,-5 0.87462,-2.27116 1.35872,-2.7978 1.37882,-1.5 0.017,1.1 -0.58718,3.35 -1.3427,5 -0.75553,1.65 -1.376,2.325 -1.37882,1.5 z m 2.9283,-9.5 c 0.10413,-1.89422 1.7707603,-5.08385 1.8288003,-3.5 0.0302,0.825 -0.38124,2.175 -0.9144,3 -0.53316,0.825 -0.9446403,1.05 -0.9144003,0.5 z m 2.5992803,-5.14846 c -0.80549,-0.80548 -0.21651,-3.44169 3.3181,-14.85154 5.61541,-18.126751 6.91744,-23.151396 7.90345,-30.5 1.30735,-9.743565 7.82693,-42.06972 8.6475,-42.877057 0.77592,-0.763407 -0.32245,7.117923 -2.21269,15.877057 -0.77149,3.575 -1.85949,9.2 -2.41778,12.5 -0.55829,3.3 -1.40694,7.575 -1.88588,9.5 -0.47895,1.925 -1.11891,5.715649 -1.42213,8.423666 -0.30323,2.708016 -2.2156,10.133016 -4.24972,16.5 -2.03413,6.366984 -3.73606,12.994134 -3.78207,14.727004 -0.046,1.73287 -0.35084,2.98727 -0.6774,2.78756 -0.8097,-0.49519 -2.95005,6.6819 -2.30428,7.72677 0.6111,0.98879 0.008,1.11149 -0.9171,0.18654 z m 58.32348,-9.32521 c -1.12751,-0.71284 -1.20981,-1.22488 -0.33713,-2.09756 1.36893,-1.36893 3.32877,-0.40911 3.32877,1.63025 0,1.6637 -0.88148,1.80139 -2.99164,0.46731 z m 35.534685,0.0433 c -0.66192,-1.071 1.91657,-3.27668 2.79897,-2.39429 0.36189,0.3619 0.65799,0.98485 0.65799,1.38434 0,1.12133 -2.86993,1.95979 -3.45696,1.00995 z M 74.001975,60.8 c -0.66,-0.66 -1.2,-1.65 -1.2,-2.2 0,-0.555556 0.53333,-0.466667 1.2,0.2 0.79691,0.796914 5.13968,1.2 12.92857,1.2 13.242055,0 13.340605,-0.04557 17.391645,-8.039887 1.34297,-2.650216 2.87017,-5.083348 3.39379,-5.40696 0.52361,-0.323612 -0.70533,2.574178 -2.73099,6.439534 -3.1318,5.976081 -4.20685,7.175209 -7.183015,8.01204 -5.05325,1.420856 -22.32297,1.272303 -23.8,-0.204727 z M 67.599985,47.70713 C 65.058405,42.643209 61.275835,34.9 59.194265,30.5 c -2.08157,-4.4 -5.28827,-10.66061 -7.12601,-13.912468 -2.437,-4.312246 -3.0412,-6.20681 -2.23238,-6.9999999 0.63542,-0.623147 0.98763,-0.660524 0.82482,-0.08753 -0.15627,0.5499999 4.82041,11.2536769 11.05929,23.7859479 6.23889,12.532272 11.1539,22.97548 10.92225,23.207131 -0.23165,0.23165 -2.50066,-3.722027 -5.04225,-8.785949 z M 109.40442,43.75 c 1.16368,-2.018918 13.46464,-18.806473 15.77738,-21.531941 1.1661,-1.374195 4.14518,-4.747888 6.62018,-7.497094 2.475,-2.749207 5.2875,-5.9049539 6.25,-7.0127709 0.9625,-1.1078176 1.7461,-1.6078591 1.74133,-1.1112038 -0.005,0.4966548 -1.60704,2.5893678 -3.56059,4.6504727 -1.95355,2.061105 -3.2662,4.209754 -2.917,4.774777 0.34921,0.565022 0.0804,0.903664 -0.59738,0.752537 -1.02309,-0.228129 -4.96293,4.21332 -15.29987,17.247808 -0.66411,0.837421 -2.67112,3.649921 -4.46002,6.25 C 111.16954,42.872663 109.47596,45 109.19492,45 c -0.28103,0 -0.18676,-0.5625 0.2095,-1.25 z M 32.803275,30.916667 c 10e-4,-1.318687 3.76327,-17.514977 6.10142,-26.2676088 0.5658,-2.118018 1.21071,-3.66896278 1.43313,-3.446544 0.42818,0.4281862 -6.43739,30.0026948 -7.13014,30.7141528 -0.22314,0.229166 -0.40513,-0.220834 -0.40441,-1 z M 46.350965,6.0947408 c -0.8263,-1.5978926 -2.29232,-3.695214 -3.25782,-4.6607143 -1.30878,-1.30878248 -1.37833,-1.63225808 -0.27331,-1.27128208 1.42232,0.4646315 6.71155,8.83725568 5.58275,8.83725568 -0.30209,0 -1.22531,-1.307367 -2.05162,-2.9052593 z"
     id="path3338"
     inkscape:connector-curvature="0" />
</svg>
