<?xml version="1.0" encoding="UTF-8" standalone="no"?>
<!-- Created with Inkscape (http://www.inkscape.org/) -->

<svg
   xmlns:dc="http://purl.org/dc/elements/1.1/"
   xmlns:cc="http://creativecommons.org/ns#"
   xmlns:rdf="http://www.w3.org/1999/02/22-rdf-syntax-ns#"
   xmlns:svg="http://www.w3.org/2000/svg"
   xmlns="http://www.w3.org/2000/svg"
   xmlns:sodipodi="http://sodipodi.sourceforge.net/DTD/sodipodi-0.dtd"
   xmlns:inkscape="http://www.inkscape.org/namespaces/inkscape"
   width="500"
   height="420"
   viewBox="0 0 500 420"
   id="svg5268"
   version="1.1"
   inkscape:version="0.91 r13725"
   sodipodi:docname="tree2.svg">
  <defs
     id="defs5270" />
  <sodipodi:namedview
     id="base"
     pagecolor="#ffffff"
     bordercolor="#666666"
     borderopacity="1.0"
     inkscape:pageopacity="0.0"
     inkscape:pageshadow="2"
     inkscape:zoom="1.3330383"
     inkscape:cx="211.23778"
     inkscape:cy="253.29196"
     inkscape:document-units="px"
     inkscape:current-layer="layer1"
     showgrid="false"
     inkscape:window-width="1920"
     inkscape:window-height="1027"
     inkscape:window-x="-8"
     inkscape:window-y="-8"
     inkscape:window-maximized="1" />
  <metadata
     id="metadata5273">
    <rdf:RDF>
      <cc:Work
         rdf:about="">
        <dc:format>image/svg+xml</dc:format>
        <dc:type
           rdf:resource="http://purl.org/dc/dcmitype/StillImage" />
        <dc:title />
      </cc:Work>
    </rdf:RDF>
  </metadata>
  <g
     inkscape:label="Layer 1"
     inkscape:groupmode="layer"
     id="layer1">
    <g
       transform="translate(-219.05882,-154.30227)"
       id="g5757"
       style="fill:#000000">
      <path
         sodipodi:nodetypes="ccsssacaacaacaaaaac"
         inkscape:connector-curvature="0"
         id="path5511"
         d="m 425.62816,562.04763 70.58823,0 c 0,0 4.86348,-32.82452 1.4706,-54.41176 -7.59699,-48.3359 -20.14922,-68.91367 -17.16107,-103.88331 3.50211,-40.98432 8.15192,-53.79277 14.72072,-68.46738 13.1376,-29.34923 25.93232,-42.55119 36.04955,-65.24563 14.53163,-32.5966 14.31971,-45.27273 35.09302,-101.15257 0,0 -23.79881,55.71757 -39.65811,81.39594 -9.35303,15.14383 -22.46975,27.66869 -32.45002,42.4067 -8.69081,12.83385 -23.79997,39.94625 -23.79997,39.94625 0,0 -16.98171,-24.58227 -24.26471,-37.60003 -9.32827,-16.67351 -19.22581,-33.40286 -24.77967,-51.68338 -5.6559,-18.61638 -8.30857,-57.77542 -8.30857,-57.77542 0,0 -2.8552,48.09556 1.65442,71.50735 3.08056,15.99282 10.66305,30.80935 17.09558,45.77206 7.165,16.66652 21.42335,30.92511 23.89706,48.89706 2.52205,18.32319 -8.09769,36.18228 -9.98955,54.58121 -3.58022,34.81896 3.73273,70.53636 -2.51045,104.97762 -3.19371,17.61846 -17.64706,50.73529 -17.64706,50.73529 z"
         style="fill:#000000;fill-rule:evenodd;stroke:none;stroke-width:1px;stroke-linecap:butt;stroke-linejoin:miter;stroke-opacity:1" />
      <path
         sodipodi:nodetypes="caacaac"
         inkscape:connector-curvature="0"
         id="path5513"
         d="m 451.0383,491.07211 c -5.16566,-9.11461 -21.91042,0.94683 -32.82417,0.1676 -13.74341,-0.98127 -27.11503,-5.60992 -40.88535,-6.08148 -21.89295,-0.74972 -65.51136,5.19932 -65.51136,5.19932 0,0 48.05416,-0.75413 71.75054,2.59965 14.15052,2.00274 27.37311,11.81289 41.59451,10.39863 9.50096,-0.94483 29.1524,-5.52492 25.87583,-12.28372 z"
         style="fill:#000000;fill-rule:evenodd;stroke:none;stroke-width:1px;stroke-linecap:butt;stroke-linejoin:miter;stroke-opacity:1" />
      <path
         sodipodi:nodetypes="sacas"
         inkscape:connector-curvature="0"
         id="path5515"
         d="m 455.11394,402.7937 c -11.58124,-7.04844 -55.39628,-3.49855 -82.6691,-8.31891 -35.92899,-6.3503 -106.06602,-27.03643 -106.06602,-27.03643 0,0 79.07369,33.5456 121.14404,38.99486 22.37607,2.89832 82.85821,5.65218 67.59108,-3.63952 z"
         style="fill:#000000;fill-rule:evenodd;stroke:none;stroke-width:1px;stroke-linecap:butt;stroke-linejoin:miter;stroke-opacity:1" />
      <path
         sodipodi:nodetypes="saacaas"
         inkscape:connector-curvature="0"
         id="path5517"
         d="m 480.01206,381.47651 c -1.03732,-6.77666 16.60063,-6.68132 24.95671,-9.87871 7.93801,-3.03741 15.51982,-7.52441 23.91685,-8.83883 19.70953,-3.08519 59.79212,2.59966 59.79212,2.59966 0,0 -36.82904,0.43268 -54.5928,4.67938 -9.45293,2.25988 -17.51383,8.97313 -27.03644,10.91856 -8.8314,1.80422 -26.06568,6.86174 -27.03644,0.51994 z"
         style="fill:#000000;fill-rule:evenodd;stroke:none;stroke-width:1px;stroke-linecap:butt;stroke-linejoin:miter;stroke-opacity:1" />
      <path
         sodipodi:nodetypes="caacaac"
         inkscape:connector-curvature="0"
         id="path5519"
         d="m 482.181,458.48943 c -2.9002,-9.37154 15.61645,-12.59851 24.95671,-15.59794 23.64325,-7.59253 49.73454,-1.40539 74.3502,-4.67939 24.0228,-3.19514 71.23061,-14.55807 71.23061,-14.55807 0,0 -58.09421,21.18308 -88.38835,26.5165 -11.96747,2.10693 -24.29998,0.9113 -36.3952,2.07973 -15.32114,1.48007 -42.52492,13.71121 -45.75397,6.23917 z"
         style="fill:#000000;fill-rule:evenodd;stroke:none;stroke-width:1px;stroke-linecap:butt;stroke-linejoin:miter;stroke-opacity:1" />
    </g>
    <g
       id="layer1-7"
       transform="translate(416.98442,48.181173)">
      <g
         id="g338"
         transform="matrix(0.20072363,0,0,0.20072363,-0.4711295,0.50832858)">
        <path
           style="fill:#d54140"
           id="path340"
           d="M 91.822,59.845 C 88.419,57.93 89.375,48.663 92.87,42.372 96.366,36.082 104.753,18.609 94.269,7.775 83.785,-3.059 69.833,-0.931 63.865,4.28 c -8.326,7.271 -12.23,19.219 -6.29,30.053 5.94,10.834 15.376,15.028 15.376,19.222 0,4.193 -2.797,11.882 -10.484,4.193 C 54.78,50.059 50.936,30.84 38.704,29.792 26.472,28.744 13.543,33.635 13.543,49.361 c 0,15.726 10.134,25.86 19.22,25.162 9.086,-0.698 29.276,-3.972 27.776,4.028 -1.283,6.843 -5.492,10.097 -10,6.5 -7.211,-5.755 -23.018,-4.235 -32.454,4.5 -9.436,8.735 -8.488,28.409 -2.546,34 5.941,5.593 24.211,16.322 37.492,0.246 13.281,-16.076 1.747,-26.209 13.63,-25.161 11.882,1.048 9.436,10.134 6.29,13.279 -3.146,3.145 -18.171,21.317 -7.687,33.898 10.483,12.581 19.917,11.53 27.605,10.134 7.689,-1.396 25.51,-10.483 19.92,-28.307 -5.59,-17.823 -26.558,-19.219 -20.268,-27.957 6.29,-8.738 11.881,-4.543 12.23,1.747 0.351,6.29 9.929,23.033 18.286,28.12 11.5,7 34.253,-1.281 36,-20.5 1.746,-19.219 -12.698,-28.238 -26.678,-28.238 -13.98,0 -30.053,6.641 -28.307,-4.193 1.747,-10.834 20.044,-3.569 25.984,-3.569 11.5,0 25.039,-8.662 23.29,-28.581 -1.748,-19.92 -19.221,-29.355 -31.802,-23.415 -12.581,5.94 -20.264,20.968 -19.566,29.356 0.698,8.388 -4.546,12.581 -10.136,9.435 z"
           inkscape:connector-curvature="0" />
        <circle
           style="fill:#ffcf09"
           id="circle342"
           r="19.620001"
           cy="79.051003"
           cx="82.539001" />
        <circle
           style="fill:#ffe36b"
           id="circle344"
           r="16"
           cy="79.551003"
           cx="82.873001" />
        <path
           style="fill:#dd7273"
           id="path346"
           d="m 31.039,70.551 c 0,0 -20.5,-4.5 -13,-27 5.452,-16.356 21.5,-9.5 25,-4 3.5,5.5 -12.5,-10.5 -21,6.5 -7.145,14.29 9,24.5 9,24.5 z"
           inkscape:connector-curvature="0" />
        <path
           style="fill:#dd7273"
           id="path348"
           d="m 45.028,123.789 c 0,0 -19.369,15.535 -29.489,-7.238 -7.356,-16.554 8.856,-30.231 15.5,-28.5 6.644,1.731 -15.884,4.042 -10.453,23.286 4.565,16.176 24.442,12.452 24.442,12.452 z"
           inkscape:connector-curvature="0" />
        <path
           style="fill:#dd7273"
           id="path350"
           d="m 58.665,29.784 c 0,0 -7.792,-19.488 15.036,-25.921 C 90.296,-0.814 97.124,16.566 94.539,22.551 91.955,28.536 92.719,6.06 73.88,8.576 58.043,10.692 58.665,29.784 58.665,29.784 Z"
           inkscape:connector-curvature="0" />
        <path
           style="fill:#dd7273"
           id="path352"
           d="m 151.039,90.551 c 0,0 14.376,16.478 -2.587,33.052 -12.332,12.05 -27.318,2.94 -27.913,-3.552 -0.596,-6.492 10.164,10.726 25.5,-0.5 12.892,-9.438 5,-29 5,-29 z"
           inkscape:connector-curvature="0" />
        <path
           style="fill:#dd7273"
           id="path354"
           d="m 108.957,123.16 c 0,0 10.455,21.433 -14.917,30.391 -18.445,6.513 -30.489,-13.392 -27.5,-20 2.988,-6.608 4.257,18.006 25.135,13.584 17.55,-3.717 17.282,-23.975 17.282,-23.975 z"
           inkscape:connector-curvature="0" />
        <path
           style="fill:#dd7273"
           id="path356"
           d="m 124.321,22.104 c 0,0 20.848,-4.037 26.277,24.125 3.949,20.473 -13.941,25.862 -20.059,21.322 -6.118,-4.54 16.673,0.196 15.115,-22.326 -1.31,-18.934 -21.333,-23.121 -21.333,-23.121 z"
           inkscape:connector-curvature="0" />
      </g>
    </g>
    <g
       inkscape:label="Layer 1"
       id="layer1-3"
       transform="translate(417.4368,119.40699)">
      <g
         id="g306"
         transform="matrix(0.2286864,0,0,0.2286864,-47.531731,-1.6432678)">
        <path
           id="path308"
           d="m 250.737,54.687 c 0,0 -34.186,-15.177 -40.274,7.654 -3.526,13.223 3.413,26.481 8.625,30.948 5.212,4.466 16.762,10.528 16.762,10.528 0,0 -12.772,15.139 -4.585,28.538 8.187,13.399 36.021,13.698 41.805,4.96 6.801,-10.275 10.42,-20.099 10.42,-20.099 0,0 13.146,20.62 32.503,16.153 19.357,-4.466 25.561,-17.643 25.561,-27.319 0,-9.676 -17.119,-21.588 -17.119,-21.588 0,0 23.077,-7.442 23.077,-23.82 0,-16.378 -8.688,-25.699 -23.824,-25.312 -13.902,0.355 -26.052,11.91 -26.052,15.632 0,3.723 1.65,-22.274 -8.024,-29.718 -9.675,-7.443 -23.846,-12.177 -35.153,-1.546 -8.472,7.964 -11.167,26.055 -3.722,34.989 z"
           inkscape:connector-curvature="0"
           style="fill:#93b2da" />
        <path
           id="path310"
           d="m 259.387,63.419 c 0,0 -23.88,-10.602 -28.133,5.346 -2.464,9.237 2.384,18.499 6.024,21.619 3.641,3.119 11.709,7.354 11.709,7.354 0,0 -8.922,10.575 -3.203,19.936 5.719,9.36 25.163,9.569 29.203,3.465 4.75,-7.178 7.278,-14.04 7.278,-14.04 0,0 9.183,14.404 22.705,11.284 13.521,-3.12 17.855,-12.324 17.855,-19.083 0,-6.76 -11.959,-15.081 -11.959,-15.081 0,0 16.12,-5.198 16.12,-16.639 0,-11.441 -6.068,-17.952 -16.642,-17.682 -9.712,0.249 -18.199,8.32 -18.199,10.92 0,2.601 1.154,-15.56 -5.605,-20.76 -6.758,-5.199 -16.657,-8.505 -24.556,-1.08 -5.916,5.564 -7.798,18.201 -2.597,24.441 z"
           inkscape:connector-curvature="0"
           style="fill:#c9e3f5" />
        <circle
           id="circle312"
           r="4.8200002"
           cy="74.010002"
           cx="240.397"
           style="fill:#ffffff" />
        <circle
           id="circle314"
           r="4.8200002"
           cy="45.598"
           cx="272.86801"
           style="fill:#ffffff" />
        <circle
           id="circle316"
           r="4.8200002"
           cy="61.833"
           cx="317.00699"
           style="fill:#ffffff" />
        <circle
           id="circle318"
           r="4.8200002"
           cy="106.988"
           cx="306.85999"
           style="fill:#ffffff" />
        <circle
           id="circle320"
           r="4.8200002"
           cy="115.613"
           cx="257.647"
           style="fill:#ffffff" />
        <circle
           id="circle322"
           r="17.878"
           cy="80.098"
           cx="279.46301"
           style="fill:#ffcf09" />
        <circle
           id="circle324"
           r="14.206"
           cy="80.098"
           cx="279.802"
           style="fill:#ffe36b" />
      </g>
    </g>
    <g
       id="layer1-8"
       transform="translate(417.6158,216.43868)">
      <g
         id="g368"
         transform="matrix(0.2449524,0,0,0.2449524,-99.614805,-3.1787446)">
        <path
           style="fill:#d19ac1;stroke:#ffffff"
           id="path370"
           d="m 472.868,81.849 c 0,0 17.592,-31.889 21.99,-37.386 4.4,-5.499 -1.1,-23.092 -21.99,-27.49 -20.893,-4.399 -34.088,9.896 -27.49,27.49 6.598,17.593 14.295,29.688 27.49,37.386 z"
           inkscape:connector-curvature="0" />
        <path
           style="fill:#d19ac1;stroke:#ffffff"
           id="path372"
           d="m 476.583,78.216 c 0,0 -27.584,-24.964 -32.021,-30.626 -4.436,-5.663 -23.215,-4.322 -32.49,15.424 -9.27,19.746 1.855,36.216 20.896,33.779 19.039,-2.438 32.871,-7.258 43.615,-18.577 z"
           inkscape:connector-curvature="0" />
        <path
           style="fill:#d19ac1;stroke:#ffffff"
           id="path374"
           d="m 473.032,80.319 c 0,0 36.99,4.26 43.9,6.282 6.91,2.031 21.414,-10 17.465,-31.47 C 530.446,33.66 511.8,26.731 497.72,39.8 483.64,52.874 475.187,64.851 473.032,80.319 Z"
           inkscape:connector-curvature="0" />
        <path
           style="fill:#d19ac1;stroke:#ffffff"
           id="path376"
           d="m 471.388,79.405 c 0,0 2.545,36.477 1.838,43.51 -0.717,7.038 13.506,18.875 33.523,11.198 20.016,-7.681 23.35,-26.928 8.197,-38.169 -15.154,-11.237 -28.24,-17.243 -43.558,-16.539 z"
           inkscape:connector-curvature="0" />
        <path
           style="fill:#d19ac1;stroke:#ffffff"
           id="path378"
           d="m 469.206,79.92 c 0,0 -30.213,17.012 -36.527,19.266 -6.318,2.249 -10.676,19.247 4.035,33.273 14.721,14.026 32.564,9.055 36.033,-8.497 3.467,-17.55 3.293,-31.202 -3.541,-44.042 z"
           inkscape:connector-curvature="0" />
        <path
           style="fill:none;stroke:#e0accc"
           id="path380"
           d="m 458.081,78.558 c 0,0 -20.656,-13.197 -32.707,-10.328"
           inkscape:connector-curvature="0" />
        <path
           style="fill:none;stroke:#e0accc"
           id="path382"
           d="m 470.13,67.655 c 0,0 -3.441,-26.968 0.574,-33.854"
           inkscape:connector-curvature="0" />
        <path
           style="fill:none;stroke:#e0accc"
           id="path384"
           d="m 479.312,73.967 c 0,0 27.541,-17.788 37.869,-16.066"
           inkscape:connector-curvature="0" />
        <path
           style="fill:none;stroke:#e0accc"
           id="path386"
           d="m 484.476,88.886 c 0,0 17.787,16.066 17.787,24.673"
           inkscape:connector-curvature="0" />
        <path
           style="fill:none;stroke:#e0accc"
           id="path388"
           d="m 462.671,94.05 c 0,0 -9.754,18.935 -14.918,22.952"
           inkscape:connector-curvature="0" />
        <ellipse
           style="fill:#ffe36b;stroke:#ffffff"
           id="ellipse390"
           ry="16.752001"
           rx="18.847"
           cy="80.801003"
           cx="471.54501" />
      </g>
    </g>
    <g
       id="layer1-6"
       transform="translate(357.511,146.73188)">
      <g
         id="g522"
         transform="matrix(0.23647015,0,0,0.23647015,-141.25358,-2.5725084)">
        <circle
           style="fill:#f6a82b"
           id="circle524"
           r="30.030001"
           cy="74.956001"
           cx="666.06299" />
        <g
           id="g526">
          <circle
             style="fill:#f6a82b;stroke:#ffffff"
             id="circle528"
             r="30.030001"
             cy="77.963997"
             cx="700.25598" />
          <circle
             style="fill:#d3862a"
             id="circle530"
             r="23.030001"
             cy="78.945999"
             cx="693.25403" />
        </g>
        <g
           id="g532">
          <circle
             style="fill:#e2af64;stroke:#ffffff"
             id="circle534"
             r="30.030001"
             cy="41.741001"
             cx="672.84198" />
          <circle
             style="fill:#d3862a"
             id="circle536"
             r="23.030001"
             cy="49.129002"
             cx="669.22998" />
        </g>
        <g
           id="g538">
          <circle
             style="fill:#f6a82b;stroke:#ffffff"
             id="circle540"
             r="30.030001"
             cy="102.555"
             cx="630.35797" />
          <circle
             style="fill:#d3862a"
             id="circle542"
             r="23.030001"
             cy="96.081001"
             cx="635.255" />
        </g>
        <g
           id="g544">
          <circle
             style="fill:#e89112;stroke:#ffffff"
             id="circle546"
             r="30.030001"
             cy="56.165001"
             cx="633.44397" />
          <circle
             style="fill:#d3862a"
             id="circle548"
             r="23.030001"
             cy="63.573002"
             cx="643.974" />
        </g>
        <g
           id="g550">
          <circle
             style="fill:#e89112;stroke:#ffffff"
             id="circle552"
             r="30.031"
             cy="115.011"
             cx="671.67999" />
          <circle
             style="fill:#d3862a"
             id="circle554"
             r="23.030001"
             cy="108.486"
             cx="669.98297" />
        </g>
        <circle
           style="fill:#f8e823"
           id="circle556"
           r="24.309999"
           cy="79.016998"
           cx="661.92603" />
        <circle
           style="fill:#fff5b2"
           id="circle558"
           r="19.766001"
           cy="79.016998"
           cx="662.92603" />
      </g>
    </g>
    <g
       id="layer1-9"
       transform="translate(389.90977,296.5125)">
      <g
         id="g358"
         transform="matrix(0.21766521,0,0,0.21766521,0.40326453,-37.02883)">
        <path
           style="fill:#19265e"
           id="path360"
           d="m 86.249,234.163 c -1.816,-2.918 2.848,-9.666 8.21,-13.041 5.363,-3.372 19.237,-13.306 15.737,-26.108 -3.502,-12.804 -15.173,-17.072 -21.986,-15.578 -9.505,2.084 -17.58,9.652 -17.585,20.53 -0.006,10.879 5.5,18.112 3.724,21.349 -1.776,3.237 -7.192,7.986 -9.868,-1.204 -2.677,-9.191 2.5,-25.653 -6.496,-31.644 -8.996,-5.991 -21.047,-7.693 -27.711,4.443 -6.661,12.139 -3.132,24.251 4.176,27.563 7.31,3.31 24.279,9.336 19.731,14.875 -3.891,4.737 -8.517,5.466 -10.473,0.779 -3.127,-7.495 -15.971,-13.019 -26.952,-10.274 -10.982,2.744 -18.587,18.33 -16.37,25.161 2.216,6.834 11.771,22.854 28.831,16.073 17.062,-6.781 12.452,-19.487 21.18,-13.645 8.727,5.842 2.989,11.818 -0.771,12.914 -3.759,1.094 -23.055,8.754 -20.293,22.904 2.761,14.152 10.487,17.338 17.012,19.517 6.529,2.181 24.13,2.717 27.368,-13.408 3.234,-16.122 -12.356,-26.083 -3.799,-30.163 8.555,-4.078 11.094,1.526 8.697,6.531 -2.394,5.002 -2.094,21.98 2.203,29.448 5.909,10.274 26.979,13.521 36.468,-0.57 9.489,-14.093 2.162,-27.174 -8.627,-33.096 -10.788,-5.922 -26.008,-7.607 -20.07,-15.228 5.937,-7.621 16.982,5.735 21.565,8.253 8.876,4.871 22.994,3.923 30.084,-12.192 7.09,-16.114 -2.399,-30.799 -14.625,-31.544 -12.227,-0.745 -24.525,7.597 -27.539,14.366 -3.016,6.77 -8.841,7.785 -11.821,2.989 z"
           inkscape:connector-curvature="0" />
        <path
           style="fill:#37529c"
           id="path362"
           d="m 79.142,229.987 c -2.796,-1.572 -2.01,-9.186 0.861,-14.354 2.872,-5.167 9.762,-19.521 1.149,-28.421 -8.613,-8.9 -20.075,-7.152 -24.978,-2.872 -6.84,5.973 -10.047,15.789 -5.167,24.688 4.88,8.9 12.632,12.346 12.632,15.791 0,3.444 -2.298,9.761 -8.613,3.444 -6.315,-6.317 -9.473,-22.104 -19.521,-22.966 -10.049,-0.861 -20.67,3.157 -20.67,16.076 0,12.919 8.324,21.243 15.789,20.671 7.465,-0.575 24.05,-3.264 22.817,3.308 -1.054,5.622 -4.512,8.296 -8.215,5.34 -5.924,-4.728 -18.908,-3.479 -26.66,3.697 -7.751,7.175 -6.973,23.337 -2.092,27.93 4.881,4.596 19.889,13.409 30.8,0.203 10.91,-13.207 1.435,-21.53 11.196,-20.67 9.762,0.861 7.752,8.324 5.168,10.908 -2.584,2.584 -14.928,17.513 -6.314,27.848 8.611,10.336 16.361,9.473 22.678,8.325 6.317,-1.148 20.956,-8.612 16.364,-23.254 -4.593,-14.641 -21.817,-15.788 -16.65,-22.966 5.167,-7.178 9.761,-3.732 10.048,1.436 0.288,5.166 8.156,18.921 15.021,23.1 9.447,5.75 28.139,-1.053 29.574,-16.841 1.435,-15.788 -10.432,-23.197 -21.916,-23.197 -11.484,0 -24.688,5.455 -23.254,-3.444 1.436,-8.9 16.466,-2.932 21.347,-2.932 9.447,0 20.569,-7.115 19.132,-23.479 -1.436,-16.364 -15.789,-24.115 -26.125,-19.235 -10.335,4.88 -16.649,17.225 -16.075,24.115 0.574,6.889 -3.734,10.335 -8.326,7.751 z"
           inkscape:connector-curvature="0" />
        <circle
           style="fill:#ffffff"
           id="circle364"
           r="16.117001"
           cy="245.76401"
           cx="71.515999" />
        <circle
           style="fill:#f4d9c4"
           id="circle366"
           r="13.144"
           cy="246.175"
           cx="71.791" />
      </g>
    </g>
    <g
       id="layer1-82"
       transform="translate(320.72432,345.43284)">
      <g
         id="g326"
         transform="matrix(0.19139723,0,0,0.19139723,-35.968935,-30.763077)">
        <polygon
           style="fill:#fbc13d"
           id="polygon328"
           points="342.959,289.28 304.404,271.044 329.541,305.5 296.73,278.25 312.508,317.875 287.504,283.321 292.934,325.625 277.31,285.94 272.047,328.264 266.784,285.94 251.161,325.625 256.588,283.321 231.586,317.875 247.364,278.25 214.554,305.5 239.69,271.044 201.134,289.28 234.05,262.157 192.171,270.231 230.797,252.146 188.226,249.55 230.136,241.641 189.548,228.54 232.109,231.299 196.054,208.516 236.59,221.776 207.333,190.741 243.3,213.664 222.681,176.329 251.816,207.478 241.129,166.187 261.603,203.602 261.521,160.952 272.047,202.283 282.573,160.952 282.491,203.602 302.965,166.187 292.279,207.478 321.414,176.329 300.793,213.664 336.76,190.741 307.504,221.776 348.042,208.516 311.985,231.299 354.545,228.54 313.958,241.641 355.869,249.55 313.296,252.146 351.922,270.231 310.043,262.157 " />
        <polygon
           style="fill:#f8d02f"
           id="polygon330"
           points="345.643,258.434 307.362,256.772 340.186,276.542 303.52,265.416 330.396,292.725 297.65,272.829 316.889,305.965 290.121,278.553 300.516,315.432 281.404,282.221 282.301,320.526 272.049,283.606 263.392,320.934 262.643,282.625 244.974,316.624 253.778,279.333 228.208,307.868 246.01,273.938 214.146,295.221 239.827,266.783 203.672,279.471 235.617,258.314 197.442,261.613 233.647,249.063 195.85,242.767 234.037,239.616 198.994,224.118 236.767,230.56 206.679,206.834 241.662,222.47 218.419,192.005 248.415,215.849 233.479,180.563 256.602,211.117 250.912,173.225 265.708,208.567 269.62,170.45 275.164,208.366 288.43,172.417 284.373,210.52 306.163,179.003 292.756,214.897 321.7,189.789 299.786,221.221 334.065,204.1 305.025,229.095 342.484,221.036 308.138,238.026 346.424,239.536 308.934,247.449 " />
        <circle
           style="fill:#532d12;stroke:#ffffff"
           id="circle332"
           r="31.691"
           cy="246.57401"
           cx="272.048" />
        <circle
           style="fill:#664432"
           id="circle334"
           r="23.878"
           cy="246.57401"
           cx="272.047" />
        <circle
           id="circle336"
           r="18.108999"
           cy="247.328"
           cx="272.047" />
      </g>
    </g>
    <g
       id="layer1-33"
       transform="translate(411.32001,356.43361)">
      <g
         id="g284"
         transform="matrix(0.2174355,0,0,0.2174355,-86.520685,-36.880669)">
        <path
           style="fill:#ef8320"
           id="path286"
           d="m 464.99,229.18 c 0,0 -7.838,-17.733 -8.661,-31.758 -0.824,-14.024 6.188,-21.861 9.075,-23.098 2.887,-1.237 4.123,0.824 5.773,-0.825 1.65,-1.649 3.712,0.825 3.712,0.825 0,0 2.062,-1.236 4.537,0.825 2.475,2.061 9.897,14.436 7.837,24.334 -2.062,9.898 -8.249,28.872 -8.249,28.872 0,0 -4.124,3.3 -14.024,0.825 z"
           inkscape:connector-curvature="0" />
        <path
           style="fill:#f49f1f"
           id="path288"
           d="m 478.292,229.183 c 0,0 7.13,-18.03 16.54,-28.461 9.41,-10.431 19.913,-10.937 22.822,-9.75 2.908,1.188 2.307,3.515 4.64,3.532 2.333,0.021 2.018,3.224 2.018,3.224 0,0 2.329,0.602 2.599,3.811 0.268,3.209 -3.336,17.182 -11.833,22.663 -8.498,5.479 -26.354,14.393 -26.354,14.393 0,0 -5.246,-0.625 -10.432,-9.412 z"
           inkscape:connector-curvature="0" />
        <path
           style="fill:#ef8320"
           id="path290"
           d="m 489.17,238.961 c 0,0 17.659,-8.006 31.675,-8.963 14.015,-0.958 21.917,5.979 23.185,8.854 1.265,2.876 -0.786,4.132 0.879,5.766 1.664,1.636 -0.79,3.721 -0.79,3.721 0,0 1.257,2.05 -0.78,4.546 -2.039,2.492 -14.343,10.033 -24.261,8.066 -9.917,-1.97 -28.95,-7.974 -28.95,-7.974 0,0 -3.339,-4.096 -0.958,-14.016 z"
           inkscape:connector-curvature="0" />
        <path
           style="fill:#f49f1f"
           id="path292"
           d="m 490.211,250.849 c 0,0 17.863,7.543 28.074,17.188 10.213,9.647 10.479,20.161 9.225,23.04 -1.254,2.881 -3.568,2.228 -3.638,4.559 -0.073,2.333 -3.271,1.943 -3.271,1.943 0,0 -0.653,2.314 -3.869,2.51 -3.214,0.195 -17.101,-3.729 -22.385,-12.349 -5.281,-8.623 -13.783,-26.679 -13.783,-26.679 0,0 0.746,-5.23 9.647,-10.212 z"
           inkscape:connector-curvature="0" />
        <path
           style="fill:#ef8320"
           id="path294"
           d="m 480.75,260.219 c 0,0 7.434,17.907 7.941,31.946 0.506,14.039 -6.682,21.716 -9.594,22.888 -2.915,1.172 -4.105,-0.917 -5.79,0.694 -1.689,1.611 -3.695,-0.909 -3.695,-0.909 0,0 -2.089,1.189 -4.517,-0.927 -2.427,-2.116 -9.568,-14.656 -7.284,-24.506 2.288,-9.85 8.898,-28.68 8.898,-28.68 0,0 4.203,-3.204 14.041,-0.506 z"
           inkscape:connector-curvature="0" />
        <path
           style="fill:#f49f1f"
           id="path296"
           d="m 466.373,261.789 c 0,0 -6.582,18.239 -15.673,28.948 -9.091,10.71 -19.573,11.534 -22.516,10.438 -2.943,-1.102 -2.414,-3.445 -4.743,-3.393 -2.334,0.051 -2.117,-3.162 -2.117,-3.162 0,0 -2.346,-0.529 -2.711,-3.729 -0.366,-3.2 2.814,-17.276 11.141,-23.012 8.331,-5.73 25.908,-15.183 25.908,-15.183 0,0 5.264,0.468 10.711,9.093 z"
           inkscape:connector-curvature="0" />
        <path
           style="fill:#ef8320"
           id="path298"
           d="m 456.442,251.957 c 0,0 -17.549,8.244 -31.55,9.391 -14.001,1.147 -21.996,-5.682 -23.302,-8.538 -1.304,-2.858 0.729,-4.144 -0.957,-5.753 -1.686,-1.613 0.739,-3.732 0.739,-3.732 0,0 -1.285,-2.032 0.719,-4.554 2.004,-2.522 14.205,-10.229 24.148,-8.396 9.943,1.837 29.057,7.58 29.057,7.58 0,0 3.393,4.051 1.146,14.002 z"
           inkscape:connector-curvature="0" />
        <path
           style="fill:#f49f1f"
           id="path300"
           d="m 456.455,238.945 c 0,0 -18.193,-6.703 -28.844,-15.862 -10.648,-9.162 -11.404,-19.651 -10.287,-22.585 1.119,-2.936 3.462,-2.394 3.422,-4.722 -0.035,-2.334 3.177,-2.097 3.177,-2.097 0,0 0.544,-2.342 3.746,-2.685 3.202,-0.346 17.257,2.926 22.937,11.292 5.679,8.367 15.014,26.006 15.014,26.006 0,0 -0.503,5.26 -9.165,10.653 z"
           inkscape:connector-curvature="0" />
        <circle
           style="fill:#ffcf09;stroke:#ffffff"
           id="circle302"
           r="19.798"
           cy="244.854"
           cx="471.591" />
        <circle
           style="fill:#ffe36b"
           id="circle304"
           r="14.23"
           cy="244.854"
           cx="472.20901" />
      </g>
    </g>
    <g
       id="layer1-5"
       transform="translate(351.45327,224.6872)">
      <g
         id="g392"
         transform="matrix(0.19896591,0,0,0.19896591,-117.92069,-32.595766)">
        <path
           style="fill:#f7c426"
           id="path394"
           d="m 674.649,242.453 c 0,0 21.592,-10.127 39.439,-14.484 17.846,-4.36 28.892,-1.72 30.893,-0.097 2.002,1.627 -0.463,3.024 1.887,3.697 2.349,0.676 -0.524,2.745 -0.524,2.745 0,0 1.882,1.067 -0.405,3.307 -2.285,2.238 -17.07,10.632 -30.047,11.914 -12.978,1.282 -38.172,2.222 -38.172,2.222 0,0 -4.819,-1.911 -3.071,-9.304 z"
           inkscape:connector-curvature="0" />
        <path
           style="fill:#f7c426"
           id="path396"
           d="m 679.211,243.943 c 0,0 20.247,12.603 33.616,25.203 13.37,12.599 17.168,23.302 16.894,25.864 -0.276,2.564 -2.788,1.258 -2.075,3.596 0.712,2.338 -2.588,1.055 -2.588,1.055 0,0 0.129,2.158 -2.993,1.459 -3.123,-0.699 -18.212,-8.535 -26.35,-18.723 -8.138,-10.19 -22.639,-30.816 -22.639,-30.816 0,0 -1.019,-5.081 6.135,-7.638 z"
           inkscape:connector-curvature="0" />
        <path
           style="fill:#f7c426"
           id="path398"
           d="m 673.347,246.672 c 0,0 4.688,23.384 4.664,41.756 -0.021,18.371 -5.219,28.469 -7.273,30.023 -2.056,1.557 -2.825,-1.17 -4.04,0.953 -1.216,2.119 -2.541,-1.166 -2.541,-1.166 0,0 -1.483,1.572 -3.113,-1.18 -1.629,-2.754 -6.256,-19.113 -4.407,-32.023 1.85,-12.908 6.945,-37.601 6.945,-37.601 0,0 3.001,-4.223 9.765,-0.762 z"
           inkscape:connector-curvature="0" />
        <path
           style="fill:#f7c426"
           id="path400"
           d="m 674.933,242.622 c 0,0 -13.754,19.483 -27.107,32.102 -13.352,12.619 -24.258,15.789 -26.8,15.369 -2.543,-0.424 -1.093,-2.857 -3.47,-2.281 -2.374,0.576 -0.902,-2.645 -0.902,-2.645 0,0 -2.161,0.004 -1.283,-3.072 0.879,-3.076 9.574,-17.687 20.218,-25.222 10.644,-7.534 32.074,-20.816 32.074,-20.816 0,0 5.13,-0.725 7.27,6.565 z"
           inkscape:connector-curvature="0" />
        <path
           style="fill:#f7c426"
           id="path402"
           d="m 668.091,244.086 c 0,0 -23.604,3.411 -41.947,2.391 -18.343,-1.018 -28.143,-6.756 -29.585,-8.892 -1.442,-2.138 1.321,-2.759 -0.73,-4.086 -2.05,-1.329 1.3,-2.474 1.3,-2.474 0,0 -1.49,-1.567 1.348,-3.046 2.839,-1.477 19.426,-5.208 32.215,-2.662 12.789,2.547 37.169,8.976 37.169,8.976 0,0 4.052,3.228 0.23,9.793 z"
           inkscape:connector-curvature="0" />
        <path
           style="fill:#f7c426"
           id="path404"
           d="m 662.642,243.611 c 0,0 -14.394,-19.015 -22.365,-35.567 -7.974,-16.55 -7.688,-27.903 -6.514,-30.197 1.174,-2.295 3.053,-0.177 3.224,-2.615 0.173,-2.437 2.794,-0.057 2.794,-0.057 0,0 0.652,-2.062 3.318,-0.292 2.665,1.771 13.948,14.489 17.898,26.916 3.951,12.428 10.107,36.877 10.107,36.877 0,0 -0.867,5.11 -8.462,4.935 z"
           inkscape:connector-curvature="0" />
        <path
           style="fill:#f7c426"
           id="path406"
           d="m 671.103,241.256 c 0,0 4.314,-23.456 11.146,-40.511 6.83,-17.054 15.4,-24.506 17.885,-25.189 2.486,-0.683 2.19,2.135 4.105,0.615 1.914,-1.519 1.928,2.022 1.928,2.022 0,0 1.961,-0.91 2.454,2.251 0.493,3.161 -1.274,20.071 -7.776,31.375 -6.504,11.303 -20.389,32.348 -20.389,32.348 0,0 -4.353,2.81 -9.353,-2.911 z"
           inkscape:connector-curvature="0" />
        <path
           style="fill:#f8e823;stroke:#ffffff"
           id="path408"
           d="m 675.835,238.973 c 0,0 15.217,-18.362 29.506,-29.911 14.286,-11.549 25.403,-13.868 27.906,-13.252 2.503,0.619 0.869,2.933 3.283,2.541 2.411,-0.391 0.695,2.707 0.695,2.707 0,0 2.154,0.163 1.041,3.163 -1.113,2.999 -10.911,16.894 -22.105,23.584 -11.193,6.688 -33.586,18.275 -33.586,18.275 0,0 -5.171,0.328 -6.74,-7.107 z"
           inkscape:connector-curvature="0" />
        <path
           style="fill:#f8e823;stroke:#ffffff"
           id="path410"
           d="m 680.841,244.737 c 0,0 23.844,-0.462 41.92,2.821 18.076,3.281 27.091,10.189 28.258,12.487 1.165,2.3 -1.654,2.573 0.219,4.145 1.869,1.573 -1.598,2.295 -1.598,2.295 0,0 1.285,1.74 -1.715,2.854 -2.998,1.114 -19.921,2.763 -32.296,-1.348 -12.375,-4.111 -35.771,-13.509 -35.771,-13.509 0,0 -3.624,-3.704 0.983,-9.745 z"
           inkscape:connector-curvature="0" />
        <path
           style="fill:#f8e823;stroke:#ffffff"
           id="path412"
           d="m 677.628,246.741 c 0,0 12.225,20.476 18.337,37.803 6.114,17.322 4.587,28.578 3.169,30.729 -1.418,2.152 -3.055,-0.158 -3.49,2.246 -0.438,2.404 -2.783,-0.25 -2.783,-0.25 0,0 -0.875,1.979 -3.33,-0.072 -2.455,-2.053 -12.279,-15.93 -14.846,-28.713 -2.566,-12.785 -6.009,-37.764 -6.009,-37.764 0,0 1.421,-4.984 8.952,-3.979 z"
           inkscape:connector-curvature="0" />
        <path
           style="fill:#f8e823;stroke:#ffffff"
           id="path414"
           d="m 673.672,250.478 c 0,0 -7.084,22.772 -15.903,38.892 -8.816,16.115 -18.215,22.49 -20.764,22.873 -2.549,0.381 -1.92,-2.381 -4.002,-1.1 -2.082,1.277 -1.674,-2.238 -1.674,-2.238 0,0 -2.055,0.668 -2.167,-2.529 -0.111,-3.197 3.662,-19.775 11.468,-30.221 7.805,-10.447 24.104,-29.684 24.104,-29.684 0,0 4.658,-2.269 8.938,4.007 z"
           inkscape:connector-curvature="0" />
        <path
           style="fill:#f8e823;stroke:#ffffff"
           id="path416"
           d="m 670.225,247.109 c 0,0 -20.198,12.682 -37.382,19.181 -17.183,6.501 -28.468,5.225 -30.651,3.857 -2.185,-1.37 0.092,-3.059 -2.323,-3.44 -2.413,-0.385 0.186,-2.789 0.186,-2.789 0,0 -1.996,-0.829 0,-3.33 1.996,-2.501 15.648,-12.633 28.373,-15.485 12.725,-2.852 37.617,-6.854 37.617,-6.854 0,0 5.015,1.308 4.18,8.86 z"
           inkscape:connector-curvature="0" />
        <path
           style="fill:#f8e823;stroke:#ffffff"
           id="path418"
           d="m 665.278,242.801 c 0,0 -21.91,-9.418 -37.02,-19.868 -15.111,-10.447 -20.473,-20.46 -20.586,-23.033 -0.113,-2.576 2.566,-1.662 1.51,-3.867 -1.054,-2.203 2.401,-1.431 2.401,-1.431 0,0 -0.452,-2.114 2.74,-1.893 3.192,0.224 19.286,5.703 28.862,14.554 9.576,8.852 27.01,27.065 27.01,27.065 0,0 1.773,4.871 -4.917,8.473 z"
           inkscape:connector-curvature="0" />
        <path
           style="fill:#f8e823;stroke:#ffffff"
           id="path420"
           d="m 669.179,242.829 c 0,0 -5.845,-23.121 -6.736,-41.472 -0.894,-18.35 3.795,-28.693 5.77,-30.35 1.977,-1.656 2.881,1.028 3.988,-1.15 1.109,-2.178 2.596,1.035 2.596,1.035 0,0 1.404,-1.644 3.168,1.025 1.765,2.669 7.199,18.778 5.996,31.763 -1.205,12.984 -5.064,37.9 -5.064,37.9 0,0 -2.791,4.369 -9.718,1.249 z"
           inkscape:connector-curvature="0" />
        <circle
           style="fill:#ffcf09;stroke:#ffffff"
           id="circle422"
           r="18.603001"
           cy="245.177"
           cx="674.06799" />
        <circle
           style="fill:#ffe36b"
           id="circle424"
           r="13.371"
           cy="245.177"
           cx="674.64899" />
      </g>
    </g>
    <g
       id="layer1-2"
       transform="translate(445.18182,268.95483)">
      <g
         id="g426"
         transform="matrix(0.20899262,0,0,0.20899262,-2.680871,-75.379965)">
        <circle
           style="fill:#f6a82b"
           id="circle428"
           r="47.383999"
           cy="437.97101"
           cx="88.530998" />
        <g
           id="g430">
          <path
             style="fill:#c85e9b;stroke:#ffffff"
             id="path432"
             d="m 98.74,413.468 18.583,-45.021 -10.755,9.341 0.059,-14.119 -7.188,10.934 -5.338,-14.558 -3.963,14.021 -8.016,-9.669 4.829,47.046 c 2.34,-0.24 4.76,-0.117 7.184,0.431 1.624,0.369 3.16,0.911 4.605,1.594 z"
             inkscape:connector-curvature="0" />
          <path
             style="fill:#ffdb03"
             id="path434"
             d="m 98.74,413.468 c -1.445,-0.684 -2.981,-1.226 -4.606,-1.596 -2.424,-0.548 -4.844,-0.671 -7.184,-0.431 l 2.514,24.499 9.276,-22.472 z"
             inkscape:connector-curvature="0" />
        </g>
        <g
           id="g436">
          <path
             style="fill:#c85e9b;stroke:#ffffff"
             id="path438"
             d="m 110.539,421.188 37.437,-31.154 -13.869,3.245 6.639,-12.46 -11.46,6.317 2.069,-15.368 -10.044,10.555 -2.581,-12.292 -17.674,43.866 c 2.184,0.879 4.265,2.116 6.152,3.731 1.265,1.083 2.371,2.282 3.331,3.56 z"
             inkscape:connector-curvature="0" />
          <path
             style="fill:#ffdb03"
             id="path440"
             d="m 110.539,421.188 c -0.96,-1.278 -2.066,-2.477 -3.331,-3.56 -1.888,-1.615 -3.969,-2.853 -6.152,-3.731 l -9.205,22.843 18.688,-15.552 z"
             inkscape:connector-curvature="0" />
        </g>
        <g
           id="g442">
          <path
             style="fill:#c85e9b;stroke:#ffffff"
             id="path444"
             d="m 116.36,435.984 48.383,-5.577 -13.383,-4.877 12.377,-6.794 -13.048,-0.987 10.145,-11.727 -14.184,3.333 4.569,-11.698 -38.805,27.032 c 1.346,1.932 2.41,4.107 3.104,6.493 0.467,1.599 0.739,3.206 0.842,4.802 z"
             inkscape:connector-curvature="0" />
          <path
             style="fill:#ffdb03"
             id="path446"
             d="m 116.36,435.984 c -0.104,-1.596 -0.375,-3.203 -0.841,-4.802 -0.694,-2.386 -1.759,-4.562 -3.104,-6.493 l -20.207,14.079 24.152,-2.784 z"
             inkscape:connector-curvature="0" />
        </g>
        <g
           id="g448">
          <path
             style="fill:#c85e9b;stroke:#ffffff"
             id="path450"
             d="m 64.939,432.094 -47.258,-11.777 10.816,9.268 -13.975,2.014 11.871,5.507 -13.618,7.416 14.45,1.861 -8.388,9.349 45.828,-11.678 c -0.581,-2.28 -0.814,-4.692 -0.626,-7.17 0.125,-1.661 0.436,-3.261 0.9,-4.79 z"
             inkscape:connector-curvature="0" />
          <path
             style="fill:#ffdb03"
             id="path452"
             d="m 64.939,432.094 c -0.464,1.528 -0.775,3.129 -0.9,4.789 -0.188,2.478 0.045,4.89 0.626,7.17 l 23.865,-6.082 -23.591,-5.877 z"
             inkscape:connector-curvature="0" />
        </g>
        <g
           id="g454">
          <path
             style="fill:#c85e9b;stroke:#ffffff"
             id="path456"
             d="m 72.377,419.923 -34.571,-34.303 4.549,13.498 -13.037,-5.423 7.38,10.806 -15.495,-0.598 11.463,8.995 -11.991,3.739 45.348,13.422 c 0.666,-2.26 1.702,-4.448 3.13,-6.48 0.959,-1.363 2.043,-2.579 3.224,-3.656 z"
             inkscape:connector-curvature="0" />
          <path
             style="fill:#ffdb03"
             id="path458"
             d="m 72.377,419.923 c -1.182,1.077 -2.266,2.293 -3.225,3.655 -1.429,2.032 -2.464,4.221 -3.13,6.48 l 23.615,6.987 -17.26,-17.122 z"
             inkscape:connector-curvature="0" />
        </g>
        <g
           id="g460">
          <path
             style="fill:#c85e9b;stroke:#ffffff"
             id="path462"
             d="m 85.076,413.307 -8.66,-47.929 -4.01,13.668 -7.573,-11.918 -0.149,13.085 -12.352,-9.373 4.234,13.941 -11.968,-3.812 29.458,36.997 c 1.842,-1.467 3.945,-2.668 6.281,-3.514 1.567,-0.568 3.154,-0.939 4.739,-1.145 z"
             inkscape:connector-curvature="0" />
          <path
             style="fill:#ffdb03"
             id="path464"
             d="m 85.076,413.307 c -1.585,0.206 -3.172,0.577 -4.739,1.146 -2.336,0.846 -4.439,2.047 -6.281,3.514 l 15.343,19.265 -4.323,-23.925 z"
             inkscape:connector-curvature="0" />
        </g>
        <g
           id="g466">
          <path
             style="fill:#c85e9b;stroke:#ffffff"
             id="path468"
             d="m 113.978,450.993 43.035,22.804 -8.268,-11.599 14.048,1.411 -10.194,-8.204 15.001,-3.92 -13.578,-5.285 10.393,-7.056 -47.291,0.306 c 0.015,2.354 -0.339,4.749 -1.118,7.108 -0.524,1.582 -1.211,3.061 -2.028,4.435 z"
             inkscape:connector-curvature="0" />
          <path
             style="fill:#ffdb03"
             id="path470"
             d="m 113.978,450.993 c 0.817,-1.374 1.505,-2.853 2.027,-4.435 0.779,-2.359 1.133,-4.755 1.118,-7.108 l -24.628,0.157 21.483,11.386 z"
             inkscape:connector-curvature="0" />
        </g>
        <g
           id="g472">
          <path
             style="fill:#c85e9b;stroke:#ffffff"
             id="path474"
             d="m 104.587,461.2 26.027,41.168 -1.418,-14.173 11.494,8.199 -4.775,-12.183 14.967,4.049 -9.157,-11.331 12.521,-0.962 -41.197,-23.224 c -1.156,2.05 -2.653,3.954 -4.5,5.614 -1.237,1.115 -2.569,2.059 -3.962,2.843 z"
             inkscape:connector-curvature="0" />
          <path
             style="fill:#ffdb03"
             id="path476"
             d="m 104.587,461.2 c 1.394,-0.784 2.725,-1.728 3.962,-2.842 1.847,-1.66 3.344,-3.564 4.5,-5.614 L 91.595,440.649 104.587,461.2 Z"
             inkscape:connector-curvature="0" />
        </g>
        <g
           id="g478">
          <path
             style="fill:#c85e9b;stroke:#ffffff"
             id="path480"
             d="m 88.842,465.213 -0.854,48.696 6.599,-12.622 5.103,13.165 2.699,-12.804 10.286,11.603 -1.433,-14.501 10.993,6.073 -21.678,-42.031 c -2.091,1.08 -4.39,1.849 -6.846,2.223 -1.645,0.25 -3.273,0.306 -4.869,0.198 z"
             inkscape:connector-curvature="0" />
          <path
             style="fill:#ffdb03"
             id="path482"
             d="m 88.842,465.213 c 1.597,0.107 3.225,0.052 4.87,-0.198 2.456,-0.374 4.755,-1.143 6.846,-2.223 l -11.289,-21.888 -0.427,24.309 z"
             inkscape:connector-curvature="0" />
        </g>
        <g
           id="g484">
          <path
             style="fill:#c85e9b;stroke:#ffffff"
             id="path486"
             d="m 74.255,459.449 -27.621,40.114 12.476,-6.873 -3.022,13.791 9.324,-9.179 2.162,15.353 6.819,-12.875 5.807,11.136 5.158,-47.01 c -2.34,-0.258 -4.678,-0.886 -6.933,-1.931 -1.511,-0.701 -2.9,-1.555 -4.17,-2.526 z"
             inkscape:connector-curvature="0" />
          <path
             style="fill:#ffdb03"
             id="path488"
             d="m 74.255,459.449 c 1.27,0.972 2.659,1.825 4.169,2.526 2.255,1.045 4.593,1.673 6.933,1.931 l 2.687,-24.481 -13.789,20.024 z"
             inkscape:connector-curvature="0" />
        </g>
        <g
           id="g490">
          <path
             style="fill:#c85e9b;stroke:#ffffff"
             id="path492"
             d="m 64.633,446.966 -45.483,17.418 14.175,1.399 -10.3,9.656 12.883,-2.285 -6.914,13.879 12.913,-6.752 -1.522,12.467 30.875,-35.821 c -1.782,-1.538 -3.354,-3.38 -4.62,-5.519 -0.848,-1.433 -1.511,-2.923 -2.007,-4.442 z"
             inkscape:connector-curvature="0" />
          <path
             style="fill:#ffdb03"
             id="path494"
             d="m 64.633,446.966 c 0.496,1.519 1.158,3.009 2.006,4.442 1.266,2.139 2.837,3.98 4.62,5.519 l 16.078,-18.656 -22.704,8.695 z"
             inkscape:connector-curvature="0" />
        </g>
        <circle
           style="fill:#772a5a;stroke:#ffffff"
           id="circle496"
           r="18.378"
           cy="438.44699"
           cx="89.976997" />
        <circle
           style="fill:#4c213e"
           id="circle498"
           r="12.252"
           cy="438.44699"
           cx="89.976997" />
        <polygon
           style="fill:#d689b5"
           id="polygon500"
           points="94.489,393.494 106.642,381.363 92.57,408.261 88.093,378.199 " />
        <polygon
           style="fill:#d689b5"
           id="polygon502"
           points="70.752,398.221 74.72,381.515 76.876,411.793 57.275,388.567 " />
        <polygon
           style="fill:#d689b5"
           id="polygon504"
           points="53.188,415.283 45.663,399.85 66.531,421.893 36.646,416.365 " />
        <polygon
           style="fill:#d689b5"
           id="polygon506"
           points="45.049,438.926 30.958,429.115 59.922,438.2 31.129,447.93 " />
        <polygon
           style="fill:#d689b5"
           id="polygon508"
           points="51.482,462.447 34.356,461.22 63.892,454.215 44.125,477.302 " />
        <polygon
           style="fill:#d689b5"
           id="polygon510"
           points="74.668,479.826 60.761,489.896 78.882,465.544 78.582,495.934 " />
        <polygon
           style="fill:#d689b5"
           id="polygon512"
           points="99.317,482.186 92.365,497.886 95.774,467.724 110.805,494.139 " />
        <polygon
           style="fill:#d689b5"
           id="polygon514"
           points="124.106,470.401 126.596,487.39 113.398,460.054 140.197,474.389 " />
        <polygon
           style="fill:#d689b5"
           id="polygon516"
           points="135.198,450.054 146.174,463.258 120.668,446.799 151.011,445.074 " />
        <polygon
           style="fill:#d689b5"
           id="polygon518"
           points="131.83,423.507 148.43,427.902 118.104,429.284 141.825,410.284 " />
        <polygon
           style="fill:#d689b5"
           id="polygon520"
           points="116.166,402.276 132.736,397.775 107.171,414.143 118.203,385.825 " />
      </g>
    </g>
    <g
       id="layer1-4"
       transform="translate(423.44896,162.32043)">
      <g
         id="g560"
         transform="matrix(0.1835878,0,0,0.1835878,-36.600443,-64.147381)">
        <g
           id="g562">
          <path
             style="fill:#f8e823"
             id="path564"
             d="m 280.483,434.059 c 0,0 42,-8 58,-41 16,-33 -8,-28 -19,-20 -11,8 -32,30 -39,61 z"
             inkscape:connector-curvature="0" />
          <path
             style="fill:#f8e823"
             id="path566"
             d="m 282.111,434.977 c 0,0 33.78,26.21 69.113,16.382 35.333,-9.827 15.708,-24.521 2.432,-27.479 -13.276,-2.959 -43.665,-4.157 -71.545,11.097 z"
             inkscape:connector-curvature="0" />
          <path
             style="fill:#f8e823"
             id="path568"
             d="m 280.297,431.467 c 0,0 -1.23,42.738 27.551,65.467 28.782,22.729 29.066,-1.784 23.622,-14.25 -5.444,-12.463 -22.407,-37.706 -51.173,-51.217 z"
             inkscape:connector-curvature="0" />
          <path
             style="fill:#f8e823"
             id="path570"
             d="m 280.716,433.753 c 0,0 -32.288,28.027 -29.533,64.597 2.755,36.571 20.989,20.186 26.479,7.739 5.488,-12.443 12.584,-42.016 3.054,-72.336 z"
             inkscape:connector-curvature="0" />
          <path
             style="fill:#f8e823"
             id="path572"
             d="m 285.156,432.663 c 0,0 -41.895,-8.539 -69.221,15.918 -27.329,24.458 -3.228,28.94 9.987,25.715 13.213,-3.226 40.991,-15.609 59.234,-41.633 z"
             inkscape:connector-curvature="0" />
          <path
             style="fill:#f8e823"
             id="path574"
             d="m 285.581,442.015 c 0,0 -15.134,-39.988 -50.399,-50.048 -35.269,-10.061 -26.198,12.715 -16.418,22.169 9.778,9.453 35.072,26.337 66.817,27.879 z"
             inkscape:connector-curvature="0" />
          <path
             style="fill:#f8e823"
             id="path576"
             d="m 279.876,442.428 c 0,0 21.316,-37.064 6.725,-70.709 -14.591,-33.647 -26.445,-12.189 -27.552,1.369 -1.106,13.555 1.885,43.821 20.827,69.34 z"
             inkscape:connector-curvature="0" />
        </g>
        <g
           id="g578">
          <path
             style="fill:#f7b726"
             id="path580"
             d="m 281.876,453.428 c 0,0 21.316,-37.064 6.725,-70.709 -14.591,-33.647 -26.445,-12.189 -27.552,1.369 -1.106,13.555 1.885,43.821 20.827,69.34 z"
             inkscape:connector-curvature="0" />
          <path
             style="fill:#f7b726"
             id="path582"
             d="m 273.334,439.933 c 0,0 42.255,-6.53 59.396,-38.951 17.142,-32.423 -7.017,-28.262 -18.292,-20.65 -11.271,7.61 -33.025,28.864 -41.104,59.601 z"
             inkscape:connector-curvature="0" />
          <path
             style="fill:#f7b726"
             id="path584"
             d="m 273.083,438.373 c 0,0 34.561,25.173 69.578,14.278 35.02,-10.895 14.958,-24.983 1.597,-27.54 -13.358,-2.555 -43.77,-2.83 -71.175,13.262 z"
             inkscape:connector-curvature="0" />
          <path
             style="fill:#f7b726"
             id="path586"
             d="m 274.301,426.16 c 0,0 -0.104,42.757 29.266,64.719 29.371,21.964 29.008,-2.548 23.237,-14.867 -5.769,-12.316 -23.391,-37.103 -52.503,-49.852 z"
             inkscape:connector-curvature="0" />
          <path
             style="fill:#f7b726"
             id="path588"
             d="m 282.069,424.605 c 0,0 -31.883,28.489 -28.602,65.015 3.281,36.528 21.276,19.882 26.587,7.357 5.309,-12.521 11.979,-42.193 2.015,-72.372 z"
             inkscape:connector-curvature="0" />
          <path
             style="fill:#f7b726"
             id="path590"
             d="m 294.635,429.767 c 0,0 -41.658,-9.634 -69.614,14.1 -27.959,23.736 -3.983,28.847 9.312,25.968 13.292,-2.879 41.383,-14.532 60.302,-40.068 z"
             inkscape:connector-curvature="0" />
          <path
             style="fill:#f7b726"
             id="path592"
             d="m 296.532,442.781 c 0,0 -18.358,-38.615 -54.329,-45.752 -35.975,-7.137 -25.068,14.817 -14.547,23.439 10.519,8.62 37.113,23.375 68.876,22.313 z"
             inkscape:connector-curvature="0" />
        </g>
        <g
           id="g594">
          <path
             style="fill:#f08811"
             id="path596"
             d="m 274.805,445.602 c 0,0 31.648,-19.058 34.738,-50.592 3.091,-31.538 -14.864,-20.301 -21.387,-10.522 -6.521,9.774 -16.956,33.891 -13.351,61.114 z"
             inkscape:connector-curvature="0" />
          <path
             style="fill:#f08811"
             id="path598"
             d="m 274.013,431.826 c 0,0 34.658,12.79 61.205,-4.512 26.548,-17.301 6.555,-24.291 -5.156,-23.271 -11.706,1.022 -37.054,7.953 -56.049,27.783 z"
             inkscape:connector-curvature="0" />
          <path
             style="fill:#f08811"
             id="path600"
             d="m 274.477,430.542 c 0,0 15.549,33.511 46.57,39.97 31.023,6.458 21.779,-12.599 12.758,-20.135 -9.018,-7.532 -31.876,-20.497 -59.328,-19.835 z"
             inkscape:connector-curvature="0" />
          <path
             style="fill:#f08811"
             id="path602"
             d="m 280.521,421.827 c 0,0 -18.013,32.255 -5.038,61.163 12.974,28.911 22.98,10.243 23.789,-1.484 0.807,-11.722 -2.107,-37.839 -18.751,-59.679 z"
             inkscape:connector-curvature="0" />
          <path
             style="fill:#f08811"
             id="path604"
             d="m 287.041,423.91 c 0,0 -36.034,8.147 -48.875,37.115 -12.843,28.971 7.732,23.943 16.997,16.71 9.263,-7.233 26.746,-26.849 31.878,-53.825 z"
             inkscape:connector-curvature="0" />
          <path
             style="fill:#f08811"
             id="path606"
             d="m 294.368,433.081 c 0,0 -27.428,-24.75 -58.5,-18.548 -31.076,6.203 -15.108,20.119 -3.858,23.521 11.248,3.401 37.356,6.381 62.358,-4.973 z"
             inkscape:connector-curvature="0" />
          <path
             style="fill:#f08811"
             id="path608"
             d="m 290.342,443.707 c 0,0 2.329,-36.87 -21.851,-57.349 -24.182,-20.479 -25.151,0.679 -20.819,11.604 4.331,10.925 18.231,33.224 42.67,45.745 z"
             inkscape:connector-curvature="0" />
        </g>
        <g
           id="g610">
          <path
             style="fill:#ce171c"
             id="path612"
             d="m 278.269,440.86 c 0,0 22.585,-7.911 28.703,-27.503 6.12,-19.594 -6.749,-14.835 -12.175,-9.494 -5.425,5.338 -15.224,19.258 -16.528,36.997 z"
             inkscape:connector-curvature="0" />
          <path
             style="fill:#ce171c"
             id="path614"
             d="m 279.583,432.019 c 0,0 20.295,12.682 39.412,5.211 19.118,-7.471 7.36,-14.541 -0.201,-15.438 -7.558,-0.896 -24.548,0.156 -39.211,10.227 z"
             inkscape:connector-curvature="0" />
          <path
             style="fill:#ce171c"
             id="path616"
             d="m 280.047,431.265 c 0,0 5.441,23.304 24.263,31.491 18.823,8.188 15.474,-5.118 10.746,-11.086 -4.725,-5.966 -17.512,-17.204 -35.009,-20.405 z"
             inkscape:connector-curvature="0" />
          <path
             style="fill:#ce171c"
             id="path618"
             d="m 285.03,426.536 c 0,0 -15.678,18.08 -11.263,38.124 4.415,20.048 13.224,9.528 15.283,2.197 2.058,-7.327 3.655,-24.275 -4.02,-40.321 z"
             inkscape:connector-curvature="0" />
          <path
             style="fill:#ce171c"
             id="path620"
             d="m 288.89,428.716 c 0,0 -23.928,0.414 -35.893,17.092 -11.965,16.68 1.746,16.205 8.576,12.84 6.829,-3.365 20.504,-13.5 27.317,-29.932 z"
             inkscape:connector-curvature="0" />
          <path
             style="fill:#ce171c"
             id="path622"
             d="m 292.327,435.5 c 0,0 -14.13,-19.314 -34.654,-19.479 -20.526,-0.164 -12.235,10.767 -5.549,14.408 6.684,3.64 22.849,8.974 40.203,5.071 z"
             inkscape:connector-curvature="0" />
          <path
             style="fill:#ce171c"
             id="path624"
             d="m 288.373,441.707 c 0,0 6.34,-23.075 -6.294,-39.252 -12.635,-16.178 -16.04,-2.886 -14.734,4.613 1.306,7.5 7.18,23.474 21.028,34.639 z"
             inkscape:connector-curvature="0" />
        </g>
        <g
           id="g626">
          <path
             style="fill:#f7b726"
             id="path628"
             d="m 277.931,434.074 c 0,0 15.358,3.432 25.582,-5.381 10.225,-8.812 1.387,-10.627 -3.499,-9.531 -4.883,1.095 -15.19,5.462 -22.083,14.912 z"
             inkscape:connector-curvature="0" />
          <path
             style="fill:#f7b726"
             id="path630"
             d="m 281.737,429.595 c 0,0 6.924,14.131 20.191,16.604 13.271,2.472 9.163,-5.561 5.253,-8.689 -3.909,-3.127 -13.758,-8.444 -25.444,-7.915 z"
             inkscape:connector-curvature="0" />
          <path
             style="fill:#f7b726"
             id="path632"
             d="m 282.258,429.335 c 0,0 -5.06,14.9 2.604,26.012 7.664,11.112 10.417,2.52 9.852,-2.455 -0.566,-4.973 -3.799,-15.689 -12.456,-23.557 z"
             inkscape:connector-curvature="0" />
          <path
             style="fill:#f7b726"
             id="path634"
             d="m 286.684,428.426 c 0,0 -15.035,4.646 -19.535,17.37 -4.502,12.728 4.071,9.914 7.768,6.538 3.695,-3.376 10.476,-12.283 11.767,-23.908 z"
             inkscape:connector-curvature="0" />
          <path
             style="fill:#f7b726"
             id="path636"
             d="m 288.08,430.985 c 0,0 -13.501,-8.083 -25.977,-2.93 -12.475,5.154 -4.655,9.653 0.327,10.147 4.982,0.496 16.137,-0.411 25.65,-7.217 z"
             inkscape:connector-curvature="0" />
          <path
             style="fill:#f7b726"
             id="path638"
             d="m 287.642,435.965 c 0,0 -1.177,-15.691 -12.578,-22.917 -11.402,-7.224 -10.571,1.76 -8.104,6.117 2.467,4.355 9.638,12.951 20.682,16.8 z"
             inkscape:connector-curvature="0" />
          <path
             style="fill:#f7b726"
             id="path640"
             d="m 283.279,438.057 c 0,0 11.557,-10.68 10.125,-24.101 -1.433,-13.422 -7.952,-7.185 -9.829,-2.545 -1.877,4.643 -4.149,15.601 -0.296,26.646 z"
             inkscape:connector-curvature="0" />
        </g>
        <g
           id="g642">
          <path
             style="fill:#ce171c"
             id="path644"
             d="m 282.596,432.25 c 0,0 3.616,0.809 6.023,-1.267 2.407,-2.074 0.326,-2.502 -0.824,-2.244 -1.149,0.258 -3.576,1.286 -5.199,3.511 z"
             inkscape:connector-curvature="0" />
          <path
             style="fill:#ce171c"
             id="path646"
             d="m 283.493,431.196 c 0,0 1.63,3.326 4.754,3.908 3.124,0.582 2.157,-1.309 1.236,-2.045 -0.92,-0.736 -3.239,-1.988 -5.99,-1.863 z"
             inkscape:connector-curvature="0" />
          <path
             style="fill:#ce171c"
             id="path648"
             d="m 283.616,431.134 c 0,0 -1.191,3.508 0.612,6.124 1.805,2.616 2.453,0.593 2.319,-0.578 -0.132,-1.171 -0.894,-3.693 -2.931,-5.546 z"
             inkscape:connector-curvature="0" />
          <path
             style="fill:#ce171c"
             id="path650"
             d="m 284.658,430.92 c 0,0 -3.54,1.094 -4.6,4.089 -1.06,2.997 0.959,2.334 1.829,1.54 0.87,-0.795 2.466,-2.892 2.771,-5.629 z"
             inkscape:connector-curvature="0" />
          <path
             style="fill:#ce171c"
             id="path652"
             d="m 284.986,431.523 c 0,0 -3.179,-1.903 -6.115,-0.69 -2.938,1.214 -1.097,2.273 0.077,2.39 1.172,0.115 3.799,-0.098 6.038,-1.7 z"
             inkscape:connector-curvature="0" />
          <path
             style="fill:#ce171c"
             id="path654"
             d="m 284.883,432.695 c 0,0 -0.277,-3.694 -2.962,-5.395 -2.685,-1.701 -2.488,0.414 -1.907,1.439 0.58,1.026 2.269,3.05 4.869,3.956 z"
             inkscape:connector-curvature="0" />
          <path
             style="fill:#ce171c"
             id="path656"
             d="m 283.856,433.188 c 0,0 2.721,-2.515 2.384,-5.675 -0.338,-3.159 -1.872,-1.691 -2.314,-0.599 -0.442,1.093 -0.977,3.673 -0.07,6.274 z"
             inkscape:connector-curvature="0" />
        </g>
      </g>
    </g>
    <g
       id="layer1-1"
       transform="translate(345.28878,91.634774)">
      <g
         id="g236"
         transform="matrix(0.2088556,0,0,0.2088556,-84.889982,-75.025682)">
        <path
           style="fill:#5d1119"
           id="path238"
           d="m 485.849,427.751 c 0,0 14.523,-24.818 28.384,-38.968 13.86,-14.148 24.908,-14.44 27.44,-12.675 2.532,1.769 0.986,4.984 3.389,5.101 2.401,0.118 0.804,4.566 0.804,4.566 0,0 2.166,0.93 1.169,5.408 -0.997,4.478 -10.268,23.786 -21.22,31.08 -10.952,7.294 -32.932,18.999 -32.932,18.999 0,0 -5.169,-1.074 -7.034,-13.511 z"
           inkscape:connector-curvature="0" />
        <path
           style="fill:#5d1119"
           id="path240"
           d="m 495.993,432.502 c 0,0 20.055,8.403 33.05,19.182 12.997,10.779 16.279,22.557 15.85,25.785 -0.429,3.23 -2.935,2.505 -2.335,5.115 0.596,2.613 -2.718,2.186 -2.718,2.186 0,0 0.011,2.595 -3.154,2.821 -3.163,0.228 -18.197,-4.132 -25.964,-13.774 -7.764,-9.646 -21.46,-29.85 -21.46,-29.85 0,0 -0.754,-5.859 6.731,-11.465 z"
           inkscape:connector-curvature="0" />
        <path
           style="fill:#5d1119"
           id="path242"
           d="m 488.644,444.699 c 0,0 -13.074,20.553 -26.121,32.56 -13.047,12.009 -24.104,12.819 -26.749,11.545 -2.645,-1.281 -1.289,-3.926 -3.701,-3.893 -2.417,0.03 -1.082,-3.601 -1.082,-3.601 0,0 -2.228,-0.627 -1.496,-4.249 0.73,-3.624 8.868,-19.509 19.409,-25.899 10.545,-6.385 31.878,-16.872 31.878,-16.872 0,0 5.246,0.59 7.862,10.409 z"
           inkscape:connector-curvature="0" />
        <path
           style="fill:#5d1119"
           id="path244"
           d="m 489.562,443.659 c 0,0 -21.606,-10.875 -36.041,-24.793 -14.433,-13.922 -18.814,-29.104 -18.628,-33.261 0.188,-4.161 2.859,-3.225 2.022,-6.586 -0.833,-3.37 2.659,-2.813 2.659,-2.813 0,0 -0.222,-3.342 3.062,-3.625 3.281,-0.286 19.323,5.365 28.208,17.811 8.884,12.444 24.813,38.509 24.813,38.509 0,0 1.264,7.552 -6.095,14.758 z"
           inkscape:connector-curvature="0" />
        <path
           style="fill:#bb1b1d"
           id="path246"
           d="m 486.504,430.502 c 0,0 9.721,-16.61 18.997,-26.081 9.277,-9.469 16.671,-9.664 18.365,-8.482 1.695,1.184 0.661,3.336 2.269,3.413 1.606,0.079 0.538,3.057 0.538,3.057 0,0 1.45,0.622 0.782,3.62 -0.668,2.996 -6.872,15.92 -14.202,20.802 -7.331,4.882 -22.041,12.716 -22.041,12.716 0,0 -3.459,-0.72 -4.708,-9.045 z"
           inkscape:connector-curvature="0" />
        <path
           style="fill:#bb1b1d"
           id="path248"
           d="m 493.771,434.24 c 0,0 13.423,5.624 22.12,12.838 8.698,7.214 10.896,15.097 10.608,17.257 -0.287,2.163 -1.964,1.677 -1.563,3.425 0.398,1.749 -1.818,1.462 -1.818,1.462 0,0 0.008,1.737 -2.111,1.889 -2.117,0.152 -12.179,-2.765 -17.376,-9.219 -5.196,-6.456 -14.363,-19.979 -14.363,-19.979 0,0 -0.507,-3.922 4.503,-7.673 z"
           inkscape:connector-curvature="0" />
        <path
           style="fill:#bb1b1d"
           id="path250"
           d="m 486.512,442.729 c 0,0 -8.749,13.756 -17.481,21.792 -8.732,8.037 -16.134,8.58 -17.903,7.728 -1.77,-0.858 -0.863,-2.627 -2.478,-2.605 -1.617,0.021 -0.725,-2.41 -0.725,-2.41 0,0 -1.489,-0.42 -1.001,-2.845 0.488,-2.425 5.937,-13.057 12.991,-17.334 7.057,-4.272 21.335,-11.292 21.335,-11.292 0,0 3.514,0.394 5.262,6.966 z"
           inkscape:connector-curvature="0" />
        <path
           style="fill:#bb1b1d"
           id="path252"
           d="m 488.989,441.15 c 0,0 -14.461,-7.279 -24.122,-16.595 -9.66,-9.317 -12.592,-19.479 -12.467,-22.261 0.124,-2.785 1.914,-2.158 1.353,-4.408 -0.557,-2.256 1.78,-1.883 1.78,-1.883 0,0 -0.148,-2.236 2.049,-2.426 2.197,-0.192 12.934,3.591 18.88,11.92 5.946,8.329 16.608,25.773 16.608,25.773 0,0 0.844,5.057 -4.081,9.88 z"
           inkscape:connector-curvature="0" />
        <path
           style="fill:#98141b"
           id="path254"
           d="m 486.279,440.84 c 0,0 -27.659,7.866 -47.456,8.489 -19.796,0.622 -27.974,-6.812 -28.58,-9.839 -0.604,-3.029 2.737,-4.281 1.083,-6.027 -1.651,-1.747 2.58,-3.853 2.58,-3.853 0,0 -0.92,-2.17 2.898,-4.713 3.818,-2.543 23.872,-10.066 36.826,-7.753 12.954,2.313 36.921,9.073 36.921,9.073 0,0 2.988,4.354 -4.272,14.623 z"
           inkscape:connector-curvature="0" />
        <path
           style="fill:#98141b"
           id="path256"
           d="m 482.332,431.397 c 0,0 -5.714,-20.979 -5.211,-37.855 0.501,-16.878 7.766,-26.711 10.575,-28.357 2.81,-1.65 3.78,0.771 5.47,-1.308 1.693,-2.078 3.395,0.798 3.395,0.798 0,0 2.039,-1.604 4.165,0.751 2.125,2.354 7.938,16.888 5.115,28.942 -2.828,12.055 -10.329,35.282 -10.329,35.282 0,0 -4.156,4.2 -13.18,1.747 z"
           inkscape:connector-curvature="0" />
        <path
           style="fill:#98141b"
           id="path258"
           d="m 489.072,424.866 c 0,0 23.31,-7.072 41.03,-7.678 17.723,-0.609 26.639,5.982 27.812,8.672 1.172,2.695 -1.579,3.817 0.272,5.365 1.854,1.551 -1.526,3.436 -1.526,3.436 0,0 1.282,1.928 -1.634,4.198 -2.915,2.273 -19.438,9.02 -31.6,6.999 -12.158,-2.026 -35.174,-7.973 -35.174,-7.973 0,0 -3.595,-3.868 0.82,-13.019 z"
           inkscape:connector-curvature="0" />
        <path
           style="fill:#98141b"
           id="path260"
           d="m 494.605,426.787 c 0,0 8.072,22.802 8.861,42.838 0.785,20.038 -6.557,34.029 -9.568,36.901 -3.015,2.875 -4.296,0.35 -6.018,3.355 -1.73,3.009 -3.866,0.19 -3.866,0.19 0,0 -2.153,2.566 -4.72,0.498 -2.566,-2.064 -10.236,-17.245 -8.038,-32.378 2.198,-15.131 8.735,-44.97 8.735,-44.97 0,0 4.317,-6.324 14.614,-6.434 z"
           inkscape:connector-curvature="0" />
        <path
           style="fill:#e42a28"
           id="path262"
           d="m 487.71,438.401 c 0,0 -18.512,5.264 -31.762,5.682 -13.25,0.416 -18.723,-4.56 -19.128,-6.585 -0.405,-2.028 1.831,-2.866 0.724,-4.034 -1.104,-1.169 1.728,-2.579 1.728,-2.579 0,0 -0.617,-1.452 1.94,-3.154 2.555,-1.701 15.978,-6.737 24.646,-5.189 8.671,1.55 24.711,6.073 24.711,6.073 0,0 1.999,2.912 -2.859,9.786 z"
           inkscape:connector-curvature="0" />
        <path
           style="fill:#e42a28"
           id="path264"
           d="m 485.069,432.082 c 0,0 -3.825,-14.043 -3.489,-25.338 0.336,-11.295 5.197,-17.878 7.078,-18.979 1.881,-1.104 2.53,0.517 3.661,-0.875 1.134,-1.391 2.272,0.534 2.272,0.534 0,0 1.364,-1.074 2.787,0.502 1.423,1.576 5.313,11.303 3.424,19.371 -1.893,8.068 -6.913,23.615 -6.913,23.615 0,0 -2.781,2.81 -8.82,1.17 z"
           inkscape:connector-curvature="0" />
        <path
           style="fill:#e42a28"
           id="path266"
           d="m 489.405,427.749 c 0,0 15.602,-4.733 27.461,-5.14 11.861,-0.406 17.829,4.006 18.616,5.805 0.782,1.804 -1.057,2.555 0.182,3.59 1.239,1.04 -1.021,2.301 -1.021,2.301 0,0 0.855,1.289 -1.095,2.81 -1.95,1.521 -13.011,6.037 -21.149,4.685 -8.138,-1.356 -23.543,-5.336 -23.543,-5.336 0,0 -2.406,-2.59 0.549,-8.715 z"
           inkscape:connector-curvature="0" />
        <path
           style="fill:#e42a28"
           id="path268"
           d="m 493.283,428.995 c 0,0 5.402,15.262 5.931,28.672 0.526,13.411 -4.389,22.775 -6.404,24.697 -2.018,1.925 -2.876,0.233 -4.027,2.246 -1.159,2.014 -2.588,0.127 -2.588,0.127 0,0 -1.44,1.718 -3.157,0.334 -1.72,-1.382 -6.853,-11.543 -5.381,-21.67 1.471,-10.128 5.845,-30.099 5.845,-30.099 0,0 2.889,-4.234 9.781,-4.307 z"
           inkscape:connector-curvature="0" />
        <path
           style="fill:#380e0e"
           id="path270"
           d="m 489.387,435.03 c 0,0 3.148,-4.71 6.153,-7.396 3.005,-2.685 5.399,-2.74 5.948,-2.405 0.55,0.336 0.215,0.946 0.735,0.968 0.521,0.022 0.174,0.867 0.174,0.867 0,0 0.47,0.177 0.254,1.026 -0.217,0.85 -2.227,4.514 -4.601,5.898 -2.374,1.384 -7.139,3.605 -7.139,3.605 0,0 -1.12,-0.203 -1.524,-2.563 z"
           inkscape:connector-curvature="0" />
        <path
           style="fill:#380e0e"
           id="path272"
           d="m 491.421,435.805 c 0,0 4.042,2.124 6.495,4.502 2.453,2.378 2.791,4.679 2.599,5.273 -0.192,0.594 -0.707,0.391 -0.659,0.897 0.046,0.507 -0.651,0.337 -0.651,0.337 0,0 -0.079,0.487 -0.765,0.443 -0.686,-0.043 -3.775,-1.271 -5.143,-3.293 -1.365,-2.022 -3.676,-6.19 -3.676,-6.19 0,0 0.02,-1.12 1.8,-1.969 z"
           inkscape:connector-curvature="0" />
        <path
           style="fill:#380e0e"
           id="path274"
           d="m 491.415,437.51 c 0,0 -2.022,4.271 -4.358,6.942 -2.336,2.673 -4.667,3.187 -5.279,3.035 -0.612,-0.152 -0.423,-0.691 -0.936,-0.606 -0.516,0.085 -0.366,-0.638 -0.366,-0.638 0,0 -0.499,-0.044 -0.479,-0.745 0.02,-0.701 1.163,-3.938 3.175,-5.478 2.012,-1.539 6.175,-4.198 6.175,-4.198 0,0 1.142,-0.061 2.068,1.688 z"
           inkscape:connector-curvature="0" />
        <path
           style="fill:#380e0e"
           id="path276"
           d="m 490.192,438.048 c 0,0 -4.685,-2.063 -7.813,-4.705 -3.128,-2.642 -4.079,-5.522 -4.038,-6.312 0.04,-0.79 0.62,-0.612 0.438,-1.25 -0.181,-0.64 0.576,-0.534 0.576,-0.534 0,0 -0.048,-0.634 0.664,-0.688 0.711,-0.055 4.188,1.018 6.115,3.38 1.926,2.361 5.379,7.308 5.379,7.308 0,0 0.274,1.434 -1.321,2.801 z"
           inkscape:connector-curvature="0" />
        <path
           style="fill:#380e0e"
           id="path278"
           d="m 487.687,438.614 c 0,0 -1.026,-5.016 -0.681,-9.096 0.345,-4.08 2.146,-6.521 2.812,-6.944 0.668,-0.425 0.858,0.151 1.273,-0.365 0.417,-0.518 0.769,0.161 0.769,0.161 0,0 0.49,-0.406 0.945,0.144 0.456,0.549 1.593,4.006 0.78,6.943 -0.812,2.937 -2.851,8.615 -2.851,8.615 0,0 -1.009,1.052 -3.047,0.542 z"
           inkscape:connector-curvature="0" />
        <path
           style="fill:#380e0e"
           id="path280"
           d="m 492.211,435.885 c 0,0 -4.294,2.789 -8.218,3.958 -3.923,1.17 -6.854,0.386 -7.492,-0.08 -0.64,-0.467 -0.172,-0.854 -0.805,-1.052 -0.635,-0.199 -0.131,-0.774 -0.131,-0.774 0,0 -0.558,-0.309 -0.212,-0.933 0.345,-0.625 3.147,-2.946 6.178,-3.264 3.031,-0.316 9.062,-0.495 9.062,-0.495 0,0 1.347,0.557 1.618,2.64 z"
           inkscape:connector-curvature="0" />
        <path
           style="fill:#380e0e"
           id="path282"
           d="m 489.77,434.774 c 0,0 4.968,-1.241 9.059,-1.071 4.091,0.17 6.607,1.863 7.059,2.512 0.454,0.649 -0.114,0.864 0.42,1.256 0.534,0.396 -0.129,0.775 -0.129,0.775 0,0 0.428,0.473 -0.103,0.95 -0.528,0.479 -3.934,1.763 -6.902,1.078 -2.971,-0.686 -8.731,-2.478 -8.731,-2.478 0,0 -1.094,-0.964 -0.673,-3.022 z"
           inkscape:connector-curvature="0" />
      </g>
    </g>
    <g
       id="layer1-55"
       transform="translate(327.05286,308.15381)">
      <g
         id="g658"
         transform="matrix(0.23937885,0,0,0.23937885,-146.69516,-88.152781)">
        <circle
           style="fill:#380e0e"
           id="circle660"
           r="24.027"
           cy="456.12601"
           cx="642.11798" />
        <circle
           style="fill:#380e0e"
           id="circle662"
           r="24.027"
           cy="457.271"
           cx="719.91901" />
        <circle
           style="fill:#380e0e"
           id="circle664"
           r="24.027"
           cy="396.63101"
           cx="682.16302" />
        <circle
           style="fill:#380e0e;stroke:#ffffff"
           id="circle666"
           r="24.027"
           cy="411.505"
           cx="644.40601" />
        <circle
           style="fill:#380e0e;stroke:#ffffff"
           id="circle668"
           r="24.027"
           cy="477.866"
           cx="682.16302" />
        <circle
           style="fill:#380e0e;stroke:#ffffff"
           id="circle670"
           r="24.027"
           cy="417.22601"
           cx="721.06403" />
        <g
           id="g672">
          <circle
             style="fill:#380e0e"
             id="circle674"
             r="30"
             cy="438.74899"
             cx="679.091" />
          <circle
             style="fill:#ffffff"
             id="circle676"
             r="14"
             cy="436.74899"
             cx="682.091" />
          <circle
             style="fill:#380e0e"
             id="circle678"
             r="10"
             cy="436.74899"
             cx="682.091" />
          <circle
             style="fill:#ffffff"
             id="circle680"
             r="7"
             cy="410.74899"
             cx="683.091" />
          <circle
             style="fill:#ffffff"
             id="circle682"
             r="7"
             cy="440.74899"
             cx="705.591" />
          <circle
             style="fill:#ffffff"
             id="circle684"
             r="7"
             cy="421.24899"
             cx="700.091" />
          <circle
             style="fill:#ffffff"
             id="circle686"
             r="7"
             cy="457.74899"
             cx="695.591" />
          <circle
             style="fill:#380e0e"
             id="circle688"
             r="4.5"
             cy="456.24899"
             cx="695.091" />
          <circle
             style="fill:#380e0e"
             id="circle690"
             r="4.5"
             cy="440.74899"
             cx="704.591" />
          <circle
             style="fill:#380e0e"
             id="circle692"
             r="4.5"
             cy="422.24899"
             cx="699.091" />
          <circle
             style="fill:#380e0e"
             id="circle694"
             r="4.5"
             cy="411.74899"
             cx="683.091" />
          <circle
             style="fill:#ffffff"
             id="circle696"
             r="7"
             cy="461.24899"
             cx="675.591" />
          <circle
             style="fill:#ffffff"
             id="circle698"
             r="7"
             cy="449.74899"
             cx="659.091" />
          <circle
             style="fill:#ffffff"
             id="circle700"
             r="7"
             cy="433.24899"
             cx="657.091" />
          <circle
             style="fill:#ffffff"
             id="circle702"
             r="7"
             cy="415.74899"
             cx="665.091" />
          <circle
             style="fill:#380e0e"
             id="circle704"
             r="4.5"
             cy="460.24899"
             cx="675.591" />
          <circle
             style="fill:#380e0e"
             id="circle706"
             r="4.5"
             cy="450.24899"
             cx="660.091" />
          <circle
             style="fill:#380e0e"
             id="circle708"
             r="4.5"
             cy="432.74899"
             cx="658.591" />
          <circle
             style="fill:#380e0e"
             id="circle710"
             r="4.5"
             cy="415.74899"
             cx="665.091" />
        </g>
      </g>
    </g>
  </g>
</svg>
