<?xml version="1.0" encoding="UTF-8" standalone="no"?>
<!-- Created with Inkscape (http://www.inkscape.org/) -->

<svg
   xmlns:dc="http://purl.org/dc/elements/1.1/"
   xmlns:cc="http://creativecommons.org/ns#"
   xmlns:rdf="http://www.w3.org/1999/02/22-rdf-syntax-ns#"
   xmlns:svg="http://www.w3.org/2000/svg"
   xmlns="http://www.w3.org/2000/svg"
   xmlns:sodipodi="http://sodipodi.sourceforge.net/DTD/sodipodi-0.dtd"
   xmlns:inkscape="http://www.inkscape.org/namespaces/inkscape"
   width="500"
   height="420"
   viewBox="0 0 500 420"
   id="svg5268"
   version="1.1"
   inkscape:version="0.91 r13725"
   sodipodi:docname="tree.svg">
  <defs
     id="defs5270" />
  <sodipodi:namedview
     id="base"
     pagecolor="#ffffff"
     bordercolor="#666666"
     borderopacity="1.0"
     inkscape:pageopacity="0.0"
     inkscape:pageshadow="2"
     inkscape:zoom="1"
     inkscape:cx="217.13104"
     inkscape:cy="310.05563"
     inkscape:document-units="px"
     inkscape:current-layer="layer1"
     showgrid="false"
     inkscape:window-width="1920"
     inkscape:window-height="1027"
     inkscape:window-x="-8"
     inkscape:window-y="-8"
     inkscape:window-maximized="1" />
  <metadata
     id="metadata5273">
    <rdf:RDF>
      <cc:Work
         rdf:about="">
        <dc:format>image/svg+xml</dc:format>
        <dc:type
           rdf:resource="http://purl.org/dc/dcmitype/StillImage" />
        <dc:title></dc:title>
      </cc:Work>
    </rdf:RDF>
  </metadata>
  <g
     inkscape:label="Layer 1"
     inkscape:groupmode="layer"
     id="layer1">
    <g
       transform="translate(-219.05882,-154.30227)"
       id="g5757"
       style="fill:#000000">
      <path
         sodipodi:nodetypes="ccsssacaacaacaaaaac"
         inkscape:connector-curvature="0"
         id="path5511"
         d="m 425.62816,562.04763 70.58823,0 c 0,0 4.86348,-32.82452 1.4706,-54.41176 -7.59699,-48.3359 -20.14922,-68.91367 -17.16107,-103.88331 3.50211,-40.98432 8.15192,-53.79277 14.72072,-68.46738 13.1376,-29.34923 25.93232,-42.55119 36.04955,-65.24563 14.53163,-32.5966 14.31971,-45.27273 35.09302,-101.15257 0,0 -23.79881,55.71757 -39.65811,81.39594 -9.35303,15.14383 -22.46975,27.66869 -32.45002,42.4067 -8.69081,12.83385 -23.79997,39.94625 -23.79997,39.94625 0,0 -16.98171,-24.58227 -24.26471,-37.60003 -9.32827,-16.67351 -19.22581,-33.40286 -24.77967,-51.68338 -5.6559,-18.61638 -8.30857,-57.77542 -8.30857,-57.77542 0,0 -2.8552,48.09556 1.65442,71.50735 3.08056,15.99282 10.66305,30.80935 17.09558,45.77206 7.165,16.66652 21.42335,30.92511 23.89706,48.89706 2.52205,18.32319 -8.09769,36.18228 -9.98955,54.58121 -3.58022,34.81896 3.73273,70.53636 -2.51045,104.97762 -3.19371,17.61846 -17.64706,50.73529 -17.64706,50.73529 z"
         style="fill:#000000;fill-rule:evenodd;stroke:none;stroke-width:1px;stroke-linecap:butt;stroke-linejoin:miter;stroke-opacity:1" />
      <path
         sodipodi:nodetypes="caacaac"
         inkscape:connector-curvature="0"
         id="path5513"
         d="m 451.0383,491.07211 c -5.16566,-9.11461 -21.91042,0.94683 -32.82417,0.1676 -13.74341,-0.98127 -27.11503,-5.60992 -40.88535,-6.08148 -21.89295,-0.74972 -65.51136,5.19932 -65.51136,5.19932 0,0 48.05416,-0.75413 71.75054,2.59965 14.15052,2.00274 27.37311,11.81289 41.59451,10.39863 9.50096,-0.94483 29.1524,-5.52492 25.87583,-12.28372 z"
         style="fill:#000000;fill-rule:evenodd;stroke:none;stroke-width:1px;stroke-linecap:butt;stroke-linejoin:miter;stroke-opacity:1" />
      <path
         sodipodi:nodetypes="sacas"
         inkscape:connector-curvature="0"
         id="path5515"
         d="m 455.11394,402.7937 c -11.58124,-7.04844 -55.39628,-3.49855 -82.6691,-8.31891 -35.92899,-6.3503 -106.06602,-27.03643 -106.06602,-27.03643 0,0 79.07369,33.5456 121.14404,38.99486 22.37607,2.89832 82.85821,5.65218 67.59108,-3.63952 z"
         style="fill:#000000;fill-rule:evenodd;stroke:none;stroke-width:1px;stroke-linecap:butt;stroke-linejoin:miter;stroke-opacity:1" />
      <path
         sodipodi:nodetypes="saacaas"
         inkscape:connector-curvature="0"
         id="path5517"
         d="m 480.01206,381.47651 c -1.03732,-6.77666 16.60063,-6.68132 24.95671,-9.87871 7.93801,-3.03741 15.51982,-7.52441 23.91685,-8.83883 19.70953,-3.08519 59.79212,2.59966 59.79212,2.59966 0,0 -36.82904,0.43268 -54.5928,4.67938 -9.45293,2.25988 -17.51383,8.97313 -27.03644,10.91856 -8.8314,1.80422 -26.06568,6.86174 -27.03644,0.51994 z"
         style="fill:#000000;fill-rule:evenodd;stroke:none;stroke-width:1px;stroke-linecap:butt;stroke-linejoin:miter;stroke-opacity:1" />
      <path
         sodipodi:nodetypes="caacaac"
         inkscape:connector-curvature="0"
         id="path5519"
         d="m 482.181,458.48943 c -2.9002,-9.37154 15.61645,-12.59851 24.95671,-15.59794 23.64325,-7.59253 49.73454,-1.40539 74.3502,-4.67939 24.0228,-3.19514 71.23061,-14.55807 71.23061,-14.55807 0,0 -58.09421,21.18308 -88.38835,26.5165 -11.96747,2.10693 -24.29998,0.9113 -36.3952,2.07973 -15.32114,1.48007 -42.52492,13.71121 -45.75397,6.23917 z"
         style="fill:#000000;fill-rule:evenodd;stroke:none;stroke-width:1px;stroke-linecap:butt;stroke-linejoin:miter;stroke-opacity:1" />
    </g>
    <path
       style="fill:#ff5555;fill-rule:evenodd;stroke:none;stroke-width:1px;stroke-linecap:butt;stroke-linejoin:miter;stroke-opacity:1"
       d="m 80.32198,212.39636 c 0.0409,-4.14798 -2.61037,-9.61768 -7.94197,-9.58079 -5.93396,0.0411 -9.25893,5.81645 -9.25893,5.81645 0,0 -3.32497,-5.7403 -9.25893,-5.78135 -5.3316,-0.0369 -8.01783,5.43331 -7.94197,9.58079 0.15747,8.60867 17.2009,19.27008 17.2009,19.27008 0,0 17.11724,-10.81434 17.2009,-19.30518 z"
       id="path5561-7"
       inkscape:connector-curvature="0"
       sodipodi:nodetypes="ascsaca" />
    <path
       style="fill:#ff5555;fill-rule:evenodd;stroke:none;stroke-width:1px;stroke-linecap:butt;stroke-linejoin:miter;stroke-opacity:1"
       d="m 112.11322,224.65916 c 0.0409,-4.14798 -2.61037,-9.61768 -7.94197,-9.58079 -5.93396,0.0411 -9.25893,5.81645 -9.25893,5.81645 0,0 -3.32497,-5.7403 -9.25893,-5.78135 -5.3316,-0.0369 -8.01783,5.43331 -7.94197,9.58079 0.15747,8.60867 17.2009,19.27008 17.2009,19.27008 0,0 17.11724,-10.81434 17.2009,-19.30518 z"
       id="path5561-7-5"
       inkscape:connector-curvature="0"
       sodipodi:nodetypes="ascsaca" />
    <path
       style="fill:#ff5555;fill-rule:evenodd;stroke:none;stroke-width:1px;stroke-linecap:butt;stroke-linejoin:miter;stroke-opacity:1"
       d="m 210.64263,37.159156 c 0.0409,-4.14798 -2.61037,-9.61768 -7.94197,-9.58079 -5.93396,0.0411 -9.25893,5.81645 -9.25893,5.81645 0,0 -3.32497,-5.7403 -9.25893,-5.78135 -5.3316,-0.0369 -8.01783,5.43331 -7.94197,9.58079 0.15747,8.60867 17.2009,19.27008 17.2009,19.27008 0,0 17.11724,-10.81434 17.2009,-19.30518 z"
       id="path5561-7-6"
       inkscape:connector-curvature="0"
       sodipodi:nodetypes="ascsaca" />
    <path
       style="fill:#ff5555;fill-rule:evenodd;stroke:none;stroke-width:1px;stroke-linecap:butt;stroke-linejoin:miter;stroke-opacity:1"
       d="m 227.5544,68.776796 c 0.0409,-4.14798 -2.61037,-9.61768 -7.94197,-9.58079 -5.93396,0.0411 -9.25893,5.81645 -9.25893,5.81645 0,0 -3.32497,-5.7403 -9.25893,-5.78135 -5.3316,-0.0369 -8.01783,5.43331 -7.94197,9.58079 0.15747,8.60867 17.2009,19.27008 17.2009,19.27008 0,0 17.11724,-10.81434 17.2009,-19.30518 z"
       id="path5561-7-7"
       inkscape:connector-curvature="0"
       sodipodi:nodetypes="ascsaca" />
    <path
       style="fill:#ff5555;fill-rule:evenodd;stroke:none;stroke-width:1px;stroke-linecap:butt;stroke-linejoin:miter;stroke-opacity:1"
       d="m 197.40733,66.570926 c 0.0409,-4.14798 -2.61037,-9.61768 -7.94197,-9.58079 -5.93396,0.0411 -9.25893,5.81645 -9.25893,5.81645 0,0 -3.32497,-5.7403 -9.25893,-5.78135 -5.3316,-0.0369 -8.01783,5.43331 -7.94197,9.58079 0.15747,8.60867 17.2009,19.27008 17.2009,19.27008 0,0 17.11724,-10.81434 17.2009,-19.30518 z"
       id="path5561-7-0"
       inkscape:connector-curvature="0"
       sodipodi:nodetypes="ascsaca" />
    <path
       style="fill:#ff5555;fill-rule:evenodd;stroke:none;stroke-width:1px;stroke-linecap:butt;stroke-linejoin:miter;stroke-opacity:1"
       d="m 206.23086,95.247396 c 0.0409,-4.14798 -2.61037,-9.61768 -7.94197,-9.58079 -5.93396,0.0411 -9.25893,5.81645 -9.25893,5.81645 0,0 -3.32497,-5.7403 -9.25893,-5.78135 -5.3316,-0.0369 -8.01783,5.43331 -7.94197,9.58079 0.15747,8.608674 17.2009,19.270084 17.2009,19.270084 0,0 17.11724,-10.81434 17.2009,-19.305184 z"
       id="path5561-7-1"
       inkscape:connector-curvature="0"
       sodipodi:nodetypes="ascsaca" />
    <path
       style="fill:#ff5555;fill-rule:evenodd;stroke:none;stroke-width:1px;stroke-linecap:butt;stroke-linejoin:miter;stroke-opacity:1"
       d="m 170.20146,51.865036 c 0.0409,-4.14798 -2.61037,-9.61768 -7.94197,-9.58079 -5.93396,0.0411 -9.25893,5.81645 -9.25893,5.81645 0,0 -3.32497,-5.7403 -9.25893,-5.78135 -5.3316,-0.0369 -8.01783,5.43331 -7.94197,9.58079 0.15747,8.60867 17.2009,19.27008 17.2009,19.27008 0,0 17.11724,-10.81434 17.2009,-19.30518 z"
       id="path5561-7-54"
       inkscape:connector-curvature="0"
       sodipodi:nodetypes="ascsaca" />
    <path
       style="fill:#ff5555;fill-rule:evenodd;stroke:none;stroke-width:1px;stroke-linecap:butt;stroke-linejoin:miter;stroke-opacity:1"
       d="m 167.26028,76.129746 c 0.0409,-4.14798 -2.61037,-9.61768 -7.94197,-9.58079 -5.93396,0.0411 -9.25893,5.81645 -9.25893,5.81645 0,0 -3.32497,-5.7403 -9.25893,-5.78135 -5.3316,-0.0369 -8.01783,5.43331 -7.94197,9.58079 0.15747,8.60867 17.2009,19.27008 17.2009,19.27008 0,0 17.11724,-10.81434 17.2009,-19.30518 z"
       id="path5561-7-65"
       inkscape:connector-curvature="0"
       sodipodi:nodetypes="ascsaca" />
    <path
       style="fill:#ff5555;fill-rule:evenodd;stroke:none;stroke-width:1px;stroke-linecap:butt;stroke-linejoin:miter;stroke-opacity:1"
       d="m 141.52498,74.659156 c 0.0409,-4.14798 -2.61037,-9.61768 -7.94197,-9.58079 -5.93396,0.0411 -9.25893,5.81645 -9.25893,5.81645 0,0 -3.32497,-5.7403 -9.25893,-5.78135 -5.3316,-0.0369 -8.01783,5.43331 -7.94197,9.58079 0.15747,8.60867 17.2009,19.27008 17.2009,19.27008 0,0 17.11724,-10.81434 17.2009,-19.30518 z"
       id="path5561-7-07"
       inkscape:connector-curvature="0"
       sodipodi:nodetypes="ascsaca" />
    <path
       style="fill:#ff5555;fill-rule:evenodd;stroke:none;stroke-width:1px;stroke-linecap:butt;stroke-linejoin:miter;stroke-opacity:1"
       d="m 349.61322,23.188566 c 0.0409,-4.14798 -2.61037,-9.61768 -7.94197,-9.58079 -5.93396,0.0411 -9.25893,5.81645 -9.25893,5.81645 0,0 -3.32497,-5.7403 -9.25893,-5.78135 -5.3316,-0.0369 -8.01783,5.43331 -7.94197,9.58079 0.15747,8.60867 17.2009,19.27008 17.2009,19.27008 0,0 17.11724,-10.81434 17.2009,-19.30518 z"
       id="path5561-7-8"
       inkscape:connector-curvature="0"
       sodipodi:nodetypes="ascsaca" />
    <path
       style="fill:#ff5555;fill-rule:evenodd;stroke:none;stroke-width:1px;stroke-linecap:butt;stroke-linejoin:miter;stroke-opacity:1"
       d="m 365.05439,48.188566 c 0.0409,-4.14798 -2.61037,-9.61768 -7.94197,-9.58079 -5.93396,0.0411 -9.25893,5.81645 -9.25893,5.81645 0,0 -3.32497,-5.7403 -9.25893,-5.78135 -5.3316,-0.0369 -8.01783,5.43331 -7.94197,9.58079 0.15747,8.60867 17.2009,19.27008 17.2009,19.27008 0,0 17.11724,-10.81434 17.2009,-19.30518 z"
       id="path5561-7-3"
       inkscape:connector-curvature="0"
       sodipodi:nodetypes="ascsaca" />
    <path
       style="fill:#ff5555;fill-rule:evenodd;stroke:none;stroke-width:1px;stroke-linecap:butt;stroke-linejoin:miter;stroke-opacity:1"
       d="m 333.43675,55.541506 c 0.0409,-4.14798 -2.61037,-9.61768 -7.94197,-9.58079 -5.93396,0.0411 -9.25893,5.81645 -9.25893,5.81645 0,0 -3.32497,-5.7403 -9.25893,-5.78135 -5.3316,-0.0369 -8.01783,5.43331 -7.94197,9.58079 0.15747,8.60867 17.2009,19.27008 17.2009,19.27008 0,0 17.11724,-10.81434 17.2009,-19.30518 z"
       id="path5561-7-04"
       inkscape:connector-curvature="0"
       sodipodi:nodetypes="ascsaca" />
    <path
       style="fill:#ff5555;fill-rule:evenodd;stroke:none;stroke-width:1px;stroke-linecap:butt;stroke-linejoin:miter;stroke-opacity:1"
       d="m 355.49556,73.923856 c 0.0409,-4.14798 -2.61037,-9.61768 -7.94197,-9.58079 -5.93396,0.0411 -9.25893,5.81645 -9.25893,5.81645 0,0 -3.32497,-5.7403 -9.25893,-5.78135 -5.3316,-0.0369 -8.01783,5.43331 -7.94197,9.58079 0.15747,8.60868 17.2009,19.27009 17.2009,19.27009 0,0 17.11724,-10.81434 17.2009,-19.30519 z"
       id="path5561-7-69"
       inkscape:connector-curvature="0"
       sodipodi:nodetypes="ascsaca" />
    <path
       style="fill:#ff5555;fill-rule:evenodd;stroke:none;stroke-width:1px;stroke-linecap:butt;stroke-linejoin:miter;stroke-opacity:1"
       d="m 318.73087,87.159156 c 0.0409,-4.14798 -2.61037,-9.61768 -7.94197,-9.58079 -5.93396,0.0411 -9.25893,5.81645 -9.25893,5.81645 0,0 -3.32497,-5.7403 -9.25893,-5.78135 -5.3316,-0.0369 -8.01783,5.43331 -7.94197,9.58079 0.15747,8.60867 17.2009,19.270084 17.2009,19.270084 0,0 17.11724,-10.814344 17.2009,-19.305184 z"
       id="path5561-7-2"
       inkscape:connector-curvature="0"
       sodipodi:nodetypes="ascsaca" />
    <path
       style="fill:#ff5555;fill-rule:evenodd;stroke:none;stroke-width:1px;stroke-linecap:butt;stroke-linejoin:miter;stroke-opacity:1"
       d="m 348.14263,96.717976 c 0.0409,-4.14798 -2.61037,-9.61768 -7.94197,-9.58079 -5.93396,0.0411 -9.25893,5.81645 -9.25893,5.81645 0,0 -3.32497,-5.7403 -9.25893,-5.78135 -5.3316,-0.0369 -8.01783,5.43331 -7.94197,9.58079 0.15747,8.608674 17.2009,19.270084 17.2009,19.270084 0,0 17.11724,-10.81434 17.2009,-19.305184 z"
       id="path5561-7-09"
       inkscape:connector-curvature="0"
       sodipodi:nodetypes="ascsaca" />
    <path
       style="fill:#ff5555;fill-rule:evenodd;stroke:none;stroke-width:1px;stroke-linecap:butt;stroke-linejoin:miter;stroke-opacity:1"
       d="m 309.90733,111.42386 c 0.0409,-4.14798 -2.61037,-9.61768 -7.94197,-9.58079 -5.93396,0.0411 -9.25893,5.81645 -9.25893,5.81645 0,0 -3.32497,-5.7403 -9.25893,-5.78135 -5.3316,-0.0369 -8.01783,5.43331 -7.94197,9.58079 0.15747,8.60867 17.2009,19.27008 17.2009,19.27008 0,0 17.11724,-10.81434 17.2009,-19.30518 z"
       id="path5561-7-4"
       inkscape:connector-curvature="0"
       sodipodi:nodetypes="ascsaca" />
    <path
       style="fill:#ff5555;fill-rule:evenodd;stroke:none;stroke-width:1px;stroke-linecap:butt;stroke-linejoin:miter;stroke-opacity:1"
       d="m 342.26028,123.18856 c 0.0409,-4.14798 -2.61037,-9.61768 -7.94197,-9.58079 -5.93396,0.0411 -9.25893,5.81645 -9.25893,5.81645 0,0 -3.32497,-5.7403 -9.25893,-5.78135 -5.3316,-0.0369 -8.01783,5.43331 -7.94197,9.58079 0.15747,8.60868 17.2009,19.27009 17.2009,19.27009 0,0 17.11724,-10.81434 17.2009,-19.30519 z"
       id="path5561-7-33"
       inkscape:connector-curvature="0"
       sodipodi:nodetypes="ascsaca" />
    <path
       style="fill:#ff5555;fill-rule:evenodd;stroke:none;stroke-width:1px;stroke-linecap:butt;stroke-linejoin:miter;stroke-opacity:1"
       d="m 391.52498,66.570916 c 0.0409,-4.14798 -2.61037,-9.61768 -7.94197,-9.58079 -5.93396,0.0411 -9.25893,5.81645 -9.25893,5.81645 0,0 -3.32497,-5.7403 -9.25893,-5.78135 -5.3316,-0.0369 -8.01783,5.43331 -7.94197,9.58079 0.15747,8.60867 17.2009,19.27008 17.2009,19.27008 0,0 17.11724,-10.81434 17.2009,-19.30518 z"
       id="path5561-7-9"
       inkscape:connector-curvature="0"
       sodipodi:nodetypes="ascsaca" />
    <path
       style="fill:#ff5555;fill-rule:evenodd;stroke:none;stroke-width:1px;stroke-linecap:butt;stroke-linejoin:miter;stroke-opacity:1"
       d="m 382.70146,93.776796 c 0.0409,-4.14798 -2.61037,-9.61768 -7.94197,-9.58079 -5.93396,0.0411 -9.25893,5.81645 -9.25893,5.81645 0,0 -3.32497,-5.7403 -9.25893,-5.78135 -5.3316,-0.0369 -8.01783,5.43331 -7.94197,9.58079 0.15747,8.608674 17.2009,19.270084 17.2009,19.270084 0,0 17.11724,-10.81434 17.2009,-19.305184 z"
       id="path5561-7-01"
       inkscape:connector-curvature="0"
       sodipodi:nodetypes="ascsaca" />
    <path
       style="fill:#ff5555;fill-rule:evenodd;stroke:none;stroke-width:1px;stroke-linecap:butt;stroke-linejoin:miter;stroke-opacity:1"
       d="m 309.90733,37.894446 c 0.0409,-4.14798 -2.61037,-9.61768 -7.94197,-9.58079 -5.93396,0.0411 -9.25893,5.81645 -9.25893,5.81645 0,0 -3.32497,-5.7403 -9.25893,-5.78135 -5.3316,-0.0369 -8.01783,5.43331 -7.94197,9.58079 0.15747,8.60867 17.2009,19.27008 17.2009,19.27008 0,0 17.11724,-10.81434 17.2009,-19.30518 z"
       id="path5561-7-66"
       inkscape:connector-curvature="0"
       sodipodi:nodetypes="ascsaca" />
    <path
       style="fill:#ff5555;fill-rule:evenodd;stroke:none;stroke-width:1px;stroke-linecap:butt;stroke-linejoin:miter;stroke-opacity:1"
       d="m 292.99557,61.423856 c 0.0409,-4.14798 -2.61037,-9.61768 -7.94197,-9.58079 -5.93396,0.0411 -9.25893,5.81645 -9.25893,5.81645 0,0 -3.32497,-5.7403 -9.25893,-5.78135 -5.3316,-0.0369 -8.01783,5.43331 -7.94197,9.58079 0.15747,8.60867 17.2009,19.27008 17.2009,19.27008 0,0 17.11724,-10.81434 17.2009,-19.30518 z"
       id="path5561-7-45"
       inkscape:connector-curvature="0"
       sodipodi:nodetypes="ascsaca" />
    <path
       style="fill:#ff5555;fill-rule:evenodd;stroke:none;stroke-width:1px;stroke-linecap:butt;stroke-linejoin:miter;stroke-opacity:1"
       d="m 267.26027,44.512096 c 0.0409,-4.14798 -2.61037,-9.61768 -7.94197,-9.58079 -5.93396,0.0411 -9.25893,5.81645 -9.25893,5.81645 0,0 -3.32497,-5.7403 -9.25893,-5.78135 -5.3316,-0.0369 -8.01783,5.43331 -7.94197,9.58079 0.15747,8.60867 17.2009,19.27008 17.2009,19.27008 0,0 17.11724,-10.81434 17.2009,-19.30518 z"
       id="path5561-7-59"
       inkscape:connector-curvature="0"
       sodipodi:nodetypes="ascsaca" />
    <path
       style="fill:#ff5555;fill-rule:evenodd;stroke:none;stroke-width:1px;stroke-linecap:butt;stroke-linejoin:miter;stroke-opacity:1"
       d="m 243.73086,51.865036 c 0.0409,-4.14798 -2.61037,-9.61768 -7.94197,-9.58079 -5.93396,0.0411 -9.25893,5.81645 -9.25893,5.81645 0,0 -3.32497,-5.7403 -9.25893,-5.78135 -5.3316,-0.0369 -8.01783,5.43331 -7.94197,9.58079 0.15747,8.60867 17.2009,19.27008 17.2009,19.27008 0,0 17.11724,-10.81434 17.2009,-19.30518 z"
       id="path5561-7-075"
       inkscape:connector-curvature="0"
       sodipodi:nodetypes="ascsaca" />
    <path
       style="fill:#ff5555;fill-rule:evenodd;stroke:none;stroke-width:1px;stroke-linecap:butt;stroke-linejoin:miter;stroke-opacity:1"
       d="m 270.20145,76.865036 c 0.0409,-4.14798 -2.61037,-9.61768 -7.94197,-9.58079 -5.93396,0.0411 -9.25893,5.81645 -9.25893,5.81645 0,0 -3.32497,-5.7403 -9.25893,-5.78135 -5.3316,-0.0369 -8.01783,5.43331 -7.94197,9.58079 0.15747,8.60867 17.2009,19.27008 17.2009,19.27008 0,0 17.11724,-10.81434 17.2009,-19.30518 z"
       id="path5561-7-85"
       inkscape:connector-curvature="0"
       sodipodi:nodetypes="ascsaca" />
    <path
       style="fill:#ff5555;fill-rule:evenodd;stroke:none;stroke-width:1px;stroke-linecap:butt;stroke-linejoin:miter;stroke-opacity:1"
       d="m 245.20145,90.100336 c 0.0409,-4.14798 -2.61037,-9.61768 -7.94197,-9.58079 -5.93396,0.0411 -9.25893,5.81645 -9.25893,5.81645 0,0 -3.32497,-5.7403 -9.25893,-5.78135 -5.3316,-0.0369 -8.01783,5.43331 -7.94197,9.58079 0.15747,8.60867 17.2009,19.270084 17.2009,19.270084 0,0 17.11724,-10.814344 17.2009,-19.305184 z"
       id="path5561-7-72"
       inkscape:connector-curvature="0"
       sodipodi:nodetypes="ascsaca" />
    <path
       style="fill:#ff5555;fill-rule:evenodd;stroke:none;stroke-width:1px;stroke-linecap:butt;stroke-linejoin:miter;stroke-opacity:1"
       d="m 278.28969,96.717976 c 0.0409,-4.14798 -2.61037,-9.61768 -7.94197,-9.58079 -5.93396,0.0411 -9.25893,5.81645 -9.25893,5.81645 0,0 -3.32497,-5.7403 -9.25893,-5.78135 -5.3316,-0.0369 -8.01783,5.43331 -7.94197,9.58079 0.15747,8.608674 17.2009,19.270084 17.2009,19.270084 0,0 17.11724,-10.81434 17.2009,-19.305184 z"
       id="path5561-7-15"
       inkscape:connector-curvature="0"
       sodipodi:nodetypes="ascsaca" />
    <path
       style="fill:#ff5555;fill-rule:evenodd;stroke:none;stroke-width:1px;stroke-linecap:butt;stroke-linejoin:miter;stroke-opacity:1"
       d="m 234.90733,101.86503 c 0.0409,-4.147984 -2.61037,-9.617684 -7.94197,-9.580794 -5.93396,0.0411 -9.25893,5.81645 -9.25893,5.81645 0,0 -3.32497,-5.7403 -9.25893,-5.78135 -5.3316,-0.0369 -8.01783,5.43331 -7.94197,9.580794 0.15747,8.60868 17.2009,19.27009 17.2009,19.27009 0,0 17.11724,-10.81434 17.2009,-19.30519 z"
       id="path5561-7-93"
       inkscape:connector-curvature="0"
       sodipodi:nodetypes="ascsaca" />
    <path
       style="fill:#ff5555;fill-rule:evenodd;stroke:none;stroke-width:1px;stroke-linecap:butt;stroke-linejoin:miter;stroke-opacity:1"
       d="m 178.28969,100.39445 c 0.0409,-4.147984 -2.61037,-9.617684 -7.94197,-9.580794 -5.93396,0.0411 -9.25893,5.81645 -9.25893,5.81645 0,0 -3.32497,-5.7403 -9.25893,-5.78135 -5.3316,-0.0369 -8.01783,5.43331 -7.94197,9.580794 0.15747,8.60867 17.2009,19.27008 17.2009,19.27008 0,0 17.11724,-10.81434 17.2009,-19.30518 z"
       id="path5561-7-541"
       inkscape:connector-curvature="0"
       sodipodi:nodetypes="ascsaca" />
    <path
       style="fill:#ff5555;fill-rule:evenodd;stroke:none;stroke-width:1px;stroke-linecap:butt;stroke-linejoin:miter;stroke-opacity:1"
       d="m 148.87792,98.188566 c 0.0409,-4.14798 -2.61037,-9.61768 -7.94197,-9.58079 -5.93396,0.0411 -9.25893,5.81645 -9.25893,5.81645 0,0 -3.32497,-5.7403 -9.25893,-5.78135 -5.3316,-0.0369 -8.01783,5.43331 -7.94197,9.58079 0.15747,8.608674 17.2009,19.270084 17.2009,19.270084 0,0 17.11724,-10.81434 17.2009,-19.305184 z"
       id="path5561-7-095"
       inkscape:connector-curvature="0"
       sodipodi:nodetypes="ascsaca" />
    <path
       style="fill:#ff5555;fill-rule:evenodd;stroke:none;stroke-width:1px;stroke-linecap:butt;stroke-linejoin:miter;stroke-opacity:1"
       d="m 240.78969,26.129736 c 0.0409,-4.14798 -2.61037,-9.61768 -7.94197,-9.58079 -5.93396,0.0411 -9.25893,5.81645 -9.25893,5.81645 0,0 -3.32497,-5.7403 -9.25893,-5.78135 -5.3316,-0.0369 -8.01783,5.43331 -7.94197,9.58079 0.15747,8.60868 17.2009,19.27009 17.2009,19.27009 0,0 17.11724,-10.81434 17.2009,-19.30519 z"
       id="path5561-7-33-3"
       inkscape:connector-curvature="0"
       sodipodi:nodetypes="ascsaca" />
    <path
       style="fill:#ff5555;fill-rule:evenodd;stroke:none;stroke-width:1px;stroke-linecap:butt;stroke-linejoin:miter;stroke-opacity:1"
       d="m 270.93675,15.835616 c 0.0409,-4.14798 -2.61037,-9.61768 -7.94197,-9.58079 -5.93396,0.0411 -9.25893,5.81645 -9.25893,5.81645 0,0 -3.32497,-5.7403 -9.25893,-5.78135 -5.3316,-0.0369 -8.01783,5.43331 -7.94197,9.58079 0.15747,8.60868 17.2009,19.27009 17.2009,19.27009 0,0 17.11724,-10.81434 17.2009,-19.30519 z"
       id="path5561-7-33-6"
       inkscape:connector-curvature="0"
       sodipodi:nodetypes="ascsaca" />
    <path
       style="fill:#ff5555;fill-rule:evenodd;stroke:none;stroke-width:1px;stroke-linecap:butt;stroke-linejoin:miter;stroke-opacity:1"
       d="m 312.84851,18.041506 c 0.0409,-4.14798 -2.61037,-9.61768 -7.94197,-9.58079 -5.93396,0.0411 -9.25893,5.81645 -9.25893,5.81645 0,0 -3.32497,-5.7403 -9.25893,-5.78135 -5.3316,-0.0369 -8.01783,5.43331 -7.94197,9.58079 0.15747,8.60868 17.2009,19.27009 17.2009,19.27009 0,0 17.11724,-10.81434 17.2009,-19.30519 z"
       id="path5561-7-33-64"
       inkscape:connector-curvature="0"
       sodipodi:nodetypes="ascsaca" />
    <path
       style="fill:#ff5555;fill-rule:evenodd;stroke:none;stroke-width:1px;stroke-linecap:butt;stroke-linejoin:miter;stroke-opacity:1"
       d="m 122.40734,98.188566 c 0.0409,-4.14798 -2.61037,-9.61768 -7.94197,-9.58079 -5.93396,0.0411 -9.25893,5.81645 -9.25893,5.81645 0,0 -3.32497,-5.7403 -9.25893,-5.78135 -5.3316,-0.0369 -8.01783,5.43331 -7.94197,9.58079 0.15747,8.608684 17.2009,19.270094 17.2009,19.270094 0,0 17.11724,-10.81434 17.2009,-19.305194 z"
       id="path5561-7-33-7"
       inkscape:connector-curvature="0"
       sodipodi:nodetypes="ascsaca" />
    <path
       style="fill:#ff5555;fill-rule:evenodd;stroke:none;stroke-width:1px;stroke-linecap:butt;stroke-linejoin:miter;stroke-opacity:1"
       d="m 106.96616,118.04151 c 0.0409,-4.14798 -2.61037,-9.61768 -7.94197,-9.58079 -5.93396,0.0411 -9.25893,5.81645 -9.25893,5.81645 0,0 -3.32497,-5.7403 -9.25893,-5.78135 -5.3316,-0.0369 -8.01783,5.43331 -7.94197,9.58079 0.15747,8.60868 17.2009,19.27009 17.2009,19.27009 0,0 17.11724,-10.81434 17.2009,-19.30519 z"
       id="path5561-7-33-30"
       inkscape:connector-curvature="0"
       sodipodi:nodetypes="ascsaca" />
    <path
       style="fill:#ff5555;fill-rule:evenodd;stroke:none;stroke-width:1px;stroke-linecap:butt;stroke-linejoin:miter;stroke-opacity:1"
       d="m 94.46616,136.42386 c 0.0409,-4.14798 -2.61037,-9.61768 -7.94197,-9.58079 -5.93396,0.0411 -9.25893,5.81645 -9.25893,5.81645 0,0 -3.32497,-5.7403 -9.25893,-5.78135 -5.3316,-0.0369 -8.01783,5.43331 -7.94197,9.58079 0.15747,8.60868 17.2009,19.27009 17.2009,19.27009 0,0 17.11724,-10.81434 17.2009,-19.30519 z"
       id="path5561-7-33-75"
       inkscape:connector-curvature="0"
       sodipodi:nodetypes="ascsaca" />
    <path
       style="fill:#ff5555;fill-rule:evenodd;stroke:none;stroke-width:1px;stroke-linecap:butt;stroke-linejoin:miter;stroke-opacity:1"
       d="m 121.67204,134.21798 c 0.0409,-4.14798 -2.61037,-9.61768 -7.94197,-9.58079 -5.93396,0.0411 -9.25893,5.81645 -9.25893,5.81645 0,0 -3.32497,-5.7403 -9.25893,-5.78135 -5.3316,-0.0369 -8.01783,5.43331 -7.94197,9.58079 0.15747,8.60868 17.2009,19.27009 17.2009,19.27009 0,0 17.11724,-10.81434 17.2009,-19.30519 z"
       id="path5561-7-33-9"
       inkscape:connector-curvature="0"
       sodipodi:nodetypes="ascsaca" />
    <path
       style="fill:#ff5555;fill-rule:evenodd;stroke:none;stroke-width:1px;stroke-linecap:butt;stroke-linejoin:miter;stroke-opacity:1"
       d="m 142.26027,126.12974 c 0.0409,-4.14798 -2.61037,-9.61768 -7.94197,-9.58079 -5.93396,0.0411 -9.25893,5.81645 -9.25893,5.81645 0,0 -3.32497,-5.7403 -9.25893,-5.78135 -5.3316,-0.0369 -8.01783,5.43331 -7.94197,9.58079 0.15747,8.60868 17.2009,19.27009 17.2009,19.27009 0,0 17.11724,-10.81434 17.2009,-19.30519 z"
       id="path5561-7-33-0"
       inkscape:connector-curvature="0"
       sodipodi:nodetypes="ascsaca" />
    <path
       style="fill:#ff5555;fill-rule:evenodd;stroke:none;stroke-width:1px;stroke-linecap:butt;stroke-linejoin:miter;stroke-opacity:1"
       d="m 129.02498,159.95327 c 0.0409,-4.14798 -2.61037,-9.61768 -7.94197,-9.58079 -5.93396,0.0411 -9.25893,5.81645 -9.25893,5.81645 0,0 -3.32497,-5.7403 -9.25893,-5.78135 -5.3316,-0.0369 -8.01783,5.43331 -7.94197,9.58079 0.15747,8.60868 17.2009,19.27009 17.2009,19.27009 0,0 17.11724,-10.81434 17.2009,-19.30519 z"
       id="path5561-7-33-00"
       inkscape:connector-curvature="0"
       sodipodi:nodetypes="ascsaca" />
    <path
       style="fill:#ff5555;fill-rule:evenodd;stroke:none;stroke-width:1px;stroke-linecap:butt;stroke-linejoin:miter;stroke-opacity:1"
       d="m 101.8191,162.15915 c 0.0409,-4.14798 -2.61037,-9.61768 -7.94197,-9.58079 -5.93396,0.0411 -9.25893,5.81645 -9.25893,5.81645 0,0 -3.32497,-5.7403 -9.25893,-5.78135 -5.3316,-0.0369 -8.01783,5.43331 -7.94197,9.58079 0.15747,8.60868 17.2009,19.27009 17.2009,19.27009 0,0 17.11724,-10.81434 17.2009,-19.30519 z"
       id="path5561-7-33-90"
       inkscape:connector-curvature="0"
       sodipodi:nodetypes="ascsaca" />
    <path
       style="fill:#ff5555;fill-rule:evenodd;stroke:none;stroke-width:1px;stroke-linecap:butt;stroke-linejoin:miter;stroke-opacity:1"
       d="m 90.78969,181.2768 c 0.0409,-4.14798 -2.61037,-9.61768 -7.94197,-9.58079 -5.93396,0.0411 -9.25893,5.81645 -9.25893,5.81645 0,0 -3.32497,-5.7403 -9.25893,-5.78135 -5.3316,-0.0369 -8.01783,5.43331 -7.94197,9.58079 0.15747,8.60868 17.2009,19.27009 17.2009,19.27009 0,0 17.11724,-10.81434 17.2009,-19.30519 z"
       id="path5561-7-33-68"
       inkscape:connector-curvature="0"
       sodipodi:nodetypes="ascsaca" />
    <path
       style="fill:#ff5555;fill-rule:evenodd;stroke:none;stroke-width:1px;stroke-linecap:butt;stroke-linejoin:miter;stroke-opacity:1"
       d="m 116.52498,185.68856 c 0.0409,-4.14798 -2.61037,-9.61768 -7.94197,-9.58079 -5.93396,0.0411 -9.25893,5.81645 -9.25893,5.81645 0,0 -3.32497,-5.7403 -9.25893,-5.78135 -5.3316,-0.0369 -8.01783,5.43331 -7.94197,9.58079 0.15747,8.60868 17.2009,19.27009 17.2009,19.27009 0,0 17.11724,-10.81434 17.2009,-19.30519 z"
       id="path5561-7-33-77"
       inkscape:connector-curvature="0"
       sodipodi:nodetypes="ascsaca" />
    <path
       style="fill:#ff5555;fill-rule:evenodd;stroke:none;stroke-width:1px;stroke-linecap:butt;stroke-linejoin:miter;stroke-opacity:1"
       d="m 76.8191,237.15915 c 0.0409,-4.14798 -2.61037,-9.61768 -7.94197,-9.58079 -5.93396,0.0411 -9.25893,5.81645 -9.25893,5.81645 0,0 -3.32497,-5.7403 -9.25893,-5.78135 -5.3316,-0.0369 -8.01783,5.43331 -7.94197,9.58079 0.15747,8.60869 17.2009,19.2701 17.2009,19.2701 0,0 17.11724,-10.81434 17.2009,-19.3052 z"
       id="path5561-7-33-34"
       inkscape:connector-curvature="0"
       sodipodi:nodetypes="ascsaca" />
    <path
       style="fill:#ff5555;fill-rule:evenodd;stroke:none;stroke-width:1px;stroke-linecap:butt;stroke-linejoin:miter;stroke-opacity:1"
       d="m 99.61321,253.33562 c 0.0409,-4.14798 -2.61037,-9.61768 -7.94197,-9.58079 -5.93396,0.0411 -9.25893,5.81645 -9.25893,5.81645 0,0 -3.32497,-5.7403 -9.25893,-5.78135 -5.3316,-0.0369 -8.01783,5.43331 -7.94197,9.58079 0.15747,8.60868 17.2009,19.27009 17.2009,19.27009 0,0 17.11724,-10.81434 17.2009,-19.30519 z"
       id="path5561-7-33-08"
       inkscape:connector-curvature="0"
       sodipodi:nodetypes="ascsaca" />
    <path
       style="fill:#ff5555;fill-rule:evenodd;stroke:none;stroke-width:1px;stroke-linecap:butt;stroke-linejoin:miter;stroke-opacity:1"
       d="m 80.49557,272.45327 c 0.0409,-4.14798 -2.61037,-9.61768 -7.94197,-9.58079 -5.93396,0.0411 -9.25893,5.81645 -9.25893,5.81645 0,0 -3.32497,-5.7403 -9.25893,-5.78135 -5.3316,-0.0369 -8.01783,5.43331 -7.94197,9.58079 0.15747,8.60868 17.2009,19.27009 17.2009,19.27009 0,0 17.11724,-10.81434 17.2009,-19.30519 z"
       id="path5561-7-33-66"
       inkscape:connector-curvature="0"
       sodipodi:nodetypes="ascsaca" />
    <path
       style="fill:#ff5555;fill-rule:evenodd;stroke:none;stroke-width:1px;stroke-linecap:butt;stroke-linejoin:miter;stroke-opacity:1"
       d="m 48.14263,269.5121 c 0.0409,-4.14798 -2.61037,-9.61768 -7.94197,-9.58079 -5.93396,0.0411 -9.25893,5.81645 -9.25893,5.81645 0,0 -3.32497,-5.7403 -9.25893,-5.78135 -5.3316,-0.0369 -8.01783,5.43331 -7.94197,9.58079 0.15747,8.60868 17.2009,19.27009 17.2009,19.27009 0,0 17.11724,-10.81434 17.2009,-19.30519 z"
       id="path5561-7-33-5"
       inkscape:connector-curvature="0"
       sodipodi:nodetypes="ascsaca" />
    <path
       style="fill:#ff5555;fill-rule:evenodd;stroke:none;stroke-width:1px;stroke-linecap:butt;stroke-linejoin:miter;stroke-opacity:1"
       d="m 54.02499,206.2768 c 0.0409,-4.14798 -2.61037,-9.61768 -7.94197,-9.58079 -5.93396,0.0411 -9.25893,5.81645 -9.25893,5.81645 0,0 -3.32497,-5.7403 -9.25893,-5.78135 -5.3316,-0.0369 -8.01783,5.43331 -7.94197,9.58079 0.15747,8.60868 17.2009,19.27009 17.2009,19.27009 0,0 17.11724,-10.81434 17.2009,-19.30519 z"
       id="path5561-7-33-07"
       inkscape:connector-curvature="0"
       sodipodi:nodetypes="ascsaca" />
    <path
       style="fill:#ff5555;fill-rule:evenodd;stroke:none;stroke-width:1px;stroke-linecap:butt;stroke-linejoin:miter;stroke-opacity:1"
       d="m 61.37792,165.10033 c 0.0409,-4.14798 -2.61037,-9.61768 -7.94197,-9.58079 -5.93396,0.0411 -9.25893,5.81645 -9.25893,5.81645 0,0 -3.32497,-5.7403 -9.25893,-5.78135 -5.3316,-0.0369 -8.01783,5.43331 -7.94197,9.58079 0.15747,8.60868 17.2009,19.27009 17.2009,19.27009 0,0 17.11724,-10.81434 17.2009,-19.30519 z"
       id="path5561-7-33-903"
       inkscape:connector-curvature="0"
       sodipodi:nodetypes="ascsaca" />
    <path
       style="fill:#ff5555;fill-rule:evenodd;stroke:none;stroke-width:1px;stroke-linecap:butt;stroke-linejoin:miter;stroke-opacity:1"
       d="m 51.8191,232.74738 c 0.0409,-4.14798 -2.61037,-9.61768 -7.94197,-9.58079 -5.93396,0.0411 -9.25893,5.81645 -9.25893,5.81645 0,0 -3.32497,-5.7403 -9.25893,-5.78135 -5.3316,-0.0369 -8.01783,5.43331 -7.94197,9.58079 0.15747,8.60868 17.2009,19.27009 17.2009,19.27009 0,0 17.11724,-10.81434 17.2009,-19.30519 z"
       id="path5561-7-33-2"
       inkscape:connector-curvature="0"
       sodipodi:nodetypes="ascsaca" />
    <path
       style="fill:#ff5555;fill-rule:evenodd;stroke:none;stroke-width:1px;stroke-linecap:butt;stroke-linejoin:miter;stroke-opacity:1"
       d="m 73.14263,293.04151 c 0.0409,-4.14798 -2.61037,-9.61768 -7.94197,-9.58079 -5.93396,0.0411 -9.25893,5.81645 -9.25893,5.81645 0,0 -3.32497,-5.7403 -9.25893,-5.78135 -5.3316,-0.0369 -8.01783,5.43331 -7.94197,9.58079 0.15747,8.60868 17.2009,19.27009 17.2009,19.27009 0,0 17.11724,-10.81434 17.2009,-19.30519 z"
       id="path5561-7-33-74"
       inkscape:connector-curvature="0"
       sodipodi:nodetypes="ascsaca" />
    <path
       style="fill:#ff5555;fill-rule:evenodd;stroke:none;stroke-width:1px;stroke-linecap:butt;stroke-linejoin:miter;stroke-opacity:1"
       d="m 92.26027,307.74739 c 0.0409,-4.14798 -2.61037,-9.61768 -7.94197,-9.58079 -5.93396,0.0411 -9.25893,5.81645 -9.25893,5.81645 0,0 -3.32497,-5.7403 -9.25893,-5.78135 -5.3316,-0.0369 -8.01783,5.43331 -7.94197,9.58079 0.15747,8.60868 17.2009,19.27009 17.2009,19.27009 0,0 17.11724,-10.81434 17.2009,-19.30519 z"
       id="path5561-7-33-685"
       inkscape:connector-curvature="0"
       sodipodi:nodetypes="ascsaca" />
    <path
       style="fill:#ff5555;fill-rule:evenodd;stroke:none;stroke-width:1px;stroke-linecap:butt;stroke-linejoin:miter;stroke-opacity:1"
       d="m 109.90733,322.45327 c 0.0409,-4.14798 -2.61037,-9.61768 -7.94197,-9.58079 -5.93396,0.0411 -9.25893,5.81645 -9.25893,5.81645 0,0 -3.32497,-5.7403 -9.25893,-5.78135 -5.3316,-0.0369 -8.01783,5.43331 -7.94197,9.58079 0.15747,8.60868 17.2009,19.27009 17.2009,19.27009 0,0 17.11724,-10.81434 17.2009,-19.30519 z"
       id="path5561-7-33-8"
       inkscape:connector-curvature="0"
       sodipodi:nodetypes="ascsaca" />
    <path
       style="fill:#ff5555;fill-rule:evenodd;stroke:none;stroke-width:1px;stroke-linecap:butt;stroke-linejoin:miter;stroke-opacity:1"
       d="m 128.28969,342.30621 c 0.0409,-4.14798 -2.61037,-9.61768 -7.94197,-9.58079 -5.93396,0.0411 -9.25893,5.81645 -9.25893,5.81645 0,0 -3.32497,-5.7403 -9.25893,-5.78135 -5.3316,-0.0369 -8.01783,5.43331 -7.94197,9.58079 0.15747,8.60868 17.2009,19.27009 17.2009,19.27009 0,0 17.11724,-10.81434 17.2009,-19.30519 z"
       id="path5561-7-33-4"
       inkscape:connector-curvature="0"
       sodipodi:nodetypes="ascsaca" />
    <path
       style="fill:#ff5555;fill-rule:evenodd;stroke:none;stroke-width:1px;stroke-linecap:butt;stroke-linejoin:miter;stroke-opacity:1"
       d="m 97.40733,340.83562 c 0.0409,-4.14798 -2.61037,-9.61768 -7.94197,-9.58079 -5.93396,0.0411 -9.25893,5.81645 -9.25893,5.81645 0,0 -3.32497,-5.7403 -9.25893,-5.78135 -5.3316,-0.0369 -8.01783,5.43331 -7.94197,9.58079 0.15747,8.60868 17.2009,19.27009 17.2009,19.27009 0,0 17.11724,-10.81434 17.2009,-19.30519 z"
       id="path5561-7-33-87"
       inkscape:connector-curvature="0"
       sodipodi:nodetypes="ascsaca" />
    <path
       style="fill:#ff5555;fill-rule:evenodd;stroke:none;stroke-width:1px;stroke-linecap:butt;stroke-linejoin:miter;stroke-opacity:1"
       d="m 65.78969,322.45327 c 0.0409,-4.14798 -2.61037,-9.61768 -7.94197,-9.58079 -5.93396,0.0411 -9.25893,5.81645 -9.25893,5.81645 0,0 -3.32497,-5.7403 -9.25893,-5.78135 -5.3316,-0.0369 -8.01783,5.43331 -7.94197,9.58079 0.15747,8.60868 17.2009,19.27009 17.2009,19.27009 0,0 17.11724,-10.81434 17.2009,-19.30519 z"
       id="path5561-7-33-1"
       inkscape:connector-curvature="0"
       sodipodi:nodetypes="ascsaca" />
    <path
       style="fill:#ff5555;fill-rule:evenodd;stroke:none;stroke-width:1px;stroke-linecap:butt;stroke-linejoin:miter;stroke-opacity:1"
       d="m 154.76028,351.12974 c 0.0409,-4.14798 -2.61037,-9.61768 -7.94197,-9.58079 -5.93396,0.0411 -9.25893,5.81645 -9.25893,5.81645 0,0 -3.32497,-5.7403 -9.25893,-5.78135 -5.3316,-0.0369 -8.01783,5.43331 -7.94197,9.58079 0.15747,8.60868 17.2009,19.27009 17.2009,19.27009 0,0 17.11724,-10.81434 17.2009,-19.30519 z"
       id="path5561-7-33-10"
       inkscape:connector-curvature="0"
       sodipodi:nodetypes="ascsaca" />
    <path
       style="fill:#ff5555;fill-rule:evenodd;stroke:none;stroke-width:1px;stroke-linecap:butt;stroke-linejoin:miter;stroke-opacity:1"
       d="m 180.49557,353.33562 c 0.0409,-4.14798 -2.61037,-9.61768 -7.94197,-9.58079 -5.93396,0.0411 -9.25893,5.81645 -9.25893,5.81645 0,0 -3.32497,-5.7403 -9.25893,-5.78135 -5.3316,-0.0369 -8.01783,5.43331 -7.94197,9.58079 0.15747,8.60868 17.2009,19.27009 17.2009,19.27009 0,0 17.11724,-10.81434 17.2009,-19.30519 z"
       id="path5561-7-33-076"
       inkscape:connector-curvature="0"
       sodipodi:nodetypes="ascsaca" />
    <path
       style="fill:#ff5555;fill-rule:evenodd;stroke:none;stroke-width:1px;stroke-linecap:butt;stroke-linejoin:miter;stroke-opacity:1"
       d="m 206.96616,354.80621 c 0.0409,-4.14798 -2.61037,-9.61768 -7.94197,-9.58079 -5.93396,0.0411 -9.25893,5.81645 -9.25893,5.81645 0,0 -3.32497,-5.7403 -9.25893,-5.78135 -5.3316,-0.0369 -8.01783,5.43331 -7.94197,9.58079 0.15747,8.60868 17.2009,19.27009 17.2009,19.27009 0,0 17.11724,-10.81434 17.2009,-19.30519 z"
       id="path5561-7-33-51"
       inkscape:connector-curvature="0"
       sodipodi:nodetypes="ascsaca" />
    <path
       style="fill:#ff5555;fill-rule:evenodd;stroke:none;stroke-width:1px;stroke-linecap:butt;stroke-linejoin:miter;stroke-opacity:1"
       d="m 179.76028,327.60033 c 0.0409,-4.14798 -2.61037,-9.61768 -7.94197,-9.58079 -5.93396,0.0411 -9.25893,5.81645 -9.25893,5.81645 0,0 -3.32497,-5.7403 -9.25893,-5.78135 -5.3316,-0.0369 -8.01783,5.43331 -7.94197,9.58079 0.15747,8.60868 17.2009,19.27009 17.2009,19.27009 0,0 17.11724,-10.81434 17.2009,-19.30519 z"
       id="path5561-7-33-93"
       inkscape:connector-curvature="0"
       sodipodi:nodetypes="ascsaca" />
    <path
       style="fill:#ff5555;fill-rule:evenodd;stroke:none;stroke-width:1px;stroke-linecap:butt;stroke-linejoin:miter;stroke-opacity:1"
       d="m 147.40734,315.83563 c 0.0409,-4.14798 -2.61037,-9.61768 -7.94197,-9.58079 -5.93396,0.0411 -9.25893,5.81645 -9.25893,5.81645 0,0 -3.32497,-5.7403 -9.25893,-5.78135 -5.3316,-0.0369 -8.01783,5.43331 -7.94197,9.58079 0.15747,8.60868 17.2009,19.27009 17.2009,19.27009 0,0 17.11724,-10.81434 17.2009,-19.30519 z"
       id="path5561-7-33-41"
       inkscape:connector-curvature="0"
       sodipodi:nodetypes="ascsaca" />
    <path
       style="fill:#ff5555;fill-rule:evenodd;stroke:none;stroke-width:1px;stroke-linecap:butt;stroke-linejoin:miter;stroke-opacity:1"
       d="m 208.43674,314.36503 c 0.0409,-4.14798 -2.61037,-9.61768 -7.94197,-9.58079 -5.93396,0.0411 -9.25893,5.81645 -9.25893,5.81645 0,0 -3.32497,-5.7403 -9.25893,-5.78135 -5.3316,-0.0369 -8.01783,5.43331 -7.94197,9.58079 0.15747,8.60868 17.2009,19.27009 17.2009,19.27009 0,0 17.11724,-10.81434 17.2009,-19.30519 z"
       id="path5561-7-33-31"
       inkscape:connector-curvature="0"
       sodipodi:nodetypes="ascsaca" />
    <path
       style="fill:#ff5555;fill-rule:evenodd;stroke:none;stroke-width:1px;stroke-linecap:butt;stroke-linejoin:miter;stroke-opacity:1"
       d="m 308.43675,333.48268 c 0.0409,-4.14798 -2.61037,-9.61768 -7.94197,-9.58079 -5.93396,0.0411 -9.25893,5.81645 -9.25893,5.81645 0,0 -3.32497,-5.7403 -9.25893,-5.78135 -5.3316,-0.0369 -8.01783,5.43331 -7.94197,9.58079 0.15747,8.60868 17.2009,19.27009 17.2009,19.27009 0,0 17.11724,-10.81434 17.2009,-19.30519 z"
       id="path5561-7-33-94"
       inkscape:connector-curvature="0"
       sodipodi:nodetypes="ascsaca" />
    <path
       style="fill:#ff5555;fill-rule:evenodd;stroke:none;stroke-width:1px;stroke-linecap:butt;stroke-linejoin:miter;stroke-opacity:1"
       d="m 340.78969,327.60033 c 0.0409,-4.14798 -2.61037,-9.61768 -7.94197,-9.58079 -5.93396,0.0411 -9.25893,5.81645 -9.25893,5.81645 0,0 -3.32497,-5.7403 -9.25893,-5.78135 -5.3316,-0.0369 -8.01783,5.43331 -7.94197,9.58079 0.15747,8.60868 17.2009,19.27009 17.2009,19.27009 0,0 17.11724,-10.81434 17.2009,-19.30519 z"
       id="path5561-7-33-92"
       inkscape:connector-curvature="0"
       sodipodi:nodetypes="ascsaca" />
    <path
       style="fill:#ff5555;fill-rule:evenodd;stroke:none;stroke-width:1px;stroke-linecap:butt;stroke-linejoin:miter;stroke-opacity:1"
       d="m 364.3191,334.95327 c 0.0409,-4.14798 -2.61037,-9.61768 -7.94197,-9.58079 -5.93396,0.0411 -9.25893,5.81645 -9.25893,5.81645 0,0 -3.32497,-5.7403 -9.25893,-5.78135 -5.3316,-0.0369 -8.01783,5.43331 -7.94197,9.58079 0.15747,8.60868 17.2009,19.27009 17.2009,19.27009 0,0 17.11724,-10.81434 17.2009,-19.30519 z"
       id="path5561-7-33-85"
       inkscape:connector-curvature="0"
       sodipodi:nodetypes="ascsaca" />
    <path
       style="fill:#ff5555;fill-rule:evenodd;stroke:none;stroke-width:1px;stroke-linecap:butt;stroke-linejoin:miter;stroke-opacity:1"
       d="m 387.84851,312.89445 c 0.0409,-4.14798 -2.61037,-9.61768 -7.94197,-9.58079 -5.93396,0.0411 -9.25893,5.81645 -9.25893,5.81645 0,0 -3.32497,-5.7403 -9.25893,-5.78135 -5.3316,-0.0369 -8.01783,5.43331 -7.94197,9.58079 0.15747,8.60868 17.2009,19.27009 17.2009,19.27009 0,0 17.11724,-10.81434 17.2009,-19.30519 z"
       id="path5561-7-33-851"
       inkscape:connector-curvature="0"
       sodipodi:nodetypes="ascsaca" />
    <path
       style="fill:#ff5555;fill-rule:evenodd;stroke:none;stroke-width:1px;stroke-linecap:butt;stroke-linejoin:miter;stroke-opacity:1"
       d="m 411.37792,332.01209 c 0.0409,-4.14798 -2.61037,-9.61768 -7.94197,-9.58079 -5.93396,0.0411 -9.25893,5.81645 -9.25893,5.81645 0,0 -3.32497,-5.7403 -9.25893,-5.78135 -5.3316,-0.0369 -8.01783,5.43331 -7.94197,9.58079 0.15747,8.60868 17.2009,19.27009 17.2009,19.27009 0,0 17.11724,-10.81434 17.2009,-19.30519 z"
       id="path5561-7-33-28"
       inkscape:connector-curvature="0"
       sodipodi:nodetypes="ascsaca" />
    <path
       style="fill:#ff5555;fill-rule:evenodd;stroke:none;stroke-width:1px;stroke-linecap:butt;stroke-linejoin:miter;stroke-opacity:1"
       d="m 422.40734,309.95326 c 0.0409,-4.14798 -2.61037,-9.61768 -7.94197,-9.58079 -5.93396,0.0411 -9.25893,5.81645 -9.25893,5.81645 0,0 -3.32497,-5.7403 -9.25893,-5.78135 -5.3316,-0.0369 -8.01783,5.43331 -7.94197,9.58079 0.15747,8.60869 17.2009,19.2701 17.2009,19.2701 0,0 17.11724,-10.81434 17.2009,-19.3052 z"
       id="path5561-7-33-13"
       inkscape:connector-curvature="0"
       sodipodi:nodetypes="ascsaca" />
    <path
       style="fill:#ff5555;fill-rule:evenodd;stroke:none;stroke-width:1px;stroke-linecap:butt;stroke-linejoin:miter;stroke-opacity:1"
       d="m 459.17204,306.27679 c 0.0409,-4.14798 -2.61037,-9.61768 -7.94197,-9.58079 -5.93396,0.0411 -9.25893,5.81645 -9.25893,5.81645 0,0 -3.32497,-5.7403 -9.25893,-5.78135 -5.3316,-0.0369 -8.01783,5.43331 -7.94197,9.58079 0.15747,8.60869 17.2009,19.2701 17.2009,19.2701 0,0 17.11724,-10.81434 17.2009,-19.3052 z"
       id="path5561-7-33-772"
       inkscape:connector-curvature="0"
       sodipodi:nodetypes="ascsaca" />
    <path
       style="fill:#ff5555;fill-rule:evenodd;stroke:none;stroke-width:1px;stroke-linecap:butt;stroke-linejoin:miter;stroke-opacity:1"
       d="m 445.20146,282.74739 c 0.0409,-4.14798 -2.61037,-9.61768 -7.94197,-9.58079 -5.93396,0.0411 -9.25893,5.81645 -9.25893,5.81645 0,0 -3.32497,-5.7403 -9.25893,-5.78135 -5.3316,-0.0369 -8.01783,5.43331 -7.94197,9.58079 0.15747,8.60868 17.2009,19.27009 17.2009,19.27009 0,0 17.11724,-10.81434 17.2009,-19.30519 z"
       id="path5561-7-33-37"
       inkscape:connector-curvature="0"
       sodipodi:nodetypes="ascsaca" />
    <path
       style="fill:#ff5555;fill-rule:evenodd;stroke:none;stroke-width:1px;stroke-linecap:butt;stroke-linejoin:miter;stroke-opacity:1"
       d="m 459.17204,253.33562 c 0.0409,-4.14798 -2.61037,-9.61768 -7.94197,-9.58079 -5.93396,0.0411 -9.25893,5.81645 -9.25893,5.81645 0,0 -3.32497,-5.7403 -9.25893,-5.78135 -5.3316,-0.0369 -8.01783,5.43331 -7.94197,9.58079 0.15747,8.60868 17.2009,19.27009 17.2009,19.27009 0,0 17.11724,-10.81434 17.2009,-19.30519 z"
       id="path5561-7-33-137"
       inkscape:connector-curvature="0"
       sodipodi:nodetypes="ascsaca" />
    <path
       style="fill:#ff5555;fill-rule:evenodd;stroke:none;stroke-width:1px;stroke-linecap:butt;stroke-linejoin:miter;stroke-opacity:1"
       d="m 421.67204,110.68857 c 0.0409,-4.14798 -2.61037,-9.61768 -7.94197,-9.58079 -5.93396,0.0411 -9.25893,5.81645 -9.25893,5.81645 0,0 -3.32497,-5.7403 -9.25893,-5.78135 -5.3316,-0.0369 -8.01783,5.43331 -7.94197,9.58079 0.15747,8.60868 17.2009,19.27009 17.2009,19.27009 0,0 17.11724,-10.81434 17.2009,-19.30519 z"
       id="path5561-7-33-46"
       inkscape:connector-curvature="0"
       sodipodi:nodetypes="ascsaca" />
    <path
       style="fill:#ff5555;fill-rule:evenodd;stroke:none;stroke-width:1px;stroke-linecap:butt;stroke-linejoin:miter;stroke-opacity:1"
       d="m 447.40733,132.01209 c 0.0409,-4.14798 -2.61037,-9.61768 -7.94197,-9.58079 -5.93396,0.0411 -9.25893,5.81645 -9.25893,5.81645 0,0 -3.32497,-5.7403 -9.25893,-5.78135 -5.3316,-0.0369 -8.01783,5.43331 -7.94197,9.58079 0.15747,8.60868 17.2009,19.27009 17.2009,19.27009 0,0 17.11724,-10.81434 17.2009,-19.30519 z"
       id="path5561-7-33-17"
       inkscape:connector-curvature="0"
       sodipodi:nodetypes="ascsaca" />
    <path
       style="fill:#ff5555;fill-rule:evenodd;stroke:none;stroke-width:1px;stroke-linecap:butt;stroke-linejoin:miter;stroke-opacity:1"
       d="m 467.99557,182.74739 c 0.0409,-4.14798 -2.61037,-9.61768 -7.94197,-9.58079 -5.93396,0.0411 -9.25893,5.81645 -9.25893,5.81645 0,0 -3.32497,-5.7403 -9.25893,-5.78135 -5.3316,-0.0369 -8.01783,5.43331 -7.94197,9.58079 0.15747,8.60868 17.2009,19.27009 17.2009,19.27009 0,0 17.11724,-10.81434 17.2009,-19.30519 z"
       id="path5561-7-33-133"
       inkscape:connector-curvature="0"
       sodipodi:nodetypes="ascsaca" />
    <path
       style="fill:#ff5555;fill-rule:evenodd;stroke:none;stroke-width:1px;stroke-linecap:butt;stroke-linejoin:miter;stroke-opacity:1"
       d="m 492.26027,209.95326 c 0.0409,-4.14798 -2.61037,-9.61768 -7.94197,-9.58079 -5.93396,0.0411 -9.25893,5.81645 -9.25893,5.81645 0,0 -3.32497,-5.7403 -9.25893,-5.78135 -5.3316,-0.0369 -8.01783,5.43331 -7.94197,9.58079 0.15747,8.60869 17.2009,19.2701 17.2009,19.2701 0,0 17.11724,-10.81434 17.2009,-19.3052 z"
       id="path5561-7-33-45"
       inkscape:connector-curvature="0"
       sodipodi:nodetypes="ascsaca" />
    <path
       style="fill:#ff5555;fill-rule:evenodd;stroke:none;stroke-width:1px;stroke-linecap:butt;stroke-linejoin:miter;stroke-opacity:1"
       d="m 479.76027,268.04151 c 0.0409,-4.14798 -2.61037,-9.61768 -7.94197,-9.58079 -5.93396,0.0411 -9.25893,5.81645 -9.25893,5.81645 0,0 -3.32497,-5.7403 -9.25893,-5.78135 -5.3316,-0.0369 -8.01783,5.43331 -7.94197,9.58079 0.15747,8.60868 17.2009,19.27009 17.2009,19.27009 0,0 17.11724,-10.81434 17.2009,-19.30519 z"
       id="path5561-7-33-518"
       inkscape:connector-curvature="0"
       sodipodi:nodetypes="ascsaca" />
    <path
       style="fill:#ff5555;fill-rule:evenodd;stroke:none;stroke-width:1px;stroke-linecap:butt;stroke-linejoin:miter;stroke-opacity:1"
       d="m 424.61321,254.80622 c 0.0409,-4.14798 -2.61037,-9.61768 -7.94197,-9.58079 -5.93396,0.0411 -9.25893,5.81645 -9.25893,5.81645 0,0 -3.32497,-5.7403 -9.25893,-5.78135 -5.3316,-0.0369 -8.01783,5.43331 -7.94197,9.58079 0.15747,8.60868 17.2009,19.27009 17.2009,19.27009 0,0 17.11724,-10.81434 17.2009,-19.30519 z"
       id="path5561-7-33-69"
       inkscape:connector-curvature="0"
       sodipodi:nodetypes="ascsaca" />
    <path
       style="fill:#ff5555;fill-rule:evenodd;stroke:none;stroke-width:1px;stroke-linecap:butt;stroke-linejoin:miter;stroke-opacity:1"
       d="m 470.20145,231.27679 c 0.0409,-4.14798 -2.61037,-9.61768 -7.94197,-9.58079 -5.93396,0.0411 -9.25893,5.81645 -9.25893,5.81645 0,0 -3.32497,-5.7403 -9.25893,-5.78135 -5.3316,-0.0369 -8.01783,5.43331 -7.94197,9.58079 0.15747,8.60868 17.2009,19.27009 17.2009,19.27009 0,0 17.11724,-10.81434 17.2009,-19.30519 z"
       id="path5561-7-33-52"
       inkscape:connector-curvature="0"
       sodipodi:nodetypes="ascsaca" />
    <path
       style="fill:#ff5555;fill-rule:evenodd;stroke:none;stroke-width:1px;stroke-linecap:butt;stroke-linejoin:miter;stroke-opacity:1"
       d="m 474.61321,152.60033 c 0.0409,-4.14798 -2.61037,-9.61768 -7.94197,-9.58079 -5.93396,0.0411 -9.25893,5.81645 -9.25893,5.81645 0,0 -3.32497,-5.7403 -9.25893,-5.78135 -5.3316,-0.0369 -8.01783,5.43331 -7.94197,9.58079 0.15747,8.60868 17.2009,19.27009 17.2009,19.27009 0,0 17.11724,-10.81434 17.2009,-19.30519 z"
       id="path5561-7-33-36"
       inkscape:connector-curvature="0"
       sodipodi:nodetypes="ascsaca" />
    <path
       style="fill:#ff5555;fill-rule:evenodd;stroke:none;stroke-width:1px;stroke-linecap:butt;stroke-linejoin:miter;stroke-opacity:1"
       d="m 422.40734,84.953266 c 0.0409,-4.14798 -2.61037,-9.61768 -7.94197,-9.58079 -5.93396,0.0411 -9.25893,5.81645 -9.25893,5.81645 0,0 -3.32497,-5.7403 -9.25893,-5.78135 -5.3316,-0.0369 -8.01783,5.43331 -7.94197,9.58079 0.15747,8.60868 17.2009,19.270094 17.2009,19.270094 0,0 17.11724,-10.814344 17.2009,-19.305194 z"
       id="path5561-7-33-39"
       inkscape:connector-curvature="0"
       sodipodi:nodetypes="ascsaca" />
    <path
       style="fill:#ff5555;fill-rule:evenodd;stroke:none;stroke-width:1px;stroke-linecap:butt;stroke-linejoin:miter;stroke-opacity:1"
       d="m 388.58381,121.71798 c 0.0409,-4.14798 -2.61037,-9.61768 -7.94197,-9.58079 -5.93396,0.0411 -9.25893,5.81645 -9.25893,5.81645 0,0 -3.32497,-5.7403 -9.25893,-5.78135 -5.3316,-0.0369 -8.01783,5.43331 -7.94197,9.58079 0.15747,8.60868 17.2009,19.27009 17.2009,19.27009 0,0 17.11724,-10.81434 17.2009,-19.30519 z"
       id="path5561-7-33-38"
       inkscape:connector-curvature="0"
       sodipodi:nodetypes="ascsaca" />
    <path
       style="fill:#ff5555;fill-rule:evenodd;stroke:none;stroke-width:1px;stroke-linecap:butt;stroke-linejoin:miter;stroke-opacity:1"
       d="m 416.52498,140.83562 c 0.0409,-4.14798 -2.61037,-9.61768 -7.94197,-9.58079 -5.93396,0.0411 -9.25893,5.81645 -9.25893,5.81645 0,0 -3.32497,-5.7403 -9.25893,-5.78135 -5.3316,-0.0369 -8.01783,5.43331 -7.94197,9.58079 0.15747,8.60868 17.2009,19.27009 17.2009,19.27009 0,0 17.11724,-10.81434 17.2009,-19.30519 z"
       id="path5561-7-33-790"
       inkscape:connector-curvature="0"
       sodipodi:nodetypes="ascsaca" />
    <path
       style="fill:#ff5555;fill-rule:evenodd;stroke:none;stroke-width:1px;stroke-linecap:butt;stroke-linejoin:miter;stroke-opacity:1"
       d="m 431.23086,165.83562 c 0.0409,-4.14798 -2.61037,-9.61768 -7.94197,-9.58079 -5.93396,0.0411 -9.25893,5.81645 -9.25893,5.81645 0,0 -3.32497,-5.7403 -9.25893,-5.78135 -5.3316,-0.0369 -8.01783,5.43331 -7.94197,9.58079 0.15747,8.60868 17.2009,19.27009 17.2009,19.27009 0,0 17.11724,-10.81434 17.2009,-19.30519 z"
       id="path5561-7-33-375"
       inkscape:connector-curvature="0"
       sodipodi:nodetypes="ascsaca" />
    <path
       style="fill:#ff5555;fill-rule:evenodd;stroke:none;stroke-width:1px;stroke-linecap:butt;stroke-linejoin:miter;stroke-opacity:1"
       d="m 373.14263,143.0415 c 0.0409,-4.14798 -2.61037,-9.61768 -7.94197,-9.58079 -5.93396,0.0411 -9.25893,5.81645 -9.25893,5.81645 0,0 -3.32497,-5.7403 -9.25893,-5.78135 -5.3316,-0.0369 -8.01783,5.43331 -7.94197,9.58079 0.15747,8.60868 17.2009,19.27009 17.2009,19.27009 0,0 17.11724,-10.81434 17.2009,-19.30519 z"
       id="path5561-7-33-06"
       inkscape:connector-curvature="0"
       sodipodi:nodetypes="ascsaca" />
    <path
       style="fill:#ff5555;fill-rule:evenodd;stroke:none;stroke-width:1px;stroke-linecap:butt;stroke-linejoin:miter;stroke-opacity:1"
       d="m 438.58381,195.24739 c 0.0409,-4.14798 -2.61037,-9.61768 -7.94197,-9.58079 -5.93396,0.0411 -9.25893,5.81645 -9.25893,5.81645 0,0 -3.32497,-5.7403 -9.25893,-5.78135 -5.3316,-0.0369 -8.01783,5.43331 -7.94197,9.58079 0.15747,8.60868 17.2009,19.27009 17.2009,19.27009 0,0 17.11724,-10.81434 17.2009,-19.30519 z"
       id="path5561-7-33-19"
       inkscape:connector-curvature="0"
       sodipodi:nodetypes="ascsaca" />
    <path
       style="fill:#ff5555;fill-rule:evenodd;stroke:none;stroke-width:1px;stroke-linecap:butt;stroke-linejoin:miter;stroke-opacity:1"
       d="m 395.20145,256.2768 c 0.0409,-4.14798 -2.61037,-9.61768 -7.94197,-9.58079 -5.93396,0.0411 -9.25893,5.81645 -9.25893,5.81645 0,0 -3.32497,-5.7403 -9.25893,-5.78135 -5.3316,-0.0369 -8.01783,5.43331 -7.94197,9.58079 0.15747,8.60868 17.2009,19.27009 17.2009,19.27009 0,0 17.11724,-10.81434 17.2009,-19.30519 z"
       id="path5561-7-33-799"
       inkscape:connector-curvature="0"
       sodipodi:nodetypes="ascsaca" />
    <path
       style="fill:#ff5555;fill-rule:evenodd;stroke:none;stroke-width:1px;stroke-linecap:butt;stroke-linejoin:miter;stroke-opacity:1"
       d="m 359.90733,268.04151 c 0.0409,-4.14798 -2.61037,-9.61768 -7.94197,-9.58079 -5.93396,0.0411 -9.25893,5.81645 -9.25893,5.81645 0,0 -3.32497,-5.7403 -9.25893,-5.78135 -5.3316,-0.0369 -8.01783,5.43331 -7.94197,9.58079 0.15747,8.60868 17.2009,19.27009 17.2009,19.27009 0,0 17.11724,-10.81434 17.2009,-19.30519 z"
       id="path5561-7-33-98"
       inkscape:connector-curvature="0"
       sodipodi:nodetypes="ascsaca" />
    <path
       style="fill:#ff5555;fill-rule:evenodd;stroke:none;stroke-width:1px;stroke-linecap:butt;stroke-linejoin:miter;stroke-opacity:1"
       d="m 348.87792,295.98268 c 0.0409,-4.14798 -2.61037,-9.61768 -7.94197,-9.58079 -5.93396,0.0411 -9.25893,5.81645 -9.25893,5.81645 0,0 -3.32497,-5.7403 -9.25893,-5.78135 -5.3316,-0.0369 -8.01783,5.43331 -7.94197,9.58079 0.15747,8.60868 17.2009,19.27009 17.2009,19.27009 0,0 17.11724,-10.81434 17.2009,-19.30519 z"
       id="path5561-7-33-83"
       inkscape:connector-curvature="0"
       sodipodi:nodetypes="ascsaca" />
    <path
       style="fill:#ff5555;fill-rule:evenodd;stroke:none;stroke-width:1px;stroke-linecap:butt;stroke-linejoin:miter;stroke-opacity:1"
       d="m 319.46616,277.60033 c 0.0409,-4.14798 -2.61037,-9.61768 -7.94197,-9.58079 -5.93396,0.0411 -9.25893,5.81645 -9.25893,5.81645 0,0 -3.32497,-5.7403 -9.25893,-5.78135 -5.3316,-0.0369 -8.01783,5.43331 -7.94197,9.58079 0.15747,8.60868 17.2009,19.27009 17.2009,19.27009 0,0 17.11724,-10.81434 17.2009,-19.30519 z"
       id="path5561-7-33-647"
       inkscape:connector-curvature="0"
       sodipodi:nodetypes="ascsaca" />
    <path
       style="fill:#ff5555;fill-rule:evenodd;stroke:none;stroke-width:1px;stroke-linecap:butt;stroke-linejoin:miter;stroke-opacity:1"
       d="m 402.55439,280.5415 c 0.0409,-4.14798 -2.61037,-9.61768 -7.94197,-9.58079 -5.93396,0.0411 -9.25893,5.81645 -9.25893,5.81645 0,0 -3.32497,-5.7403 -9.25893,-5.78135 -5.3316,-0.0369 -8.01783,5.43331 -7.94197,9.58079 0.15747,8.60868 17.2009,19.27009 17.2009,19.27009 0,0 17.11724,-10.81434 17.2009,-19.30519 z"
       id="path5561-7-33-88"
       inkscape:connector-curvature="0"
       sodipodi:nodetypes="ascsaca" />
    <path
       style="fill:#ff5555;fill-rule:evenodd;stroke:none;stroke-width:1px;stroke-linecap:butt;stroke-linejoin:miter;stroke-opacity:1"
       d="m 135.64262,217.30621 c 0.0409,-4.14798 -2.61037,-9.61768 -7.94197,-9.58079 -5.93396,0.0411 -9.25893,5.81645 -9.25893,5.81645 0,0 -3.32497,-5.7403 -9.25893,-5.78135 -5.3316,-0.0369 -8.01783,5.43331 -7.94197,9.58079 0.15747,8.60868 17.2009,19.27009 17.2009,19.27009 0,0 17.11724,-10.81434 17.2009,-19.30519 z"
       id="path5561-7-33-391"
       inkscape:connector-curvature="0"
       sodipodi:nodetypes="ascsaca" />
    <path
       style="fill:#ff5555;fill-rule:evenodd;stroke:none;stroke-width:1px;stroke-linecap:butt;stroke-linejoin:miter;stroke-opacity:1"
       d="m 166.52498,223.92386 c 0.0409,-4.14798 -2.61037,-9.61768 -7.94197,-9.58079 -5.93396,0.0411 -9.25893,5.81645 -9.25893,5.81645 0,0 -3.32497,-5.7403 -9.25893,-5.78135 -5.3316,-0.0369 -8.01783,5.43331 -7.94197,9.58079 0.15747,8.60868 17.2009,19.27009 17.2009,19.27009 0,0 17.11724,-10.81434 17.2009,-19.30519 z"
       id="path5561-7-33-02"
       inkscape:connector-curvature="0"
       sodipodi:nodetypes="ascsaca" />
    <path
       style="fill:#ff5555;fill-rule:evenodd;stroke:none;stroke-width:1px;stroke-linecap:butt;stroke-linejoin:miter;stroke-opacity:1"
       d="m 178.28969,251.86503 c 0.0409,-4.14798 -2.61037,-9.61768 -7.94197,-9.58079 -5.93396,0.0411 -9.25893,5.81645 -9.25893,5.81645 0,0 -3.32497,-5.7403 -9.25893,-5.78135 -5.3316,-0.0369 -8.01783,5.43331 -7.94197,9.58079 0.15747,8.60868 17.2009,19.27009 17.2009,19.27009 0,0 17.11724,-10.81434 17.2009,-19.30519 z"
       id="path5561-7-33-71"
       inkscape:connector-curvature="0"
       sodipodi:nodetypes="ascsaca" />
    <path
       style="fill:#ff5555;fill-rule:evenodd;stroke:none;stroke-width:1px;stroke-linecap:butt;stroke-linejoin:miter;stroke-opacity:1"
       d="m 210.64263,234.95327 c 0.0409,-4.14798 -2.61037,-9.61768 -7.94197,-9.58079 -5.93396,0.0411 -9.25893,5.81645 -9.25893,5.81645 0,0 -3.32497,-5.7403 -9.25893,-5.78135 -5.3316,-0.0369 -8.01783,5.43331 -7.94197,9.58079 0.15747,8.60868 17.2009,19.27009 17.2009,19.27009 0,0 17.11724,-10.81434 17.2009,-19.30519 z"
       id="path5561-7-33-84"
       inkscape:connector-curvature="0"
       sodipodi:nodetypes="ascsaca" />
    <path
       style="fill:#ff5555;fill-rule:evenodd;stroke:none;stroke-width:1px;stroke-linecap:butt;stroke-linejoin:miter;stroke-opacity:1"
       d="m 224.61322,257.01209 c 0.0409,-4.14798 -2.61037,-9.61768 -7.94197,-9.58079 -5.93396,0.0411 -9.25893,5.81645 -9.25893,5.81645 0,0 -3.32497,-5.7403 -9.25893,-5.78135 -5.3316,-0.0369 -8.01783,5.43331 -7.94197,9.58079 0.15747,8.60868 17.2009,19.27009 17.2009,19.27009 0,0 17.11724,-10.81434 17.2009,-19.30519 z"
       id="path5561-7-33-89"
       inkscape:connector-curvature="0"
       sodipodi:nodetypes="ascsaca" />
    <path
       style="fill:#ff5555;fill-rule:evenodd;stroke:none;stroke-width:1px;stroke-linecap:butt;stroke-linejoin:miter;stroke-opacity:1"
       d="m 189.3191,222.45327 c 0.0409,-4.14798 -2.61037,-9.61768 -7.94197,-9.58079 -5.93396,0.0411 -9.25893,5.81645 -9.25893,5.81645 0,0 -3.32497,-5.7403 -9.25893,-5.78135 -5.3316,-0.0369 -8.01783,5.43331 -7.94197,9.58079 0.15747,8.60868 17.2009,19.27009 17.2009,19.27009 0,0 17.11724,-10.81434 17.2009,-19.30519 z"
       id="path5561-7-33-622"
       inkscape:connector-curvature="0"
       sodipodi:nodetypes="ascsaca" />
    <path
       style="fill:#ff5555;fill-rule:evenodd;stroke:none;stroke-width:1px;stroke-linecap:butt;stroke-linejoin:miter;stroke-opacity:1"
       d="m 307.70145,209.21798 c 0.0409,-4.14798 -2.61037,-9.61768 -7.94197,-9.58079 -5.93396,0.0411 -9.25893,5.81645 -9.25893,5.81645 0,0 -3.32497,-5.7403 -9.25893,-5.78135 -5.3316,-0.0369 -8.01783,5.43331 -7.94197,9.58079 0.15747,8.60868 17.2009,19.27009 17.2009,19.27009 0,0 17.11724,-10.81434 17.2009,-19.30519 z"
       id="path5561-7-33-22"
       inkscape:connector-curvature="0"
       sodipodi:nodetypes="ascsaca" />
    <path
       style="fill:#ff5555;fill-rule:evenodd;stroke:none;stroke-width:1px;stroke-linecap:butt;stroke-linejoin:miter;stroke-opacity:1"
       d="m 341.52498,196.71798 c 0.0409,-4.14798 -2.61037,-9.61768 -7.94197,-9.58079 -5.93396,0.0411 -9.25893,5.81645 -9.25893,5.81645 0,0 -3.32497,-5.7403 -9.25893,-5.78135 -5.3316,-0.0369 -8.01783,5.43331 -7.94197,9.58079 0.15747,8.60868 17.2009,19.27009 17.2009,19.27009 0,0 17.11724,-10.81434 17.2009,-19.30519 z"
       id="path5561-7-33-858"
       inkscape:connector-curvature="0"
       sodipodi:nodetypes="ascsaca" />
    <path
       style="fill:#ff5555;fill-rule:evenodd;stroke:none;stroke-width:1px;stroke-linecap:butt;stroke-linejoin:miter;stroke-opacity:1"
       d="m 373.14263,195.24739 c 0.0409,-4.14798 -2.61037,-9.61768 -7.94197,-9.58079 -5.93396,0.0411 -9.25893,5.81645 -9.25893,5.81645 0,0 -3.32497,-5.7403 -9.25893,-5.78135 -5.3316,-0.0369 -8.01783,5.43331 -7.94197,9.58079 0.15747,8.60868 17.2009,19.27009 17.2009,19.27009 0,0 17.11724,-10.81434 17.2009,-19.30519 z"
       id="path5561-7-33-696"
       inkscape:connector-curvature="0"
       sodipodi:nodetypes="ascsaca" />
    <path
       style="fill:#ff5555;fill-rule:evenodd;stroke:none;stroke-width:1px;stroke-linecap:butt;stroke-linejoin:miter;stroke-opacity:1"
       d="m 365.78969,217.30621 c 0.0409,-4.14798 -2.61037,-9.61768 -7.94197,-9.58079 -5.93396,0.0411 -9.25893,5.81645 -9.25893,5.81645 0,0 -3.32497,-5.7403 -9.25893,-5.78135 -5.3316,-0.0369 -8.01783,5.43331 -7.94197,9.58079 0.15747,8.60868 17.2009,19.27009 17.2009,19.27009 0,0 17.11724,-10.81434 17.2009,-19.30519 z"
       id="path5561-7-33-065"
       inkscape:connector-curvature="0"
       sodipodi:nodetypes="ascsaca" />
    <path
       style="fill:#ff5555;fill-rule:evenodd;stroke:none;stroke-width:1px;stroke-linecap:butt;stroke-linejoin:miter;stroke-opacity:1"
       d="m 407.70146,201.12974 c 0.0409,-4.14798 -2.61037,-9.61768 -7.94197,-9.58079 -5.93396,0.0411 -9.25893,5.81645 -9.25893,5.81645 0,0 -3.32497,-5.7403 -9.25893,-5.78135 -5.3316,-0.0369 -8.01783,5.43331 -7.94197,9.58079 0.15747,8.60868 17.2009,19.27009 17.2009,19.27009 0,0 17.11724,-10.81434 17.2009,-19.30519 z"
       id="path5561-7-33-191"
       inkscape:connector-curvature="0"
       sodipodi:nodetypes="ascsaca" />
    <path
       style="fill:#ff5555;fill-rule:evenodd;stroke:none;stroke-width:1px;stroke-linecap:butt;stroke-linejoin:miter;stroke-opacity:1"
       d="m 206.96616,129.80621 c 0.0409,-4.14798 -2.61037,-9.61768 -7.94197,-9.58079 -5.93396,0.0411 -9.25893,5.81645 -9.25893,5.81645 0,0 -3.32497,-5.7403 -9.25893,-5.78135 -5.3316,-0.0369 -8.01783,5.43331 -7.94197,9.58079 0.15747,8.60868 17.2009,19.27009 17.2009,19.27009 0,0 17.11724,-10.81434 17.2009,-19.30519 z"
       id="path5561-7-33-646"
       inkscape:connector-curvature="0"
       sodipodi:nodetypes="ascsaca" />
    <path
       style="fill:#ff5555;fill-rule:evenodd;stroke:none;stroke-width:1px;stroke-linecap:butt;stroke-linejoin:miter;stroke-opacity:1"
       d="m 223.87793,151.12974 c 0.0409,-4.14798 -2.61037,-9.61768 -7.94197,-9.58079 -5.93396,0.0411 -9.25893,5.81645 -9.25893,5.81645 0,0 -3.32497,-5.7403 -9.25893,-5.78135 -5.3316,-0.0369 -8.01783,5.43331 -7.94197,9.58079 0.15747,8.60868 17.2009,19.27009 17.2009,19.27009 0,0 17.11724,-10.81434 17.2009,-19.30519 z"
       id="path5561-7-33-25"
       inkscape:connector-curvature="0"
       sodipodi:nodetypes="ascsaca" />
    <path
       style="fill:#ff5555;fill-rule:evenodd;stroke:none;stroke-width:1px;stroke-linecap:butt;stroke-linejoin:miter;stroke-opacity:1"
       d="m 252.5544,133.48268 c 0.0409,-4.14798 -2.61037,-9.61768 -7.94197,-9.58079 -5.93396,0.0411 -9.25893,5.81645 -9.25893,5.81645 0,0 -3.32497,-5.7403 -9.25893,-5.78135 -5.3316,-0.0369 -8.01783,5.43331 -7.94197,9.58079 0.15747,8.60868 17.2009,19.27009 17.2009,19.27009 0,0 17.11724,-10.81434 17.2009,-19.30519 z"
       id="path5561-7-33-850"
       inkscape:connector-curvature="0"
       sodipodi:nodetypes="ascsaca" />
    <path
       style="fill:#ff5555;fill-rule:evenodd;stroke:none;stroke-width:1px;stroke-linecap:butt;stroke-linejoin:miter;stroke-opacity:1"
       d="m 172.40734,143.0415 c 0.0409,-4.14798 -2.61037,-9.61768 -7.94197,-9.58079 -5.93396,0.0411 -9.25893,5.81645 -9.25893,5.81645 0,0 -3.32497,-5.7403 -9.25893,-5.78135 -5.3316,-0.0369 -8.01783,5.43331 -7.94197,9.58079 0.15747,8.60869 17.2009,19.2701 17.2009,19.2701 0,0 17.11724,-10.81434 17.2009,-19.3052 z"
       id="path5561-7-33-55"
       inkscape:connector-curvature="0"
       sodipodi:nodetypes="ascsaca" />
    <path
       style="fill:#ff5555;fill-rule:evenodd;stroke:none;stroke-width:1px;stroke-linecap:butt;stroke-linejoin:miter;stroke-opacity:1"
       d="m 159.17204,180.5415 c 0.0409,-4.14798 -2.61037,-9.61768 -7.94197,-9.58079 -5.93396,0.0411 -9.25893,5.81645 -9.25893,5.81645 0,0 -3.32497,-5.7403 -9.25893,-5.78135 -5.3316,-0.0369 -8.01783,5.43331 -7.94197,9.58079 0.15747,8.60868 17.2009,19.27009 17.2009,19.27009 0,0 17.11724,-10.81434 17.2009,-19.30519 z"
       id="path5561-7-33-624"
       inkscape:connector-curvature="0"
       sodipodi:nodetypes="ascsaca" />
    <path
       style="fill:#ff5555;fill-rule:evenodd;stroke:none;stroke-width:1px;stroke-linecap:butt;stroke-linejoin:miter;stroke-opacity:1"
       d="m 207.70146,173.92385 c 0.0409,-4.14798 -2.61037,-9.61768 -7.94197,-9.58079 -5.93396,0.0411 -9.25893,5.81645 -9.25893,5.81645 0,0 -3.32497,-5.7403 -9.25893,-5.78135 -5.3316,-0.0369 -8.01783,5.43331 -7.94197,9.58079 0.15747,8.60868 17.2009,19.27009 17.2009,19.27009 0,0 17.11724,-10.81434 17.2009,-19.30519 z"
       id="path5561-7-33-49"
       inkscape:connector-curvature="0"
       sodipodi:nodetypes="ascsaca" />
    <path
       style="fill:#ff5555;fill-rule:evenodd;stroke:none;stroke-width:1px;stroke-linecap:butt;stroke-linejoin:miter;stroke-opacity:1"
       d="m 137.84851,265.83562 c 0.0409,-4.14798 -2.61037,-9.61768 -7.94197,-9.58079 -5.93396,0.0411 -9.25893,5.81645 -9.25893,5.81645 0,0 -3.32497,-5.7403 -9.25893,-5.78135 -5.3316,-0.0369 -8.01783,5.43331 -7.94197,9.58079 0.15747,8.60868 17.2009,19.27009 17.2009,19.27009 0,0 17.11724,-10.81434 17.2009,-19.30519 z"
       id="path5561-7-33-396"
       inkscape:connector-curvature="0"
       sodipodi:nodetypes="ascsaca" />
    <path
       style="fill:#ff5555;fill-rule:evenodd;stroke:none;stroke-width:1px;stroke-linecap:butt;stroke-linejoin:miter;stroke-opacity:1"
       d="m 168.73087,284.95327 c 0.0409,-4.14798 -2.61037,-9.61768 -7.94197,-9.58079 -5.93396,0.0411 -9.25893,5.81645 -9.25893,5.81645 0,0 -3.32497,-5.7403 -9.25893,-5.78135 -5.3316,-0.0369 -8.01783,5.43331 -7.94197,9.58079 0.15747,8.60868 17.2009,19.27009 17.2009,19.27009 0,0 17.11724,-10.81434 17.2009,-19.30519 z"
       id="path5561-7-33-18"
       inkscape:connector-curvature="0"
       sodipodi:nodetypes="ascsaca" />
    <path
       style="fill:#ff5555;fill-rule:evenodd;stroke:none;stroke-width:1px;stroke-linecap:butt;stroke-linejoin:miter;stroke-opacity:1"
       d="m 358.43674,168.7768 c 0.0409,-4.14798 -2.61037,-9.61768 -7.94197,-9.58079 -5.93396,0.0411 -9.25893,5.81645 -9.25893,5.81645 0,0 -3.32497,-5.7403 -9.25893,-5.78135 -5.3316,-0.0369 -8.01783,5.43331 -7.94197,9.58079 0.15747,8.60868 17.2009,19.27009 17.2009,19.27009 0,0 17.11724,-10.81434 17.2009,-19.30519 z"
       id="path5561-7-33-32"
       inkscape:connector-curvature="0"
       sodipodi:nodetypes="ascsaca" />
    <path
       style="fill:#ff5555;fill-rule:evenodd;stroke:none;stroke-width:1px;stroke-linecap:butt;stroke-linejoin:miter;stroke-opacity:1"
       d="m 399.61321,171.71797 c 0.0409,-4.14798 -2.61037,-9.61768 -7.94197,-9.58079 -5.93396,0.0411 -9.25893,5.81645 -9.25893,5.81645 0,0 -3.32497,-5.7403 -9.25893,-5.78135 -5.3316,-0.0369 -8.01783,5.43331 -7.94197,9.58079 0.15747,8.60868 17.2009,19.27009 17.2009,19.27009 0,0 17.11724,-10.81434 17.2009,-19.30519 z"
       id="path5561-7-33-01"
       inkscape:connector-curvature="0"
       sodipodi:nodetypes="ascsaca" />
    <path
       style="fill:#ff5555;fill-rule:evenodd;stroke:none;stroke-width:1px;stroke-linecap:butt;stroke-linejoin:miter;stroke-opacity:1"
       d="m 418.73086,223.92386 c 0.0409,-4.14798 -2.61037,-9.61768 -7.94197,-9.58079 -5.93396,0.0411 -9.25893,5.81645 -9.25893,5.81645 0,0 -3.32497,-5.7403 -9.25893,-5.78135 -5.3316,-0.0369 -8.01783,5.43331 -7.94197,9.58079 0.15747,8.60868 17.2009,19.27009 17.2009,19.27009 0,0 17.11724,-10.81434 17.2009,-19.30519 z"
       id="path5561-7-33-11"
       inkscape:connector-curvature="0"
       sodipodi:nodetypes="ascsaca" />
    <path
       style="fill:#ff5555;fill-rule:evenodd;stroke:none;stroke-width:1px;stroke-linecap:butt;stroke-linejoin:miter;stroke-opacity:1"
       d="m 387.84851,236.42386 c 0.0409,-4.14798 -2.61037,-9.61768 -7.94197,-9.58079 -5.93396,0.0411 -9.25893,5.81645 -9.25893,5.81645 0,0 -3.32497,-5.7403 -9.25893,-5.78135 -5.3316,-0.0369 -8.01783,5.43331 -7.94197,9.58079 0.15747,8.60868 17.2009,19.27009 17.2009,19.27009 0,0 17.11724,-10.81434 17.2009,-19.30519 z"
       id="path5561-7-33-854"
       inkscape:connector-curvature="0"
       sodipodi:nodetypes="ascsaca" />
    <path
       style="fill:#ff5555;fill-rule:evenodd;stroke:none;stroke-width:1px;stroke-linecap:butt;stroke-linejoin:miter;stroke-opacity:1"
       d="m 340.0544,245.98268 c 0.0409,-4.14798 -2.61037,-9.61768 -7.94197,-9.58079 -5.93396,0.0411 -9.25893,5.81645 -9.25893,5.81645 0,0 -3.32497,-5.7403 -9.25893,-5.78135 -5.3316,-0.0369 -8.01783,5.43331 -7.94197,9.58079 0.15747,8.60868 17.2009,19.27009 17.2009,19.27009 0,0 17.11724,-10.81434 17.2009,-19.30519 z"
       id="path5561-7-33-80"
       inkscape:connector-curvature="0"
       sodipodi:nodetypes="ascsaca" />
    <path
       style="fill:#ff5555;fill-rule:evenodd;stroke:none;stroke-width:1px;stroke-linecap:butt;stroke-linejoin:miter;stroke-opacity:1"
       d="m 323.14263,162.89444 c 0.0409,-4.14798 -2.61037,-9.61768 -7.94197,-9.58079 -5.93396,0.0411 -9.25893,5.81645 -9.25893,5.81645 0,0 -3.32497,-5.7403 -9.25893,-5.78135 -5.3316,-0.0369 -8.01783,5.43331 -7.94197,9.58079 0.15747,8.60868 17.2009,19.27009 17.2009,19.27009 0,0 17.11724,-10.81434 17.2009,-19.30519 z"
       id="path5561-7-33-82"
       inkscape:connector-curvature="0"
       sodipodi:nodetypes="ascsaca" />
  </g>
</svg>
