<?xml version="1.0" encoding="UTF-8" standalone="no"?>
<!-- Created with Inkscape (http://www.inkscape.org/) -->

<svg
   xmlns:dc="http://purl.org/dc/elements/1.1/"
   xmlns:cc="http://creativecommons.org/ns#"
   xmlns:rdf="http://www.w3.org/1999/02/22-rdf-syntax-ns#"
   xmlns:svg="http://www.w3.org/2000/svg"
   xmlns="http://www.w3.org/2000/svg"
   xmlns:sodipodi="http://sodipodi.sourceforge.net/DTD/sodipodi-0.dtd"
   xmlns:inkscape="http://www.inkscape.org/namespaces/inkscape"
   width="256"
   height="256"
   viewBox="0 0 744.09449 1052.3622"
   id="svg2"
   version="1.1"
   inkscape:version="0.91 r13725"
   sodipodi:docname="processing.svg">
  <defs
     id="defs4" />
  <sodipodi:namedview
     id="base"
     pagecolor="#ffffff"
     bordercolor="#666666"
     borderopacity="1.0"
     inkscape:pageopacity="0.0"
     inkscape:pageshadow="2"
     inkscape:zoom="1"
     inkscape:cx="347.82629"
     inkscape:cy="193.4411"
     inkscape:document-units="px"
     inkscape:current-layer="layer1"
     showgrid="false"
     inkscape:snap-page="true"
     inkscape:window-width="1331"
     inkscape:window-height="679"
     inkscape:window-x="156"
     inkscape:window-y="156"
     inkscape:window-maximized="0">
    <inkscape:grid
       type="xygrid"
       id="grid3355" />
  </sodipodi:namedview>
  <metadata
     id="metadata7">
    <rdf:RDF>
      <cc:Work
         rdf:about="">
        <dc:format>image/svg+xml</dc:format>
        <dc:type
           rdf:resource="http://purl.org/dc/dcmitype/StillImage" />
        <dc:title></dc:title>
      </cc:Work>
    </rdf:RDF>
  </metadata>
  <g
     inkscape:label="Layer 1"
     inkscape:groupmode="layer"
     id="layer1">
    <path
       style="fill:#1a1a1a"
       d="m -72.172089,1050.5728 c -31.901571,-6.3728 -54.313651,-22.5777 -66.952201,-48.4101 l -11.23634,-22.96616 -0.86929,-447.4698 -0.8693,-447.469725 11.26973,-24.033597 C -128.938,34.863826 -110.70118,18.076723 -86.092287,9.8373326 -64.366793,2.5633945 808.86033,2.9368588 833.27088,10.230733 c 24.72535,7.387816 50.92597,34.791246 58.61751,61.308643 5.19876,17.923248 6.17545,91.166744 6.17545,463.090894 l 0,441.80016 -12.95089,25.32327 c -11.28474,22.0657 -16.20836,26.9896 -38.27105,38.2744 l -25.32017,12.951 -437.51713,0.6605 c -240.63439,0.3651 -445.913888,-1.0166 -456.176689,-3.0668 z m -1.987351,-90.55486 c -1.368371,-3.41919 -2.384035,-2.40348 -2.589719,2.58972 -0.18624,4.51857 0.826962,7.05045 2.251287,5.62616 1.424325,-1.42469 1.576639,-5.12159 0.338432,-8.21588 z m -56.6458,-16.56509 c -2.72574,-4.41028 77.244994,-1.84189 92.295102,2.96424 4.092929,1.30738 4.871773,0.62231 2.143154,-1.88496 -2.357493,-2.16637 -21.646199,-6.21032 -42.863759,-8.98668 -21.217597,-2.77678 -44.846227,-6.15535 -52.508157,-7.50867 -10.81983,-1.9108 -13.93074,-0.96525 -13.93074,4.23347 0,3.68131 3.37554,8.65974 7.50116,11.0624 9.6343,5.61181 10.76848,5.63027 7.36324,0.11896 z M 617.30599,916.4091 c 0,-4.03985 -3.59,-5.14868 -11.66772,-3.60461 -10.47497,2.00229 -10.80359,2.56798 -3.21481,5.53387 12.43442,4.85947 14.88253,4.54195 14.88253,-1.92926 z m -26.41841,-4.86644 c -4.41565,-4.41561 -42.16368,-14.02789 -42.16368,-10.73669 0,1.89275 7.23329,5.36239 16.07394,7.71049 18.36632,4.87793 29.19789,6.13443 26.08974,3.0262 z m -46.45007,-12.56914 c 0,-2.12494 -44.52355,-15.47186 -49.95305,-14.97426 -4.7008,0.43032 37.54665,16.04411 44.59509,16.48099 2.9469,0.1805 5.35796,-0.49554 5.35796,-1.50673 z m -154.30964,-31.9668 0,-29.51931 -26.78991,-4.57424 c -14.73436,-2.51575 -34.02311,-5.71481 -42.8638,-7.10911 l -16.07389,-2.53495 0,-85.78635 c 0,-50.97105 1.59641,-84.79968 3.93364,-83.35521 8.42477,5.2068 114.81974,2.27893 143.65078,-3.95313 16.33992,-3.53199 29.98367,-5.96726 30.31935,-5.41174 0.33597,0.55556 10.11307,13.53196 21.72763,28.83645 24.44866,32.21621 53.36765,74.22975 52.02106,75.57638 -0.50888,0.5088 -10.5637,4.8326 -22.34411,9.60838 -11.78041,4.77578 -18.39352,8.78843 -14.69576,8.91699 9.48215,0.32982 51.14294,-12.4039 51.14294,-15.63172 0,-1.47084 -11.1757,-16.34484 -24.83504,-33.05339 -30.63724,-37.47675 -58.16562,-75.34666 -56.04753,-77.10285 0.87151,-0.7226 15.06967,-7.86519 31.55149,-15.87248 43.392,-21.08091 83.50901,-60.41186 104.60002,-102.55047 9.19335,-18.36776 18.01821,-41.1081 19.61064,-50.53409 2.61573,-15.48199 4.9098,-18.00472 23.74029,-26.10533 11.46467,-4.93195 22.41614,-8.89472 24.33659,-8.80623 5.36777,0.24736 38.38776,29.70739 33.37857,29.77991 -2.42235,0.0328 -8.81591,-3.02627 -14.20793,-6.803 -5.39201,-3.77673 -10.70908,-5.9614 -11.81564,-4.85479 -1.10661,1.10661 15.89573,14.20883 37.78302,29.11622 51.33939,34.96707 121.54817,87.32713 139.87946,104.31869 10.0937,9.356 13.91219,11.12947 12.85916,5.97243 -1.54907,-7.58636 -75.27261,-76.24918 -81.86899,-76.24918 -2.04556,0 -2.52703,1.92885 -1.07005,4.28634 7.07469,11.44707 -7.8126,1.98383 -27.16645,-17.26841 -11.91763,-11.85519 -28.77648,-24.52479 -37.46408,-28.15471 -11.80424,-4.93211 -14.56342,-7.832 -10.91935,-11.47606 3.6441,-3.64407 0.51843,-9.31655 -12.36949,-22.44839 l -17.24573,-17.57214 8.68854,-42.2271 c 9.1203,-44.32525 9.25485,-59.94958 0.21455,-24.93013 -6.38274,24.72527 -12.41625,43.04393 -18.24892,55.4064 -3.74412,7.93575 -6.19219,8.67447 -17.75621,5.35792 -20.18147,-5.788 -23.91681,-4.32445 -7.33067,2.87208 l 14.712,6.38339 -15.76811,8.45114 c -8.67242,4.64817 -16.25726,8.45472 -16.8552,8.45899 -0.5979,0.003 -0.43922,-11.45671 0.35279,-25.46892 1.78507,-31.58739 -11.55672,-86.83786 -27.56608,-114.15576 -27.12514,-46.2854 -75.29994,-79.26865 -141.04261,-96.56586 -31.90301,-8.39384 -44.73879,-8.99272 -184.3144,-8.60005 -82.51278,0.23218 -156.29209,0.4304 -163.95401,0.44061 -12.47957,0.0164 -13.93075,1.30122 -13.93075,12.33224 0,8.87933 -4.38036,16.05527 -15.70576,25.7292 -8.638188,7.37854 -14.753887,14.36742 -13.590433,15.53089 1.163421,1.16342 6.638409,-2.69925 12.166553,-8.58369 13.08715,-13.93062 17.12964,-13.50128 17.12964,1.81949 0,10.21685 2.16728,12.96008 11.78756,14.91982 14.10409,2.87322 66.19515,11.06076 70.663,11.10662 1.73385,0.0164 3.6627,123.3924 4.28638,274.1657 l 1.13387,274.13326 -17.14551,2.47699 c -9.43005,1.36234 -29.20097,4.56185 -43.93542,7.10993 l -26.78988,4.63302 0,29.51931 0,29.51942 135.02099,0 135.02095,0 0,-29.51942 z m -71.79686,-290.77358 -13.93074,-1.72879 0,-147.60854 0,-147.60854 53.36875,0 c 60.68605,0 88.96354,4.79633 121.59354,20.62438 67.29166,32.64137 92.47367,126.75981 54.19083,202.53941 -10.43197,20.64978 -35.98264,46.36474 -56.72767,57.09236 -31.08914,16.07685 -102.68351,23.61587 -158.49471,16.68972 z M 818.16912,536.6127 c -5.56558,-4.63651 -8.00708,-8.4943 -5.42553,-8.57273 2.58148,-0.0784 8.18479,3.71507 12.45182,8.4301 9.92691,10.96916 6.06358,11.04755 -7.02629,0.14275 z m -94.25041,-80.51223 c -5.33167,-6.79845 -5.18009,-6.95007 1.61836,-1.6184 4.12566,3.23561 7.5012,6.61115 7.5012,7.5012 0,3.5279 -3.51989,1.25725 -9.11956,-5.8828 z M 329.98724,804.3688 c 0,-2.35749 -1.86978,-1.39303 -4.15507,2.14319 -2.28534,3.5363 -4.15508,8.35848 -4.15508,10.71597 0,2.3575 1.86974,1.39307 4.15508,-2.14319 2.28529,-3.53622 4.15507,-8.35848 4.15507,-10.71597 z m -8.44146,-7.96319 c 0,-5.446 -1.97989,-3.0143 -8.2286,10.10638 -4.81213,10.10421 -4.72287,10.24098 1.56252,2.3956 3.66639,-4.5762 6.66608,-10.20212 6.66608,-12.50198 z m 18.97493,-19.89825 c 1.99207,-7.44751 1.65466,-8.75492 -1.10624,-4.28639 -2.18492,3.5363 -5.26239,11.25176 -6.8389,17.14551 -1.99215,7.4475 -1.65471,8.75496 1.10624,4.28639 2.18487,-3.53622 5.26238,-11.25176 6.8389,-17.14551 z m 2.09766,-27.86149 c 0,-2.35749 -3.69608,2.46469 -8.21347,10.71598 -4.51738,8.25128 -8.21342,16.93117 -8.21342,19.2887 0,2.35749 3.69604,-2.46468 8.21342,-10.71593 4.51739,-8.25129 8.21347,-16.93121 8.21347,-19.28875 z m 150.96857,24.48488 c -3.09232,-1.03084 -7.66045,0.16409 -10.15118,2.65462 -3.18085,3.18076 -1.50732,3.73858 5.62239,1.87413 5.79608,-1.51568 7.73913,-3.45865 4.52879,-4.52875 z M -140.20165,602.90896 c 1.16412,-9.43005 3.43662,-21.00322 5.04997,-25.71829 1.96577,-5.74517 0.7651,-5.03828 -3.64042,2.1432 -3.61559,5.89379 -6.64211,18.2707 -6.72563,27.5043 -0.1887,20.84845 2.50283,18.85917 5.31608,-3.92921 z m 35.87127,-119.69537 c -2.11571,-5.60496 -11.40169,16.63586 -11.16684,26.74569 0.0923,3.97212 3.03411,0.61652 6.53734,-7.45698 3.50324,-8.07358 5.5865,-16.75343 4.6295,-19.28871 z M 753.11181,287.05638 c -1.36825,-3.41939 -2.384,-2.40372 -2.58964,2.58972 -0.18624,4.51857 0.82696,7.05016 2.25133,5.6258 1.42428,-1.42429 1.57656,-5.12135 0.33843,-8.21552 z m -4.28635,-21.43194 c -1.36825,-3.41935 -2.38395,-2.40364 -2.58964,2.58972 -0.18624,4.51857 0.82692,7.0502 2.25129,5.62588 1.42432,-1.42433 1.57656,-5.12135 0.33802,-8.2156 z M 126.94692,157.42512 c 16.26526,-23.41031 30.8199,-44.41821 32.3436,-46.68414 2.88025,-4.28327 66.68036,8.70663 70.12321,14.27733 1.00884,1.63231 -14.47868,16.97179 -34.41668,34.08776 -32.51045,27.9087 -40.13064,38.73999 -27.25501,38.73999 2.3575,0 3.25355,-1.67108 1.99127,-3.71352 -3.15289,-5.1015 12.33814,-18.51967 16.75497,-14.51288 1.95479,1.77325 1.96404,0.48525 0.0205,-2.86227 -2.52808,-4.35457 -1.74693,-5.40084 2.74525,-3.67705 3.76497,1.44479 15.6305,-5.94753 29.63626,-18.46359 12.84654,-11.48017 25.6577,-20.91654 28.46924,-20.96971 2.81152,-0.0529 4.48928,-3.47218 3.72834,-7.5978 -0.76091,-4.12567 0.252,-11.84116 2.2512,-17.14551 3.33594,-8.85173 6.34693,-9.644357 36.63502,-9.644357 40.47554,0 40.10479,-3.106185 -0.62456,-5.232601 -23.0699,-1.204447 -29.8003,-2.999856 -29.27756,-7.810055 0.37371,-3.435345 3.92097,-21.344318 7.88344,-39.797652 7.44365,-34.664939 6.17336,-50.6936267 -1.70524,-21.517061 -2.44926,9.070168 -7.71964,28.064459 -11.712,42.209499 l -7.25883,25.718288 -3.06957,-17.145512 C 242.52152,66.254225 239.80391,47.447692 238.1707,33.892056 236.53753,20.33642 233.74525,9.2454262 231.96566,9.2454262 c -1.77956,0 -2.6842,5.3043078 -2.01029,11.7875058 0.67388,6.483116 2.04657,24.807436 3.05043,40.720647 l 1.82511,28.933059 -29.8256,0 -29.82567,0 12.75959,-22.503517 c 33.80064,-59.6125066 38.63486,-70.8499898 21.66628,-50.364959 -5.81258,7.017099 -8.0454,8.126744 -6.4688,3.21477 3.77727,-11.7681844 -2.79214,-8.675864 -13.81637,6.503627 L 179.25681,41.393215 182.0134,25.31932 C 185.61546,4.3154849 173.64013,2.2926494 169.32523,23.176126 159.03036,73.001646 144.37932,110.76502 118.294,154.71003 c -25.859744,43.56503 -33.964833,59.84724 -24.566584,49.35131 2.00541,-2.23964 16.954144,-23.22596 33.219444,-46.63622 z m 89.58254,-45.30662 c -17.95137,-8.31003 -17.07605,-10.06569 4.28638,-8.59719 11.86453,0.81556 19.06147,6.04025 19.22306,13.95515 0.0937,4.58388 -4.09512,3.6293 -23.50944,-5.35796 z m 671.39986,21.79121 c -3.08002,-1.9035 -5.78813,-5.17419 -6.01813,-7.26811 -0.83689,-7.6191 -19.64843,-18.79095 -27.40196,-16.27355 -5.89244,1.91322 -6.41399,1.51039 -2.06631,-1.59584 4.06605,-2.90489 4.38845,-5.03693 1.07157,-7.0868 -2.6092,-1.61261 -4.74399,-0.94982 -4.74399,1.47282 0,2.42267 -3.37549,3.21702 -7.50116,1.76534 -11.16955,-3.9304 -2.61392,3.60608 24.41018,21.50246 12.83628,8.50061 24.35365,14.44068 25.59415,13.20018 1.24059,-1.24055 -0.26459,-3.81304 -3.34435,-5.7165 z M 820.8607,118.02029 c 4.05194,-6.18402 5.24851,-9.93438 2.65921,-8.33403 -4.9482,3.05815 -14.92807,19.57779 -11.82742,19.57779 0.99055,0 5.11626,-5.05973 9.16821,-11.24376 z m 12.39984,0.3052 c 1.46375,-3.81455 0.74516,-5.53505 -1.68461,-4.0334 -2.33054,1.44032 -4.23733,4.43378 -4.23733,6.65217 0,6.16568 3.07239,4.80699 5.92194,-2.61877 z m -507.42837,-1.92056 c 3.53626,-2.28534 4.50068,-4.15512 2.14319,-4.15512 -2.35753,0 -7.17971,1.86978 -10.71597,4.15512 -3.53626,2.28525 -4.50069,4.15507 -2.14315,4.15507 2.35749,0 7.17967,-1.86982 10.71593,-4.15507 z M 825.03559,67.196254 c -9.85783,-33.910011 -12.54108,-26.797371 -3.40528,9.026931 4.13288,16.20619 8.17892,26.271385 8.99124,22.367161 0.81232,-3.904186 -1.7013,-18.031546 -5.58596,-31.394092 z m 10.87579,-2.227863 c -7.06629,-17.059612 -10.04645,-14.079528 -3.81016,3.810082 2.64075,7.575162 5.80239,12.771952 7.02591,11.548471 1.22349,-1.223481 -0.22357,-8.134867 -3.21575,-15.358553 z M 420.66439,63.825272 c -4.2333,-4.20176 -4.72565,-3.709414 -2.39945,2.399541 1.60962,4.227275 4.00641,6.606264 5.32617,5.286504 1.31968,-1.319678 0.003,-4.778406 -2.92672,-7.686045 z"
       id="path3351"
       inkscape:connector-curvature="0" />
  </g>
</svg>
